<svg xmlns="http://www.w3.org/2000/svg" xmlns:xlink="http://www.w3.org/1999/xlink" width="2247.693" height="896.95" viewBox="0 0 2247.693 896.95">
  <defs>
    <linearGradient id="linear-gradient" x1="0.972" y1="0.735" x2="-0.183" y2="0.221" gradientUnits="objectBoundingBox">
      <stop offset="0" stop-color="#f4ad57"/>
      <stop offset="0.31" stop-color="#f75831"/>
      <stop offset="0.502" stop-color="#6c41e4"/>
      <stop offset="0.645" stop-color="#5079f1"/>
      <stop offset="0.813" stop-color="#2debd9"/>
      <stop offset="1" stop-color="#f4ad57"/>
    </linearGradient>
  </defs>
  <path id="Path_761" data-name="Path 761" d="M-21458.967-13905.439q-44.314,0-84.064-22.292c-54.221-30.451-87.176-87.158-105.514-155.664-178.566,37.808-339.244,1.83-350.92-.9l19.482-83.319,19.234-83.239c9.5,2.168,148.355,32.574,292.8-3.449.109-103.966,17.109-209.37,35.326-282.238,39.666-158.663,139.795-231,220.273-245.795,73.066-13.431,144.031,14.925,185.193,74,28.441,40.82,81.865,157.219-36.043,355.939-60.6,102.136-139.951,169.193-224.035,212.509,7.012,34.6,17.064,57.049,27.932,63.059-.172-.12,38.035,2.816,128.24-88.649l43.07-43.76c350.023-355.989,635.121-625.46,853.266-590.02,52.488,8.53,125.105,39.259,172.992,137.207,37.461,76.624,43.855,151.013,19.008,221.1-38.174,107.679-141.875,176.238-230.871,222.19,83.383,38.441,190.514,72.44,296.129,38.467,103.586-33.318,195.273-129.136,272.516-284.79l153.176,76.012c-98.535,198.565-224.143,323.578-373.33,371.564a468.77,468.77,0,0,1-144.35,22.458c-151.053,0-281.465-69.188-360.1-110.9-16.465-8.735-35.129-18.638-42.105-21.174-60.531-22.012-67.295-71.622-67.926-86.3-2.908-67.658,54.713-94.411,121.434-125.389,70.643-32.8,188.877-87.693,214.254-159.271,5.77-16.276,10.859-43.2-11.463-88.854-19.076-39.021-37.8-42.064-46.8-43.527a94.134,94.134,0,0,0-15.113-1.168c-155.584,0-487.711,337.787-688.789,542.291l-43.248,43.943C-21301.193-13952.229-21384.8-13905.44-21458.967-13905.439Zm82.834-709.257a29.526,29.526,0,0,0-5.3.542c-21.615,3.973-63.9,33.525-85.293,119.086a1033.357,1033.357,0,0,0-26.354,153.983,386.6,386.6,0,0,0,82.82-98.566c54.629-92.071,55.527-152.664,42.8-170.928C-21368.584-14612.2-21370.322-14614.7-21376.133-14614.7Z" transform="translate(21999.465 14802.39)" opacity="0.05" fill="url(#linear-gradient)"/>
</svg>
