<svg xmlns="http://www.w3.org/2000/svg" width="64" height="34.693" viewBox="0 0 64 34.693">
  <g id="Anniversary-white" transform="translate(-161 -6.447)">
    <path id="Path_688" data-name="Path 688" d="M2.9-3.975H7.313V-23.552h-5.9v4.2H2.9Zm14.789.186c4.282,0,7.208-2.82,7.208-6.942a6.011,6.011,0,0,0-6.3-6.384,6.432,6.432,0,0,0-1.25.106q1.915-3.272,4.229-6.543h-5l-3.83,6.57A12.568,12.568,0,0,0,10.664-10.6C10.664-6.475,13.511-3.789,17.687-3.789ZM15.107-10.6a2.636,2.636,0,0,1,2.687-2.873,2.63,2.63,0,0,1,2.66,2.873,2.63,2.63,0,0,1-2.66,2.873A2.636,2.636,0,0,1,15.107-10.6Z" transform="translate(159.931 30)" fill="#fff"/>
    <path id="Path_693" data-name="Path 693" d="M7.58-10.5,4.736-4.878v3.1H2.77V-4.841L0-10.5H2.246L3.653-7.246q.037.091.2.712h.024a3.172,3.172,0,0,1,.189-.688L5.5-10.5Zm6.4,6.161H9.911q.1,1.358,1.711,1.358a3.34,3.34,0,0,0,1.808-.487v1.388a4.75,4.75,0,0,1-2.246.463A3.162,3.162,0,0,1,8.84-2.458a3.163,3.163,0,0,1-.834-2.335,3.336,3.336,0,0,1,.9-2.46,3,3,0,0,1,2.216-.907,2.725,2.725,0,0,1,2.11.81,3.118,3.118,0,0,1,.746,2.2ZM12.194-5.523q0-1.339-1.084-1.339a1.035,1.035,0,0,0-.8.384,1.741,1.741,0,0,0-.411.956Zm8.115,3.75h-1.82v-.895h-.024A2.032,2.032,0,0,1,16.608-1.62a1.942,1.942,0,0,1-1.428-.514,1.843,1.843,0,0,1-.521-1.373q0-1.814,2.149-2.094L18.5-5.827q0-1.023-1.108-1.023a3.782,3.782,0,0,0-2.119.664V-7.635A4.766,4.766,0,0,1,16.374-8a5.777,5.777,0,0,1,1.269-.158A2.354,2.354,0,0,1,20.31-5.5ZM18.5-4.305v-.42l-1.132.146q-.938.122-.938.846a.7.7,0,0,0,.228.539.877.877,0,0,0,.618.21,1.139,1.139,0,0,0,.883-.374A1.352,1.352,0,0,0,18.5-4.305Zm7.4-1.966a1.669,1.669,0,0,0-.81-.189,1.166,1.166,0,0,0-.98.46,2.005,2.005,0,0,0-.353,1.251v2.977H21.832V-8.007h1.924V-6.85h.024a1.664,1.664,0,0,1,1.644-1.266,1.239,1.239,0,0,1,.475.073Zm.487,4.335V-3.5a4.1,4.1,0,0,0,.947.426,3.139,3.139,0,0,0,.892.14,1.913,1.913,0,0,0,.807-.14.452.452,0,0,0,.3-.426.394.394,0,0,0-.134-.3,1.245,1.245,0,0,0-.344-.213,3.9,3.9,0,0,0-.46-.164q-.25-.073-.481-.164a4.608,4.608,0,0,1-.654-.3,1.892,1.892,0,0,1-.475-.374,1.472,1.472,0,0,1-.292-.493,1.968,1.968,0,0,1-.1-.664,1.708,1.708,0,0,1,.228-.9,1.865,1.865,0,0,1,.609-.618,2.782,2.782,0,0,1,.871-.353,4.539,4.539,0,0,1,1.02-.113,5.658,5.658,0,0,1,.84.064,6.27,6.27,0,0,1,.84.186v1.485a3.036,3.036,0,0,0-.782-.32,3.3,3.3,0,0,0-.819-.107,1.814,1.814,0,0,0-.356.033,1.173,1.173,0,0,0-.3.1.542.542,0,0,0-.2.164.378.378,0,0,0-.073.228.422.422,0,0,0,.11.292.952.952,0,0,0,.286.21,2.825,2.825,0,0,0,.393.158q.216.07.429.143a5.579,5.579,0,0,1,.694.292,2.219,2.219,0,0,1,.533.371,1.458,1.458,0,0,1,.341.5,1.774,1.774,0,0,1,.119.682,1.779,1.779,0,0,1-.24.947,1.925,1.925,0,0,1-.639.639,2.9,2.9,0,0,1-.919.359,5.1,5.1,0,0,1-1.081.113A5.571,5.571,0,0,1,26.386-1.937Z" transform="translate(189.138 26.967)" fill="#fff"/>
    <rect id="Rectangle_304" data-name="Rectangle 304" width="64" height="1.185" transform="translate(161 28.103)" fill="#fff"/>
    <rect id="Rectangle_305" data-name="Rectangle 305" width="64" height="1.185" transform="translate(161 39.955)" fill="#fff"/>
    <path id="Path_692" data-name="Path 692" d="M6.329-.657H4.947L4.418-2.221H1.961L1.445-.657H.063L2.485-7.2H3.947ZM4.1-3.225,3.3-5.594a3.328,3.328,0,0,1-.1-.542H3.17a2.861,2.861,0,0,1-.111.533l-.8,2.377ZM12.888-.657H11.564L8.671-5.087a4.747,4.747,0,0,1-.293-.507H8.36A10.057,10.057,0,0,1,8.4-4.581V-.657H7.187V-7.2H8.6l2.791,4.315q.213.329.311.507h.018a6.6,6.6,0,0,1-.036-.915V-7.2h1.2Zm7.261,0H18.825l-2.893-4.43a4.746,4.746,0,0,1-.293-.507h-.018a10.058,10.058,0,0,1,.036,1.013V-.657H14.448V-7.2h1.413l2.791,4.315q.213.329.311.507h.018a6.6,6.6,0,0,1-.036-.915V-7.2h1.2ZM22.971-7.2V-.657H21.7V-7.2Zm6.83,0L27.5-.657H26.077L23.806-7.2H25.18l1.493,4.737a3.5,3.5,0,0,1,.133.635h.027a3.029,3.029,0,0,1,.142-.649l1.5-4.724ZM34.423-.657H30.636V-7.2h3.639v1.053H31.9v1.666h2.2V-3.43H31.9v1.724h2.52Zm6.368,0H39.324l-1.04-1.729a2.5,2.5,0,0,0-.538-.689.791.791,0,0,0-.48-.164H36.8V-.657H35.538V-7.2H37.76q2.266,0,2.266,1.769a1.755,1.755,0,0,1-.38,1.126,2.052,2.052,0,0,1-1.082.678v.018A2.3,2.3,0,0,1,39.555-2.6ZM36.8-6.212V-4.23h.755a1.133,1.133,0,0,0,.824-.3,1,1,0,0,0,.309-.749q0-.933-1.111-.933Zm4.382,4a2.714,2.714,0,0,0,1.782.644,1.566,1.566,0,0,0,.9-.211.649.649,0,0,0,.3-.553.76.76,0,0,0-.249-.547,4.471,4.471,0,0,0-1.2-.658,3.135,3.135,0,0,1-1.18-.82,1.653,1.653,0,0,1-.367-1.069A1.619,1.619,0,0,1,41.852-6.8a2.973,2.973,0,0,1,1.8-.5,4.026,4.026,0,0,1,1.569.249v1.213a2.646,2.646,0,0,0-1.533-.435,1.621,1.621,0,0,0-.855.2.617.617,0,0,0-.327.551.716.716,0,0,0,.227.511,3.921,3.921,0,0,0,1.062.6,3.531,3.531,0,0,1,1.333.878,1.691,1.691,0,0,1,.373,1.1,1.645,1.645,0,0,1-.66,1.411,3.069,3.069,0,0,1-1.851.487,3.824,3.824,0,0,1-1.8-.369Zm11,1.551H50.8l-.529-1.564H47.816L47.3-.657H45.918L48.34-7.2H49.8ZM49.958-3.225l-.8-2.369a3.327,3.327,0,0,1-.1-.542h-.031a2.861,2.861,0,0,1-.111.533l-.8,2.377ZM58.294-.657H56.828l-1.04-1.729a2.5,2.5,0,0,0-.538-.689.791.791,0,0,0-.48-.164h-.462V-.657H53.042V-7.2h2.222q2.266,0,2.266,1.769A1.755,1.755,0,0,1,57.15-4.3a2.052,2.052,0,0,1-1.082.678v.018A2.3,2.3,0,0,1,57.059-2.6ZM54.308-6.212V-4.23h.755a1.133,1.133,0,0,0,.824-.3,1,1,0,0,0,.309-.749q0-.933-1.111-.933ZM63.729-7.2l-2.142,4.19V-.657H60.321V-2.981L58.241-7.2H59.69l1.169,2.6q.027.062.151.493h.018a2.225,2.225,0,0,1,.147-.484l1.209-2.6Z" transform="translate(160.989 38.645)" fill="#fff"/>
    <path id="Path_689" data-name="Path 689" d="M8.339,14.821a.245.245,0,0,0-.2-.167l-2.589-.376L4.4,11.932a.245.245,0,0,0-.439,0L2.8,14.278.21,14.655a.245.245,0,0,0-.136.417L1.947,16.9l-.442,2.578a.245.245,0,0,0,.355.258l2.316-1.217,2.316,1.217a.245.245,0,0,0,.355-.258L6.4,16.9l1.873-1.826A.245.245,0,0,0,8.339,14.821Z" transform="translate(189.969 -5.349)" fill="#fff"/>
    <path id="Path_690" data-name="Path 690" d="M8.339,14.821a.245.245,0,0,0-.2-.167l-2.589-.376L4.4,11.932a.245.245,0,0,0-.439,0L2.8,14.278.21,14.655a.245.245,0,0,0-.136.417L1.947,16.9l-.442,2.578a.245.245,0,0,0,.355.258l2.316-1.217,2.316,1.217a.245.245,0,0,0,.355-.258L6.4,16.9l1.873-1.826A.245.245,0,0,0,8.339,14.821Z" transform="translate(199.944 -5.349)" fill="#fff"/>
    <path id="Path_691" data-name="Path 691" d="M8.339,14.821a.245.245,0,0,0-.2-.167l-2.589-.376L4.4,11.932a.245.245,0,0,0-.439,0L2.8,14.278.21,14.655a.245.245,0,0,0-.136.417L1.947,16.9l-.442,2.578a.245.245,0,0,0,.355.258l2.316-1.217,2.316,1.217a.245.245,0,0,0,.355-.258L6.4,16.9l1.873-1.826A.245.245,0,0,0,8.339,14.821Z" transform="translate(209.919 -5.349)" fill="#fff"/>
  </g>
</svg>
