<svg xmlns="http://www.w3.org/2000/svg" xmlns:xlink="http://www.w3.org/1999/xlink" width="26" height="26" viewBox="0 0 26 26">
  <defs>
    <radialGradient id="radial-gradient" cx="0.5" cy="0.5" r="0.5" gradientUnits="objectBoundingBox">
      <stop offset="0" stop-color="#f4ad57"/>
      <stop offset="0.31" stop-color="#f75831"/>
      <stop offset="0.502" stop-color="#6c41e4"/>
      <stop offset="0.645" stop-color="#5079f1"/>
      <stop offset="0.813" stop-color="#2debd9"/>
      <stop offset="1" stop-color="#f4ad57"/>
    </radialGradient>
    <filter id="Ellipse_66" x="0" y="0" width="26" height="26" filterUnits="userSpaceOnUse">
      <feOffset dy="2" input="SourceAlpha"/>
      <feGaussianBlur stdDeviation="2" result="blur"/>
      <feFlood flood-opacity="0.059"/>
      <feComposite operator="in" in2="blur"/>
      <feComposite in="SourceGraphic"/>
    </filter>
  </defs>
  <g id="Aura" transform="translate(-212 33)">
    <g transform="matrix(1, 0, 0, 1, 212, -33)" filter="url(#Ellipse_66)">
      <circle id="Ellipse_66-2" data-name="Ellipse 66" cx="7" cy="7" r="7" transform="translate(6 4)" fill="url(#radial-gradient)"/>
    </g>
    <path id="Path_263" data-name="Path 263" d="M64.021,5.855A5.894,5.894,0,0,1,65.443,2.6,3.9,3.9,0,0,0,66.5.209a.209.209,0,0,1,.113-.185.206.206,0,0,1,.216.016,5.3,5.3,0,0,1,1.956,2.827A9.226,9.226,0,0,1,69,4.979c.85-.181,1.042-1.452,1.044-1.466a.208.208,0,0,1,.3-.158c.045.022,1.094.555,1.155,2.683,0,.071,0,.142,0,.213A3.754,3.754,0,0,1,67.75,10h-.011A3.754,3.754,0,0,1,64,6.25C64,6.146,64.021,5.855,64.021,5.855ZM67.75,9.583A1.294,1.294,0,0,0,69,8.252c0-.025,0-.05,0-.081a1.689,1.689,0,0,0-.132-.662.761.761,0,0,1-.688.5A.208.208,0,0,1,67.97,7.8a4.168,4.168,0,0,0-.08-.948,2.015,2.015,0,0,0-.422-.8,2.684,2.684,0,0,1-.429.788,2.373,2.373,0,0,0-.534,1.3c0,.036-.005.072-.005.11A1.294,1.294,0,0,0,67.75,9.583Z" transform="translate(157.25 -27)" fill="#fff"/>
  </g>
</svg>
