<svg xmlns="http://www.w3.org/2000/svg" width="19.765" height="24" viewBox="0 0 19.765 24">
  <g id="clipboard" transform="translate(-45)">
    <path id="XMLID_1873_" d="M45,0V24h9.882l.471-13.035-.471-6.729L51.353,0Z" transform="translate(0)" fill="#c9885b"/>
    <path id="XMLID_1875_" d="M264.882,0h-6.353L255,4.235V24h9.882Z" transform="translate(-200.118)" fill="#b56d3c"/>
    <path id="XMLID_1871_" d="M90,45V64.765h7.765l.471-11.529-.471-6.118L94.235,45Z" transform="translate(-42.882 -42.882)" fill="#fff5f5"/>
    <path id="XMLID_1870_" d="M262.765,45h-4.235L255,47.118V64.765h7.765Z" transform="translate(-200.118 -42.882)" fill="#ece6f2"/>
    <path id="XMLID_1866_" d="M180,0V4.235h3.529l.706-1.412L183.529,0Z" transform="translate(-128.647)" fill="#4d5086"/>
    <path id="XMLID_1864_" d="M255,0h3.529V4.235H255Z" transform="translate(-200.118)" fill="#3d4072"/>
    <path id="XMLID_1863_" d="M285,120h3.529v1.412H285Z" transform="translate(-228.706 -114.353)" fill="#cfcfe6"/>
    <path id="XMLID_1862_" d="M285,180h3.529v1.412H285Z" transform="translate(-228.706 -171.529)" fill="#cfcfe6"/>
    <path id="XMLID_1861_" d="M285,240h3.529v1.412H285Z" transform="translate(-228.706 -228.706)" fill="#cfcfe6"/>
    <path id="XMLID_1860_" d="M285,300h3.529v1.412H285Z" transform="translate(-228.706 -285.882)" fill="#cfcfe6"/>
    <path id="XMLID_1859_" d="M285,360h3.529v1.412H285Z" transform="translate(-228.706 -343.059)" fill="#cfcfe6"/>
    <path id="XMLID_1858_" d="M151.908,124.029,150,122.118l1-1,.913.913L153.94,120l1,1Z" transform="translate(-100.056 -114.353)" fill="#97de3d"/>
    <path id="XMLID_1857_" d="M151.911,308.42,150,306.509l1-1,.913.913,2.032-2.032,1,1Z" transform="translate(-100.059 -290.067)" fill="#97de3d"/>
    <path id="XMLID_1856_" d="M151.911,218.42,150,216.509l1-1,.913.913,2.032-2.032,1,1Z" transform="translate(-100.059 -204.302)" fill="#97de3d"/>
  </g>
</svg>
