<svg xmlns="http://www.w3.org/2000/svg" width="120.392" height="124" viewBox="0 0 120.392 124">
  <g id="Empty-Notification" transform="translate(-134 -72)">
    <g id="mailbox" transform="translate(134 96)">
      <path id="Path_483" data-name="Path 483" d="M163.6,384.431h12.552a2.93,2.93,0,0,0,2.93-2.93V356.4a2.93,2.93,0,0,0-2.93-2.93H163.6a2.93,2.93,0,0,0-2.93,2.93v25.1A2.93,2.93,0,0,0,163.6,384.431Z" transform="translate(-110.458 -284.431)" fill="#f3f9ff"/>
      <path id="Path_484" data-name="Path 484" d="M210.73,353.467h6.276v30.964H210.73a2.93,2.93,0,0,1-2.93-2.93V356.4A2.93,2.93,0,0,1,210.73,353.467Z" transform="translate(-157.592 -284.431)" fill="#e1eeff"/>
      <path id="Path_485" data-name="Path 485" d="M2.929,128.533H46.862a18.641,18.641,0,0,1,18.62,18.62V175.4a2.93,2.93,0,0,1-2.93,2.93h-41a5.859,5.859,0,0,1-5.859-5.859V147.15A12.748,12.748,0,0,0,2.933,134.393h0a2.93,2.93,0,0,1,0-5.86Z" transform="translate(34.518 -103.429)" fill="#c9dffc"/>
      <path id="Path_486" data-name="Path 486" d="M49.792,256v21.966a2.93,2.93,0,0,1-2.93,2.93h-41A5.859,5.859,0,0,1,0,275.037V256Z" transform="translate(50.208 -206)" fill="#76aff9"/>
      <path id="Path_487" data-name="Path 487" d="M99.33,0h12.552a2.93,2.93,0,0,1,2.93,2.93V15.482a2.93,2.93,0,0,1-2.93,2.93h-9.622V43.724a2.93,2.93,0,0,1-5.859,0V2.93A2.93,2.93,0,0,1,99.33,0Z" transform="translate(-33.64)" fill="#257cee"/>
      <path id="Path_488" data-name="Path 488" d="M243.554,128.533a18.641,18.641,0,0,1,18.62,18.62v25.313a2.93,2.93,0,0,1-2.93,2.93h-31.38a2.93,2.93,0,0,1-2.93-2.93V147.153A18.641,18.641,0,0,1,243.554,128.533Z" transform="translate(-206.106 -103.429)" fill="#142d3f"/>
      <path id="Path_489" data-name="Path 489" d="M262.173,256v19.036a2.93,2.93,0,0,1-2.93,2.93h-31.38a2.93,2.93,0,0,1-2.93-2.93V256Z" transform="translate(-206.105 -206)" fill="#070f15"/>
      <path id="Path_490" data-name="Path 490" d="M227.863,359.326H281v-5.859H227.863a2.93,2.93,0,1,0,0,5.859Z" transform="translate(-224.933 -284.431)" fill="#257cee"/>
    </g>
    <g id="fi-rs-notification-o" transform="translate(233.607 86.607) rotate(30)">
      <rect id="Cover" width="24" height="24" fill="none"/>
      <path id="Path_470" data-name="Path 470" d="M125.383,8.564a.765.765,0,0,0-.628-.313H119.5V.688a.7.7,0,0,0-.594-.672.765.765,0,0,0-.841.393l-6,12.375a.637.637,0,0,0,.057.653.769.769,0,0,0,.628.313H118v7.562a.7.7,0,0,0,.594.672.868.868,0,0,0,.156.015.757.757,0,0,0,.686-.408l6-12.375A.637.637,0,0,0,125.383,8.564Z" transform="translate(-106.753 1)" fill="#f60"/>
    </g>
    <g id="fi-rs-notification-o-2" data-name="fi-rs-notification-o" transform="translate(210 72)">
      <rect id="Cover-2" data-name="Cover" width="20" height="20" fill="none"/>
      <path id="Path_470-2" data-name="Path 470" d="M121.419,6.026a.538.538,0,0,0-.442-.221h-3.694V.484a.5.5,0,0,0-.418-.473.539.539,0,0,0-.592.277L112.05,9a.448.448,0,0,0,.04.46.541.541,0,0,0,.442.221h3.694V15a.5.5,0,0,0,.418.473.611.611,0,0,0,.11.011.532.532,0,0,0,.482-.287l4.222-8.708A.448.448,0,0,0,121.419,6.026Z" transform="translate(-106.753 1)" fill="#f60"/>
    </g>
  </g>
</svg>
