<svg id="Facebook-Color" xmlns="http://www.w3.org/2000/svg" width="24" height="24" viewBox="0 0 24 24">
  <rect id="Cover" width="24" height="24" fill="none"/>
  <path id="Path_180" data-name="Path 180" d="M22,11A11,11,0,1,0,9.281,21.866V14.18H6.488V11H9.281V8.577c0-2.757,1.642-4.28,4.155-4.28a16.915,16.915,0,0,1,2.462.215V7.219H14.511a1.59,1.59,0,0,0-1.793,1.718V11H15.77l-.488,3.18H12.719v7.687A11,11,0,0,0,22,11Z" transform="translate(1 1)" fill="#1877f2"/>
  <path id="Path_181" data-name="Path 181" d="M310.794,209.883l.488-3.18H308.23V204.64a1.59,1.59,0,0,1,1.793-1.718h1.387v-2.707a16.915,16.915,0,0,0-2.462-.215c-2.513,0-4.155,1.523-4.155,4.28V206.7H302v3.18h2.793v7.687a11.117,11.117,0,0,0,3.437,0v-7.687Z" transform="translate(-294.512 -194.703)" fill="#fff"/>
</svg>
