<svg id="Female-Avatar" xmlns="http://www.w3.org/2000/svg" xmlns:xlink="http://www.w3.org/1999/xlink" width="60" height="60" viewBox="0 0 60 60">
  <defs>
    <clipPath id="clip-path">
      <rect id="Rectangle_124" data-name="Rectangle 124" width="60" height="60" fill="none"/>
    </clipPath>
  </defs>
  <g id="Group_50" data-name="Group 50" clip-path="url(#clip-path)">
    <g id="Group_49" data-name="Group 49" transform="translate(1.289 0)">
      <path id="Path_207" data-name="Path 207" d="M64.237,65.638a28.711,28.711,0,1,0-49.056,0Z" transform="translate(-10.998 -19.418)" fill="#fc90ce"/>
      <path id="Path_208" data-name="Path 208" d="M196.677,252.465s4.057-2.121,6.873-2.121,7.031,2.121,7.031,2.121v3.787h-13.9Z" transform="translate(-174.918 -221.007)" fill="#ffb332"/>
      <path id="Path_209" data-name="Path 209" d="M220.8,269.58a3.454,3.454,0,0,1-1.586-2.592v-.936c-1.211,1.083-3.289,2.463-5,2.5-.058,0-.117,0-.176-.009-.006.081-.31,4.066-2.719,6.518a5.7,5.7,0,0,0-2.562,1.077q1.046.546,2.158,1.006a9.229,9.229,0,0,0,6.975,0,26.2,26.2,0,0,0,3.748-1.905A32.762,32.762,0,0,0,220.8,269.58Z" transform="translate(-185.581 -234.874)" fill="#ffaa7b"/>
      <path id="Path_210" data-name="Path 210" d="M195.668,266.988a3.3,3.3,0,0,1-1.4,2.44.7.7,0,0,1-.018.11,32.458,32.458,0,0,0-.839,5.572q.95.6,1.965,1.119a5.409,5.409,0,0,1,2.477-1c2.538-2.538,2.813-6.676,2.813-6.676-1.711-.041-3.788-1.421-5-2.5,0,.474,0,.191,0,.936Z" transform="translate(-172.035 -234.874)" fill="#fc9460"/>
      <path id="Path_211" data-name="Path 211" d="M203.3,342.008a8.875,8.875,0,0,1-6.707,0,25.012,25.012,0,0,1-4.055-2.117,65.273,65.273,0,0,0,1.779,19.636,28.856,28.856,0,0,0,5.524.533h0a28.846,28.846,0,0,0,5.524-.533,65.494,65.494,0,0,0,1.789-19.506,25.172,25.172,0,0,1-3.856,1.987Z" transform="translate(-171.127 -300.06)" fill="#d3dcfb"/>
      <path id="Path_212" data-name="Path 212" d="M198.265,343.956a12.009,12.009,0,0,1-1.564-.768,4.989,4.989,0,0,0-3.945,3.268c-.092-.021-.218-.046-.371-.069,0,.772.008,1.588.041,2.45a3.2,3.2,0,0,0,4.662-.694l1.685-2.5a1.137,1.137,0,0,0-.508-1.689Z" transform="translate(-171.128 -302.971)" fill="#deeeff"/>
      <path id="Path_213" data-name="Path 213" d="M196.948,312.752a8.628,8.628,0,0,1-3.93-4.2,40.911,40.911,0,0,0-.633,7.432,4.267,4.267,0,0,1,.491.106,4.841,4.841,0,0,1,4.071-3.339Z" transform="translate(-171.129 -272.394)" fill="#d3dcfb"/>
      <path id="Path_214" data-name="Path 214" d="M269.378,308.553a9.058,9.058,0,0,1-5.248,4.827,1.137,1.137,0,0,0-.508,1.689l1.685,2.5a3.2,3.2,0,0,0,4.662.694,43.737,43.737,0,0,0-.591-9.707Z" transform="translate(-233.845 -272.394)" fill="#deeeff"/>
      <path id="Path_215" data-name="Path 215" d="M340.954,323.741a28.805,28.805,0,0,0,14.572-12.007,13.315,13.315,0,0,0-.94-2.646,11.368,11.368,0,0,0-5.6-5.416,24.879,24.879,0,0,1-2.272-1.041,32.021,32.021,0,0,0-4.24-1.871c.766,1.165.8,3.716.721,5.164a120.145,120.145,0,0,1-2.243,17.816Z" transform="translate(-302.287 -265.515)" fill="#ffc839"/>
      <path id="Path_216" data-name="Path 216" d="M103.436,386.857a10.142,10.142,0,0,0-1.786.085,6.3,6.3,0,0,0-3.373,1.4A4.089,4.089,0,0,0,97,391.491v2.461a28.69,28.69,0,0,0,8.677,5.1,111.18,111.18,0,0,1-1.888-12.984,4.743,4.743,0,0,0-.353.794Z" transform="translate(-86.922 -340.821)" fill="#ffc839"/>
      <path id="Path_217" data-name="Path 217" d="M59.026,305.924c-.081-1.449-.045-4,.722-5.164a32,32,0,0,0-4.24,1.871,24.9,24.9,0,0,1-2.272,1.041,11.368,11.368,0,0,0-5.6,5.416,13.316,13.316,0,0,0-.94,2.646,28.849,28.849,0,0,0,6.071,7.06v-2.61c0-4.98,6.385-4.45,6.385-4.45a4.894,4.894,0,0,1,.258-.656c-.154-1.646-.285-3.37-.385-5.154Z" transform="translate(-42.513 -265.515)" fill="#ffb332"/>
      <path id="Path_218" data-name="Path 218" d="M302.991,263.346c-.134-.071-3.948-1.679-3.96-1.684a8.693,8.693,0,0,1,1.012,2.534c.76,3.936,1.64,13.874-1.2,26.364a28.5,28.5,0,0,0,5.174-1.427,144.272,144.272,0,0,0,2.536-19.421,6.772,6.772,0,0,0-3.563-6.366Z" transform="translate(-265.112 -230.998)" fill="#ffdd40"/>
      <path id="Path_219" data-name="Path 219" d="M157.634,368.711c-.762-.172-3.858-.66-5.034,2.34.579,5.1,1.37,9.67,1.922,12.31a28.492,28.492,0,0,0,5.174,1.427,77.4,77.4,0,0,1-1.949-16.39C157.707,368.5,157.668,368.6,157.634,368.711Z" transform="translate(-136.006 -325.225)" fill="#ffdd40"/>
      <path id="Path_220" data-name="Path 220" d="M147.282,269.712c.141,2.531.378,5.083.659,7.505,1.171-3.708,5.108-2.522,5.108-2.522h0a53.55,53.55,0,0,1,.743-10.5,8.694,8.694,0,0,1,1.012-2.534c-.012.005-3.826,1.612-3.96,1.684a6.772,6.772,0,0,0-3.563,6.366Z" transform="translate(-131.302 -230.998)" fill="#ffc839"/>
      <path id="Path_221" data-name="Path 221" d="M409.346,89.272a7.083,7.083,0,0,0-1.558,6.695c2.539,9.609-3.247,14.022,1.406,17.43,2.961,2.169,5.758,3.6,7.532,6.085a28.744,28.744,0,0,0-7.38-30.21Z" transform="translate(-360.873 -78.81)" fill="#ffbbe5"/>
      <path id="Path_222" data-name="Path 222" d="M19.948,89.272a7.083,7.083,0,0,1,1.558,6.695c-2.539,9.609,3.247,14.022-1.406,17.43-2.961,2.169-5.758,3.6-7.532,6.085a28.745,28.745,0,0,1,7.38-30.21Z" transform="translate(-10.999 -78.81)" fill="#ffbbe5"/>
      <path id="Path_223" data-name="Path 223" d="M405.175,394.737a7.142,7.142,0,0,0-3.107-4.147,1.1,1.1,0,0,0-1.688.925v7.636A28.872,28.872,0,0,0,405.175,394.737Z" transform="translate(-354.749 -344.665)" fill="#ffb332"/>
      <path id="Path_224" data-name="Path 224" d="M129.155,26.787a2.05,2.05,0,0,0,1.129,1.355l.062.028a24.247,24.247,0,0,0,9.853,2.06h6.26a24.248,24.248,0,0,0,9.853-2.059l.062-.028a2.05,2.05,0,0,0,1.129-1.356,23.716,23.716,0,0,0,.734-4.829c.5-9.139-2.938-15.042-6.452-18.767C149.611.885,146.9-.756,144.182.356a2.252,2.252,0,0,1-1.7,0c-2.717-1.111-5.429.529-7.6,2.835-3.514,3.726-6.947,9.628-6.452,18.767a23.712,23.712,0,0,0,.734,4.829Z" transform="translate(-114.618 0.001)" fill="#945230"/>
      <path id="Path_225" data-name="Path 225" d="M134.873,3.191c-3.514,3.726-6.947,9.628-6.452,18.767a23.721,23.721,0,0,0,.734,4.829,2.051,2.051,0,0,0,1.129,1.356l.062.028a24.247,24.247,0,0,0,9.853,2.06h6.26a24.248,24.248,0,0,0,9.853-2.059l.062-.028a2.05,2.05,0,0,0,1.129-1.356,22.145,22.145,0,0,0,.517-2.58c-3.11.731-3.692-2.69-3.692-2.69l-15.1-8.25C136.549,7.046,142.477.356,142.477.356c-2.717-1.111-5.429.529-7.6,2.835Z" transform="translate(-114.618 0)" fill="#753616"/>
      <path id="Path_226" data-name="Path 226" d="M155.3,133.152l-.239.039a2.636,2.636,0,0,0-2.044,3.549l.011.028a3.963,3.963,0,0,1,.233.968,1.8,1.8,0,0,0,2.043,1.712c-.024-.1-.049-.2-.072-.3a17.612,17.612,0,0,1,.068-5.991Z" transform="translate(-136.217 -117.548)" fill="#fc9460"/>
      <path id="Path_227" data-name="Path 227" d="M338.167,133.152a17.61,17.61,0,0,1,.068,5.991c-.023.1-.048.2-.072.3a1.8,1.8,0,0,0,2.043-1.712,3.952,3.952,0,0,1,.233-.968l.011-.028a2.636,2.636,0,0,0-2.044-3.549l-.239-.039Z" transform="translate(-299.823 -117.548)" fill="#ffaa7b"/>
      <path id="Path_228" data-name="Path 228" d="M219.078,96.895c.341,2.995,1.283,7.187,3.83,10.152a10.384,10.384,0,0,0,4.391,3.048,11.268,11.268,0,0,0,2.876-3.239A26.129,26.129,0,0,0,233,99.417a16.2,16.2,0,0,0-.067-5.995,12.682,12.682,0,0,1-7.769-4.387,2.534,2.534,0,0,0-3.876,0,12.938,12.938,0,0,1-2.351,2.176,32.478,32.478,0,0,0,.146,5.685Z" transform="translate(-194.51 -77.805)" fill="#ffc7ab"/>
      <path id="Path_229" data-name="Path 229" d="M182.028,133.723a11.859,11.859,0,0,0,2.7-1.6c-9.787-3.435-8.341-18.9-8.341-18.9h0a12.756,12.756,0,0,1-5.606,2.349,16.2,16.2,0,0,0-.067,5.995,26.136,26.136,0,0,0,2.822,7.439,11.455,11.455,0,0,0,5.409,4.717,3.773,3.773,0,0,0,3.087,0Z" transform="translate(-151.773 -99.955)" fill="#ffaa7b"/>
    </g>
  </g>
</svg>
