<svg id="Google-Color" xmlns="http://www.w3.org/2000/svg" width="24" height="24" viewBox="0 0 24 24">
  <rect id="Cover" width="24" height="24" fill="none"/>
  <path id="Path_182" data-name="Path 182" d="M-4.221,51.32A12.745,12.745,0,0,0-4.4,49.239H-14.754v4.134h5.931a5.107,5.107,0,0,1-2.2,3.282V59.4h3.538A10.755,10.755,0,0,0-4.221,51.32Z" transform="translate(26.754 -39.072)" fill="#4285f4"/>
  <path id="Path_183" data-name="Path 183" d="M-15.646,62.43a10.478,10.478,0,0,0,7.269-2.668l-3.538-2.75a6.636,6.636,0,0,1-3.731,1.063,6.569,6.569,0,0,1-6.169-4.547h-3.648v2.833A10.984,10.984,0,0,0-15.646,62.43Z" transform="translate(27.646 -39.43)" fill="#34a853"/>
  <path id="Path_184" data-name="Path 184" d="M-21.923,52.89a6.383,6.383,0,0,1-.348-2.1,6.632,6.632,0,0,1,.348-2.1V45.859h-3.648a10.873,10.873,0,0,0-1.183,4.932,10.873,10.873,0,0,0,1.183,4.932Z" transform="translate(27.754 -38.791)" fill="#fbbc05"/>
  <path id="Path_185" data-name="Path 185" d="M-15.646,43.593a5.968,5.968,0,0,1,4.217,1.65l3.135-3.135a10.517,10.517,0,0,0-7.352-2.869,10.984,10.984,0,0,0-9.818,6.068l3.648,2.833A6.569,6.569,0,0,1-15.646,43.593Z" transform="translate(27.646 -38.239)" fill="#ea4335"/>
</svg>
