<svg xmlns="http://www.w3.org/2000/svg" xmlns:xlink="http://www.w3.org/1999/xlink" width="276" height="190.556" viewBox="0 0 276 190.556">
  <defs>
    <filter id="Ellipse_66" x="91.111" y="53.667" width="88.667" height="88.667" filterUnits="userSpaceOnUse">
      <feOffset dy="2" input="SourceAlpha"/>
      <feGaussianBlur stdDeviation="2" result="blur"/>
      <feFlood flood-opacity="0.059"/>
      <feComposite operator="in" in2="blur"/>
      <feComposite in="SourceGraphic"/>
    </filter>
    <radialGradient id="radial-gradient" cx="0.465" cy="0.678" r="0.5" gradientUnits="objectBoundingBox">
      <stop offset="0" stop-color="#f4ad57"/>
      <stop offset="0.31" stop-color="#f75831"/>
      <stop offset="0.543" stop-color="#6c41e4"/>
      <stop offset="0.645" stop-color="#5079f1"/>
      <stop offset="0.813" stop-color="#2debd9"/>
      <stop offset="1" stop-color="#f4ad57"/>
    </radialGradient>
    <filter id="Ellipse_63" x="165.444" y="13" width="44.778" height="44.778" filterUnits="userSpaceOnUse">
      <feOffset dy="2" input="SourceAlpha"/>
      <feGaussianBlur stdDeviation="1.5" result="blur-2"/>
      <feFlood flood-opacity="0.039"/>
      <feComposite operator="in" in2="blur-2"/>
      <feComposite in="SourceGraphic"/>
    </filter>
    <linearGradient id="linear-gradient" x1="0.5" y1="0.329" x2="0.5" y2="0.941" gradientUnits="objectBoundingBox">
      <stop offset="0" stop-color="#fffcf8"/>
      <stop offset="0.188" stop-color="#faf8f6"/>
      <stop offset="0.404" stop-color="#eceef2"/>
      <stop offset="0.635" stop-color="#d5dcea"/>
      <stop offset="0.875" stop-color="#b5c4df"/>
      <stop offset="1" stop-color="#a1b5d8"/>
    </linearGradient>
    <linearGradient id="linear-gradient-2" x1="0.257" y1="0.42" x2="1.178" y2="0.603" gradientUnits="objectBoundingBox">
      <stop offset="0" stop-color="#ff4974"/>
      <stop offset="0.228" stop-color="#fd4571"/>
      <stop offset="0.466" stop-color="#f93867"/>
      <stop offset="0.71" stop-color="#f12358"/>
      <stop offset="0.955" stop-color="#e60642"/>
      <stop offset="1" stop-color="#e4003d"/>
    </linearGradient>
    <linearGradient id="linear-gradient-3" x1="0.714" y1="0.557" x2="0.209" y2="-0.165" gradientUnits="objectBoundingBox">
      <stop offset="0" stop-color="#e4003d" stop-opacity="0"/>
      <stop offset="0.223" stop-color="#cd1845" stop-opacity="0.224"/>
      <stop offset="0.503" stop-color="#b82e4d" stop-opacity="0.502"/>
      <stop offset="0.768" stop-color="#ab3c51" stop-opacity="0.769"/>
      <stop offset="1" stop-color="#a64153"/>
    </linearGradient>
    <linearGradient id="linear-gradient-4" x1="0.341" y1="0.41" x2="1.034" y2="0.802" gradientUnits="objectBoundingBox">
      <stop offset="0" stop-color="#ffd00d"/>
      <stop offset="0.238" stop-color="#ffcb0e"/>
      <stop offset="0.535" stop-color="#fb1"/>
      <stop offset="0.863" stop-color="#ffa215"/>
      <stop offset="1" stop-color="#ff9517"/>
    </linearGradient>
    <linearGradient id="linear-gradient-5" x1="0.632" y1="0.701" x2="0.271" y2="-0.257" xlink:href="#linear-gradient-3"/>
    <linearGradient id="linear-gradient-6" x1="0.341" y1="0.41" x2="1.034" y2="0.802" xlink:href="#linear-gradient-4"/>
    <linearGradient id="linear-gradient-7" x1="0.562" y1="0.679" x2="0.33" y2="-0.525" xlink:href="#linear-gradient-3"/>
    <linearGradient id="linear-gradient-8" x1="0.405" y1="0.245" x2="0.704" y2="1.052" xlink:href="#linear-gradient-4"/>
    <linearGradient id="linear-gradient-9" x1="0.5" y1="0.329" x2="0.5" y2="0.941" xlink:href="#linear-gradient-2"/>
    <linearGradient id="linear-gradient-10" x1="0.144" y1="0.354" x2="1.794" y2="1.031" xlink:href="#linear-gradient-4"/>
    <linearGradient id="linear-gradient-11" x1="0.724" y1="0.5" x2="-0.673" y2="0.5" xlink:href="#linear-gradient"/>
    <linearGradient id="linear-gradient-12" x1="0.521" y1="0.596" x2="-1.392" y2="-0.238" gradientUnits="objectBoundingBox">
      <stop offset="0" stop-color="#a1b5d8" stop-opacity="0"/>
      <stop offset="0.67" stop-color="#8190a4" stop-opacity="0.671"/>
      <stop offset="1" stop-color="#748290"/>
    </linearGradient>
    <linearGradient id="linear-gradient-14" x1="0.724" y1="0.5" x2="-0.673" y2="0.5" xlink:href="#linear-gradient"/>
    <linearGradient id="linear-gradient-15" x1="1.166" y1="0.748" x2="0.385" y2="0.088" xlink:href="#linear-gradient-3"/>
    <linearGradient id="linear-gradient-16" x1="0.5" y1="0.301" x2="0.5" y2="1.601" xlink:href="#linear-gradient-4"/>
    <linearGradient id="linear-gradient-17" x1="0.206" y1="0.208" x2="0.709" y2="1.004" xlink:href="#linear-gradient-2"/>
    <filter id="Ellipse_62" x="199.722" y="83.056" width="47.778" height="47.778" filterUnits="userSpaceOnUse">
      <feOffset dy="2" input="SourceAlpha"/>
      <feGaussianBlur stdDeviation="2" result="blur-3"/>
      <feFlood flood-opacity="0.059"/>
      <feComposite operator="in" in2="blur-3"/>
      <feComposite in="SourceGraphic"/>
    </filter>
    <linearGradient id="linear-gradient-18" x1="-0.183" y1="0.169" x2="1.055" y2="0.739" gradientUnits="objectBoundingBox">
      <stop offset="0" stop-color="#ff4974"/>
      <stop offset="0.223" stop-color="#fb3f6c"/>
      <stop offset="0.608" stop-color="#f12357"/>
      <stop offset="1" stop-color="#e4003d"/>
    </linearGradient>
    <linearGradient id="linear-gradient-19" x1="-4.864" y1="0.169" x2="-3.626" y2="0.739" xlink:href="#linear-gradient-18"/>
    <linearGradient id="linear-gradient-20" x1="0.864" y1="0.576" x2="-0.523" y2="0.335" gradientUnits="objectBoundingBox">
      <stop offset="0" stop-color="#a34a9e" stop-opacity="0"/>
      <stop offset="1" stop-color="#343168"/>
    </linearGradient>
    <linearGradient id="linear-gradient-21" x1="0.396" y1="0.5" x2="1.042" y2="0.5" gradientUnits="objectBoundingBox">
      <stop offset="0" stop-color="#d4f7ff"/>
      <stop offset="1" stop-color="#a2e3e9"/>
    </linearGradient>
    <linearGradient id="linear-gradient-22" x1="0.65" y1="0.559" x2="-1.773" y2="0.328" gradientUnits="objectBoundingBox">
      <stop offset="0" stop-color="#a2e3e9" stop-opacity="0"/>
      <stop offset="1" stop-color="#518cd2"/>
    </linearGradient>
    <linearGradient id="linear-gradient-23" x1="0.943" y1="0.943" x2="0.018" y2="0.018" xlink:href="#linear-gradient-21"/>
    <linearGradient id="linear-gradient-24" x1="-0.072" y1="-0.072" x2="0.988" y2="0.988" xlink:href="#linear-gradient-21"/>
    <linearGradient id="linear-gradient-25" x1="-0.072" y1="-0.072" x2="0.988" y2="0.988" gradientUnits="objectBoundingBox">
      <stop offset="0" stop-color="#4f4a72"/>
      <stop offset="1" stop-color="#3b395f"/>
    </linearGradient>
    <linearGradient id="linear-gradient-26" x1="0.396" y1="0.5" x2="1.042" y2="0.5" xlink:href="#linear-gradient-18"/>
    <linearGradient id="linear-gradient-27" x1="-0.31" y1="0.5" x2="1.19" y2="0.5" gradientUnits="objectBoundingBox">
      <stop offset="0" stop-color="#ffe548"/>
      <stop offset="0.176" stop-color="#ffde50"/>
      <stop offset="0.445" stop-color="#ffca65"/>
      <stop offset="0.771" stop-color="#ffaa87"/>
      <stop offset="1" stop-color="#ff90a4"/>
    </linearGradient>
    <linearGradient id="linear-gradient-28" x1="0.493" y1="0.453" x2="1.381" y2="0.016" xlink:href="#linear-gradient-22"/>
    <linearGradient id="linear-gradient-29" x1="0.133" y1="0.251" x2="0.963" y2="0.814" gradientUnits="objectBoundingBox">
      <stop offset="0" stop-color="#a34a9e"/>
      <stop offset="0.155" stop-color="#9b489a"/>
      <stop offset="0.402" stop-color="#84438f"/>
      <stop offset="0.707" stop-color="#5e3b7d"/>
      <stop offset="1" stop-color="#343168"/>
    </linearGradient>
    <linearGradient id="linear-gradient-30" x1="0.133" y1="0.251" x2="0.963" y2="0.814" xlink:href="#linear-gradient-29"/>
    <linearGradient id="linear-gradient-33" x1="0.133" y1="0.251" x2="0.963" y2="0.814" xlink:href="#linear-gradient-29"/>
    <linearGradient id="linear-gradient-34" x1="0.133" y1="0.251" x2="0.963" y2="0.814" xlink:href="#linear-gradient-29"/>
    <filter id="Ellipse_64" x="71.944" y="0" width="52.889" height="52.889" filterUnits="userSpaceOnUse">
      <feOffset dy="2" input="SourceAlpha"/>
      <feGaussianBlur stdDeviation="2" result="blur-4"/>
      <feFlood flood-opacity="0.039"/>
      <feComposite operator="in" in2="blur-4"/>
      <feComposite in="SourceGraphic"/>
    </filter>
    <linearGradient id="linear-gradient-35" x1="0.5" y1="0.38" x2="0.5" y2="0.775" gradientUnits="objectBoundingBox">
      <stop offset="0" stop-color="#ff4974"/>
      <stop offset="0.326" stop-color="#fe4672"/>
      <stop offset="0.532" stop-color="#fb3e6c"/>
      <stop offset="0.705" stop-color="#f52f60"/>
      <stop offset="0.859" stop-color="#ee1a51"/>
      <stop offset="1" stop-color="#e4003d"/>
    </linearGradient>
    <linearGradient id="linear-gradient-36" x1="0.219" y1="0.229" x2="1.298" y2="1.213" gradientUnits="objectBoundingBox">
      <stop offset="0" stop-color="#ffc738"/>
      <stop offset="0.429" stop-color="#ffbb23"/>
      <stop offset="1" stop-color="#ffa700"/>
    </linearGradient>
    <linearGradient id="linear-gradient-37" x1="2.08" y1="0.2" x2="-1.938" y2="0.957" gradientUnits="objectBoundingBox">
      <stop offset="0" stop-color="#e58200" stop-opacity="0"/>
      <stop offset="0.188" stop-color="#e07d07" stop-opacity="0.188"/>
      <stop offset="0.461" stop-color="#d16d1a" stop-opacity="0.463"/>
      <stop offset="0.785" stop-color="#b9553a" stop-opacity="0.784"/>
      <stop offset="1" stop-color="#a64153"/>
    </linearGradient>
    <linearGradient id="linear-gradient-38" x1="0.5" y1="0.628" x2="0.5" y2="1.306" gradientUnits="objectBoundingBox">
      <stop offset="0" stop-color="#e58200" stop-opacity="0"/>
      <stop offset="0.04" stop-color="#e27f04" stop-opacity="0.039"/>
      <stop offset="0.467" stop-color="#c15d2f" stop-opacity="0.467"/>
      <stop offset="0.802" stop-color="#ad4949" stop-opacity="0.8"/>
      <stop offset="1" stop-color="#a64153"/>
    </linearGradient>
    <linearGradient id="linear-gradient-39" x1="2.175" y1="0.546" x2="-3.227" y2="0.408" xlink:href="#linear-gradient-37"/>
    <linearGradient id="linear-gradient-40" x1="0.5" y1="0.788" x2="0.5" y2="-0.918" xlink:href="#linear-gradient-38"/>
    <linearGradient id="linear-gradient-41" x1="0.712" y1="0.548" x2="-0.043" y2="-0.481" xlink:href="#linear-gradient-37"/>
    <linearGradient id="linear-gradient-42" x1="0.486" y1="0.486" x2="0.993" y2="0.993" gradientUnits="objectBoundingBox">
      <stop offset="0" stop-color="#3b395f"/>
      <stop offset="0.063" stop-color="#37355a"/>
      <stop offset="0.403" stop-color="#232543"/>
      <stop offset="0.723" stop-color="#171b35"/>
      <stop offset="1" stop-color="#131830"/>
    </linearGradient>
    <linearGradient id="linear-gradient-43" x1="0.486" y1="0.486" x2="0.993" y2="0.993" xlink:href="#linear-gradient-42"/>
    <linearGradient id="linear-gradient-44" x1="0.615" y1="0.734" x2="-0.181" y2="-0.216" xlink:href="#linear-gradient-37"/>
    <linearGradient id="linear-gradient-45" y1="0.136" y2="1.36" xlink:href="#linear-gradient"/>
    <radialGradient id="radial-gradient-2" cx="0.399" cy="0.105" r="0.961" gradientUnits="objectBoundingBox">
      <stop offset="0" stop-color="#ff4974"/>
      <stop offset="0.332" stop-color="#fe4672"/>
      <stop offset="0.537" stop-color="#fb3e6c"/>
      <stop offset="0.707" stop-color="#f62f61"/>
      <stop offset="0.858" stop-color="#ee1b51"/>
      <stop offset="0.997" stop-color="#e4013e"/>
      <stop offset="1" stop-color="#e4003d"/>
    </radialGradient>
    <filter id="Ellipse_65" x="28.5" y="76.667" width="47.778" height="47.778" filterUnits="userSpaceOnUse">
      <feOffset dy="2" input="SourceAlpha"/>
      <feGaussianBlur stdDeviation="2" result="blur-5"/>
      <feFlood flood-opacity="0.059"/>
      <feComposite operator="in" in2="blur-5"/>
      <feComposite in="SourceGraphic"/>
    </filter>
  </defs>
  <g id="Hello" transform="translate(-55 -57)">
    <circle id="Ellipse_75" data-name="Ellipse 75" cx="92.639" cy="92.639" r="92.639" transform="translate(97.167 62.278)" fill="#fff" opacity="0.3"/>
    <circle id="Ellipse_61" data-name="Ellipse 61" cx="56.861" cy="56.861" r="56.861" transform="translate(132.944 98.056)" fill="#fff" opacity="0.3"/>
    <g transform="matrix(1, 0, 0, 1, 55, 57)" filter="url(#Ellipse_66)">
      <circle id="Ellipse_66-2" data-name="Ellipse 66" cx="38.333" cy="38.333" r="38.333" transform="translate(97.11 57.67)" fill="#fff"/>
    </g>
    <path id="Path_263" data-name="Path 263" d="M64.1,26.933c.527-6.861,3.721-11.16,6.539-14.954C73.246,8.467,75.5,5.434,75.5.96a.96.96,0,0,1,.52-.853.949.949,0,0,1,1,.073,24.374,24.374,0,0,1,9,13A42.441,42.441,0,0,1,87,22.9c3.908-.835,4.794-6.681,4.8-6.745a.958.958,0,0,1,1.367-.727c.2.1,5.03,2.551,5.311,12.341.02.326.021.652.021.979A17.27,17.27,0,0,1,81.25,46a.134.134,0,0,1-.038,0H81.2A17.27,17.27,0,0,1,64,28.751C64,28.272,64.1,26.933,64.1,26.933ZM81.25,44.083A5.953,5.953,0,0,0,87,37.958c0-.115,0-.231-.007-.373a7.768,7.768,0,0,0-.606-3.043,3.5,3.5,0,0,1-3.164,2.292.958.958,0,0,1-.958-.958,19.172,19.172,0,0,0-.368-4.359,9.268,9.268,0,0,0-1.94-3.674,12.349,12.349,0,0,1-1.976,3.624,10.919,10.919,0,0,0-2.457,5.984c-.012.165-.024.33-.024.508A5.953,5.953,0,0,0,81.25,44.083Z" transform="translate(109.194 129.573)" fill="url(#radial-gradient)"/>
    <g id="Hand" transform="translate(150.833 177.278)">
      <path id="Path_257" data-name="Path 257" d="M165.828,230.551a4.424,4.424,0,0,0-6.407,0l-9.758,10.094h-5.01v0s-25.563,3.751-25.563,3.751l-7.959,9.63,1.767,4.183,3.632,1.4,4.736-4.9h27.623l16.94-17.53A4.8,4.8,0,0,0,165.828,230.551Z" transform="translate(-95.6 -229.178)" fill="#ffcdbd"/>
      <path id="Path_258" data-name="Path 258" d="M65.441,275.065l8.4-8.692H94.43a4.692,4.692,0,0,0,0-9.379H83.09a10.378,10.378,0,0,0-15.028,0l-10.044,10.39,2.593,5.746Z" transform="translate(-49.91 -250.219)" fill="#ffdece"/>
      <path id="Path_261" data-name="Path 261" d="M22.929,363.251l-8.111,8.391-7.4-7.652L0,356.314l8.109-8.394Z" transform="translate(0 -330.753)" fill="#8066f3"/>
      <path id="Path_262" data-name="Path 262" d="M.18.2,11.849,0l-.18,10.642L0,10.839Z" transform="translate(7.145 33.219) rotate(-45)" fill="#674be7"/>
    </g>
    <path id="Path_266" data-name="Path 266" d="M19.788,202.111l-1.544-.515a10.478,10.478,0,0,1-6.6-6.595l-.515-1.545a.961.961,0,0,0-1.823,0L8.8,195A10.478,10.478,0,0,1,2.2,201.6l-1.545.515a.961.961,0,0,0,0,1.823l1.544.515a10.478,10.478,0,0,1,6.6,6.595l.515,1.545a.961.961,0,0,0,.911.657h0a.961.961,0,0,0,.911-.657l.515-1.544a10.478,10.478,0,0,1,6.595-6.6l1.545-.515a.961.961,0,0,0,0-1.823Z" transform="translate(55 -69.189)" fill="#fff"/>
    <path id="Path_267" data-name="Path 267" d="M19.788,202.111l-1.544-.515a10.478,10.478,0,0,1-6.6-6.595l-.515-1.545a.961.961,0,0,0-1.823,0L8.8,195A10.478,10.478,0,0,1,2.2,201.6l-1.545.515a.961.961,0,0,0,0,1.823l1.544.515a10.478,10.478,0,0,1,6.6,6.595l.515,1.545a.961.961,0,0,0,.911.657h0a.961.961,0,0,0,.911-.657l.515-1.544a10.478,10.478,0,0,1,6.595-6.6l1.545-.515a.961.961,0,0,0,0-1.823Z" transform="translate(287.556 -120.3)" fill="#fff"/>
    <path id="Path_268" data-name="Path 268" d="M16.077,200.365l-1.255-.418a8.513,8.513,0,0,1-5.359-5.358l-.418-1.255a.781.781,0,0,0-1.481,0l-.418,1.255a8.513,8.513,0,0,1-5.358,5.359l-1.255.418a.781.781,0,0,0,0,1.481l1.255.418a8.513,8.513,0,0,1,5.359,5.358l.418,1.255a.781.781,0,0,0,.74.534h0a.781.781,0,0,0,.74-.534l.418-1.255a8.513,8.513,0,0,1,5.358-5.359l1.255-.418a.781.781,0,0,0,0-1.481Z" transform="translate(83.111 -111.355)" fill="#fff"/>
    <path id="Path_358" data-name="Path 358" d="M16.077,200.365l-1.255-.418a8.513,8.513,0,0,1-5.359-5.358l-.418-1.255a.781.781,0,0,0-1.481,0l-.418,1.255a8.513,8.513,0,0,1-5.358,5.359l-1.255.418a.781.781,0,0,0,0,1.481l1.255.418a8.513,8.513,0,0,1,5.359,5.358l.418,1.255a.781.781,0,0,0,.74.534h0a.781.781,0,0,0,.74-.534l.418-1.255a8.513,8.513,0,0,1,5.358-5.359l1.255-.418a.781.781,0,0,0,0-1.481Z" transform="translate(244.111 11.311)" fill="#fff"/>
    <path id="Path_359" data-name="Path 359" d="M16.077,200.365l-1.255-.418a8.513,8.513,0,0,1-5.359-5.358l-.418-1.255a.781.781,0,0,0-1.481,0l-.418,1.255a8.513,8.513,0,0,1-5.358,5.359l-1.255.418a.781.781,0,0,0,0,1.481l1.255.418a8.513,8.513,0,0,1,5.359,5.358l.418,1.255a.781.781,0,0,0,.74.534h0a.781.781,0,0,0,.74-.534l.418-1.255a8.513,8.513,0,0,1,5.358-5.359l1.255-.418a.781.781,0,0,0,0-1.481Z" transform="translate(116.333 1.089)" fill="#fff"/>
    <path id="Path_269" data-name="Path 269" d="M16.077,200.365l-1.255-.418a8.513,8.513,0,0,1-5.359-5.358l-.418-1.255a.781.781,0,0,0-1.481,0l-.418,1.255a8.513,8.513,0,0,1-5.358,5.359l-1.255.418a.781.781,0,0,0,0,1.481l1.255.418a8.513,8.513,0,0,1,5.359,5.358l.418,1.255a.781.781,0,0,0,.74.534h0a.781.781,0,0,0,.74-.534l.418-1.255a8.513,8.513,0,0,1,5.358-5.359l1.255-.418a.781.781,0,0,0,0-1.481Z" transform="translate(314.389 -39.8)" fill="#fff"/>
    <g id="Group_102" data-name="Group 102" transform="translate(224.944 72.5)">
      <g transform="matrix(1, 0, 0, 1, -169.94, -15.5)" filter="url(#Ellipse_63)">
        <circle id="Ellipse_63-2" data-name="Ellipse 63" cx="17.889" cy="17.889" r="17.889" transform="translate(169.94 15.5)" fill="#fff"/>
      </g>
      <g id="advertising" transform="matrix(0.966, -0.259, 0.259, 0.966, 2.618, 10.267)">
        <path id="Path_311" data-name="Path 311" d="M4.363,4.2A4.362,4.362,0,0,0,0,8.561v2.158a4.363,4.363,0,0,0,4.363,4.363,18.666,18.666,0,0,1,10.683,3.359l1.2.84V0l-1.2.84A18.667,18.667,0,0,1,4.363,4.2Zm0,0" transform="translate(1.782 1.207)" fill="url(#linear-gradient)"/>
        <path id="Path_312" data-name="Path 312" d="M3.894,0H0L.612,1.442a7.744,7.744,0,0,1,.615,3.025V5.845a1.947,1.947,0,0,0,3.894,0V4.466a7.744,7.744,0,0,0-.615-3.025Zm0,0" transform="translate(2.975 14.837)" fill="url(#linear-gradient-2)"/>
        <path id="Path_313" data-name="Path 313" d="M1.98,0H.717A.717.717,0,0,0,0,.717V.725a.714.714,0,0,0,.246.54L3.23,4.248a1.937,1.937,0,0,0,.231-.92V1.95a7.735,7.735,0,0,0-.042-.8l-.9-.9A.714.714,0,0,0,1.98,0Zm0,0" transform="translate(4.636 17.354)" fill="url(#linear-gradient-3)"/>
        <path id="Path_314" data-name="Path 314" d="M1.98,1.441H.717A.717.717,0,0,1,0,.725V.717A.717.717,0,0,1,.717,0H1.98A.717.717,0,0,1,2.7.717V.725A.717.717,0,0,1,1.98,1.441Zm0,0" transform="translate(4.636 17.354)" fill="url(#linear-gradient-4)"/>
        <path id="Path_315" data-name="Path 315" d="M2.519.246A.715.715,0,0,0,1.98,0H.717A.717.717,0,0,0,0,.717V.725a.715.715,0,0,0,.246.539L1.914,2.932a1.948,1.948,0,0,0,1.54-1.752Zm0,0" transform="translate(4.636 19.655)" fill="url(#linear-gradient-5)"/>
        <path id="Path_316" data-name="Path 316" d="M1.98,1.441H.717A.716.716,0,0,1,0,.725V.717A.716.716,0,0,1,.717,0H1.98A.717.717,0,0,1,2.7.717V.725A.717.717,0,0,1,1.98,1.441Zm0,0" transform="translate(4.636 19.655)" fill="url(#linear-gradient-6)"/>
        <path id="Path_317" data-name="Path 317" d="M5.121,5.246v-.78a7.743,7.743,0,0,0-.615-3.024L3.894,0H0L.092.217Zm0,0" transform="translate(2.975 14.837)" fill="url(#linear-gradient-7)"/>
        <path id="Path_318" data-name="Path 318" d="M4.079,2.04A2.04,2.04,0,1,1,2.04,0,2.04,2.04,0,0,1,4.079,2.04Zm0,0" transform="translate(0 8.808)" fill="url(#linear-gradient-8)"/>
        <path id="Path_319" data-name="Path 319" d="M5.294,7.055V4.306A5.548,5.548,0,0,1,7.337,0,18.657,18.657,0,0,1,4.363.239,4.363,4.363,0,0,0,0,4.6V6.76a4.363,4.363,0,0,0,4.363,4.363,18.658,18.658,0,0,1,2.975.239A5.548,5.548,0,0,1,5.294,7.055Zm0,0" transform="translate(1.782 5.167)" fill="url(#linear-gradient-9)"/>
        <path id="Path_320" data-name="Path 320" d="M10.43,10.879C10.43,4.871,8.1,0,5.215,0S0,4.871,0,10.879,2.335,21.757,5.215,21.757,10.43,16.887,10.43,10.879Zm0,0" transform="translate(15.125 0)" fill="url(#linear-gradient-10)"/>
        <path id="Path_321" data-name="Path 321" d="M6.789,8.716C6.789,3.9,5.269,0,3.395,0S0,3.9,0,8.716s1.52,8.716,3.395,8.716S6.789,13.53,6.789,8.716Zm0,0" transform="translate(17.304 2.163)" fill="url(#linear-gradient-11)"/>
        <path id="Path_322" data-name="Path 322" d="M6.54,5.347c-.005.039-.012.078-.019.117-.023.14-.047.277-.073.413-.01.055-.02.109-.032.162q-.113.572-.259,1.092c-.014.052-.029.1-.044.155,0,.005,0,.01,0,.015-.015.051-.03.1-.046.151s-.033.109-.051.163-.027.086-.042.128c-.006.019-.012.036-.019.055l-.046.134c-.019.055-.039.11-.059.164s-.035.093-.053.139c-.01.024-.019.049-.029.074l-.029.073c-.019.048-.039.1-.059.142l-.036.083c-.013.03-.026.06-.04.089s-.031.068-.047.1c-.08.169-.163.33-.249.481-.544.953-1.2,1.509-1.91,1.509C1.787,10.787.44,7.916.089,4.062c0-.052-.01-.1-.014-.158q-.013-.144-.023-.29c0-.015,0-.03,0-.045C.044,3.475.038,3.381.033,3.286c0-.061-.006-.122-.009-.184,0-.013,0-.026,0-.039L.013,2.842a.15.15,0,0,0,0-.019c0-.073,0-.146-.006-.219,0-.013,0-.026,0-.038V2.56c0-.052,0-.1,0-.155,0-.036,0-.073,0-.109,0-.075,0-.15,0-.225s0-.15,0-.225c0-.036,0-.071,0-.107l0-.178c0-.012,0-.025,0-.037,0-.042,0-.084,0-.126s0-.106.005-.159,0-.119.007-.179c0-.008,0-.016,0-.024s0-.042,0-.062Q.045.6.076.233C.082.16.089.089.1.017A2.011,2.011,0,0,1,.351,0,2.033,2.033,0,0,1,1.859.666Zm0,0" transform="translate(17.304 8.808)" fill="url(#linear-gradient-12)"/>
        <path id="Path_323" data-name="Path 323" d="M.7,2.754H.617A.617.617,0,0,1,0,2.137V.617A.617.617,0,0,1,.617,0H.7a.617.617,0,0,1,.617.617V2.137A.617.617,0,0,1,.7,2.754Zm0,0" transform="translate(8.078 9.081)" fill="url(#linear-gradient-11)"/>
        <path id="Path_324" data-name="Path 324" d="M.7,2.754H.617A.617.617,0,0,1,0,2.137V.617A.617.617,0,0,1,.617,0H.7a.617.617,0,0,1,.617.617V2.137A.617.617,0,0,1,.7,2.754Zm0,0" transform="translate(9.906 9.081)" fill="url(#linear-gradient-14)"/>
        <path id="Path_325" data-name="Path 325" d="M1.656,2.434V0H.524A.524.524,0,0,0,0,.524V.815A.522.522,0,0,0,.171,1.2L1.662,2.693C1.658,2.607,1.656,2.521,1.656,2.434Zm0,0" transform="translate(5.42 9.788)" fill="url(#linear-gradient-15)"/>
        <path id="Path_326" data-name="Path 326" d="M1.656,0H.524A.524.524,0,0,0,0,.524V.815a.524.524,0,0,0,.524.524H1.656Zm0,0" transform="translate(5.42 9.788)" fill="url(#linear-gradient-16)"/>
        <path id="Path_327" data-name="Path 327" d="M.351,0A2.059,2.059,0,0,0,.1.017C.033.675,0,1.363,0,2.071c0,.685.031,1.351.089,1.991a2.078,2.078,0,0,0,.262.017A2.04,2.04,0,1,0,.351,0Zm0,0" transform="translate(17.304 8.808)" fill="url(#linear-gradient-17)"/>
      </g>
    </g>
    <g id="Group_100" data-name="Group 100" transform="translate(260.722 144.056)">
      <g transform="matrix(1, 0, 0, 1, -205.72, -87.06)" filter="url(#Ellipse_62)">
        <circle id="Ellipse_62-2" data-name="Ellipse 62" cx="17.889" cy="17.889" r="17.889" transform="translate(205.72 87.06)" fill="#fff"/>
      </g>
      <g id="rocket_1_" data-name="rocket (1)" transform="translate(22.03 0.954) rotate(45)">
        <path id="Path_328" data-name="Path 328" d="M4.962,5.913l.211-.1V0L2.794,1.181A5.029,5.029,0,0,0,0,5.686v4.936a.631.631,0,0,0,1.224.216L1.68,9.584A6.626,6.626,0,0,1,4.962,5.913Z" transform="translate(0 14.42)" fill="url(#linear-gradient-18)"/>
        <path id="Path_329" data-name="Path 329" d="M.211,5.913,0,5.808V0L2.379,1.181A5.029,5.029,0,0,1,5.173,5.686v4.936a.631.631,0,0,1-1.224.216L3.493,9.584A6.626,6.626,0,0,0,.211,5.913Z" transform="translate(12.715 14.42)" fill="url(#linear-gradient-19)"/>
        <path id="Path_330" data-name="Path 330" d="M1.415.7.013,0,0,5.808l.211.105A6.627,6.627,0,0,1,3.485,9.592l.453,1.254a.631.631,0,0,0,1.225-.213L5.174,5.7a5.022,5.022,0,0,0-.2-1.427Z" transform="translate(12.715 14.414)" fill="url(#linear-gradient-20)"/>
        <path id="Path_331" data-name="Path 331" d="M6.6.863a1.551,1.551,0,0,0-2.78,0C1.8,4.05.006,7.916,0,12.263a89.556,89.556,0,0,0,.743,11.79,1.86,1.86,0,0,0,1.844,1.621H7.837a1.86,1.86,0,0,0,1.844-1.621,89.543,89.543,0,0,0,.743-11.79A21.69,21.69,0,0,0,6.6.863Z" transform="translate(3.732 0)" fill="url(#linear-gradient-21)"/>
        <path id="Path_332" data-name="Path 332" d="M1.39.862A1.589,1.589,0,0,0,0,0V25.673H2.625a1.86,1.86,0,0,0,1.844-1.621,89.54,89.54,0,0,0,.743-11.79A21.69,21.69,0,0,0,1.39.862Z" transform="translate(8.944 0)" fill="url(#linear-gradient-22)"/>
        <circle id="Ellipse_69" data-name="Ellipse 69" cx="3.064" cy="3.064" r="3.064" transform="translate(5.88 7.807)" fill="url(#linear-gradient-23)"/>
        <circle id="Ellipse_70" data-name="Ellipse 70" cx="1.982" cy="1.982" r="1.982" transform="translate(6.963 8.89)" fill="url(#linear-gradient-24)"/>
        <circle id="Ellipse_71" data-name="Ellipse 71" cx="1.801" cy="1.801" r="1.801" transform="translate(7.144 9.071)" fill="url(#linear-gradient-25)"/>
        <path id="Path_333" data-name="Path 333" d="M3.039,4.13a12.862,12.862,0,0,0,3.038-.353A31.576,31.576,0,0,0,4.429.863a1.551,1.551,0,0,0-2.78,0A31.874,31.874,0,0,0,0,3.777,12.862,12.862,0,0,0,3.039,4.13Z" transform="translate(5.905 0)" fill="url(#linear-gradient-26)"/>
        <path id="Path_334" data-name="Path 334" d="M0,0Q.1.884.211,1.765c.008.062.019.123.033.182H9.115c.014-.06.025-.12.033-.182Q9.263.884,9.359,0Z" transform="translate(4.265 22.287)" fill="url(#linear-gradient-27)"/>
        <path id="Path_335" data-name="Path 335" d="M0,0Q.143,4.288.692,8.522a1.86,1.86,0,0,0,1.844,1.621H7.786A1.86,1.86,0,0,0,9.63,8.522q.55-4.234.692-8.522Z" transform="translate(3.783 15.53)" fill="url(#linear-gradient-28)"/>
        <path id="Path_336" data-name="Path 336" d="M1.037,2.133H.482A.482.482,0,0,1,0,1.651V.482A.482.482,0,0,1,.482,0h.555a.482.482,0,0,1,.482.482V1.651A.482.482,0,0,1,1.037,2.133Z" transform="translate(4.387 23.855)" fill="url(#linear-gradient-29)"/>
        <path id="Path_337" data-name="Path 337" d="M1.037,2.133H.482A.482.482,0,0,1,0,1.651V.482A.482.482,0,0,1,.482,0h.555a.482.482,0,0,1,.482.482V1.651A.482.482,0,0,1,1.037,2.133Z" transform="translate(5.906 23.855)" fill="url(#linear-gradient-30)"/>
        <path id="Path_338" data-name="Path 338" d="M1.037,2.133H.482A.482.482,0,0,1,0,1.651V.482A.482.482,0,0,1,.482,0h.555a.482.482,0,0,1,.482.482V1.651A.482.482,0,0,1,1.037,2.133Z" transform="translate(7.425 23.855)" fill="url(#linear-gradient-30)"/>
        <path id="Path_339" data-name="Path 339" d="M1.037,2.133H.482A.482.482,0,0,1,0,1.651V.482A.482.482,0,0,1,.482,0h.555a.482.482,0,0,1,.482.482V1.651A.482.482,0,0,1,1.037,2.133Z" transform="translate(8.944 23.855)" fill="url(#linear-gradient-30)"/>
        <path id="Path_340" data-name="Path 340" d="M1.037,2.133H.482A.482.482,0,0,1,0,1.651V.482A.482.482,0,0,1,.482,0h.555a.482.482,0,0,1,.482.482V1.651A.482.482,0,0,1,1.037,2.133Z" transform="translate(10.464 23.855)" fill="url(#linear-gradient-33)"/>
        <path id="Path_341" data-name="Path 341" d="M1.037,2.133H.482A.482.482,0,0,1,0,1.651V.482A.482.482,0,0,1,.482,0h.555a.482.482,0,0,1,.482.482V1.651A.482.482,0,0,1,1.037,2.133Z" transform="translate(11.983 23.855)" fill="url(#linear-gradient-34)"/>
      </g>
    </g>
    <g id="Group_101" data-name="Group 101" transform="translate(132.944 61)">
      <g transform="matrix(1, 0, 0, 1, -77.94, -4)" filter="url(#Ellipse_64)">
        <circle id="Ellipse_64-2" data-name="Ellipse 64" cx="20.444" cy="20.444" r="20.444" transform="translate(77.94 4)" fill="#fff"/>
      </g>
      <g id="shopping-bag" transform="matrix(0.966, -0.259, 0.259, 0.966, 6.84, 9.169)">
        <path id="Path_342" data-name="Path 342" d="M11.256,7.294a.759.759,0,0,1-.759-.759V5.741A4.227,4.227,0,0,0,6.275,1.518H5.741A4.227,4.227,0,0,0,1.519,5.741v.794A.759.759,0,0,1,0,6.535V5.741A5.747,5.747,0,0,1,5.741,0h.534a5.747,5.747,0,0,1,5.741,5.741v.794a.76.76,0,0,1-.759.759Zm0,0" transform="translate(5.387 0)" fill="url(#linear-gradient-35)"/>
        <path id="Path_343" data-name="Path 343" d="M18.649,22.423H1.8a1.8,1.8,0,0,1-1.8-1.8V.681A.681.681,0,0,1,.681,0H19.763a.681.681,0,0,1,.681.681V20.628a1.8,1.8,0,0,1-1.8,1.8Zm0,0" transform="translate(0 6.401)" fill="url(#linear-gradient-36)"/>
        <path id="Path_344" data-name="Path 344" d="M6.15,0H1.114A.681.681,0,0,1,1.8.681V20.628a1.8,1.8,0,0,1-1.8,1.8H5.036a1.8,1.8,0,0,0,1.8-1.8V.681A.681.681,0,0,0,6.15,0Zm0,0" transform="translate(13.613 6.401)" fill="url(#linear-gradient-37)"/>
        <path id="Path_345" data-name="Path 345" d="M0,0V4.649a1.8,1.8,0,0,0,1.8,1.8H18.649a1.8,1.8,0,0,0,1.8-1.8V0ZM0,0" transform="translate(0 22.38)" fill="url(#linear-gradient-38)"/>
        <path id="Path_346" data-name="Path 346" d="M1.768,0H0V22.423H.653a1.8,1.8,0,0,0,1.8-1.8V.681A.681.681,0,0,0,1.768,0Zm0,0" transform="translate(17.995 6.401)" fill="url(#linear-gradient-39)"/>
        <path id="Path_347" data-name="Path 347" d="M5.918,2.352,3.566,0,0,3.566H4.219A1.8,1.8,0,0,0,5.918,2.352Zm0,0" transform="translate(14.429 25.259)" fill="url(#linear-gradient-40)"/>
        <path id="Path_348" data-name="Path 348" d="M18.728,18.45V7.207l-6.8-6.8A.759.759,0,0,0,10.5.759v.794A4.228,4.228,0,0,1,6.8,5.741L1.431.407A.759.759,0,0,0,0,.759v.794A5.726,5.726,0,0,0,1.847,5.767L16.325,20.246h.608a1.8,1.8,0,0,0,1.8-1.8Zm0,0" transform="translate(1.716 8.579)" fill="url(#linear-gradient-41)"/>
        <path id="Path_349" data-name="Path 349" d="M2.289,1.145A1.145,1.145,0,1,1,1.145,0,1.145,1.145,0,0,1,2.289,1.145Zm0,0" transform="translate(11.848 8.312)" fill="url(#linear-gradient-42)"/>
        <path id="Path_350" data-name="Path 350" d="M2.289,1.145A1.145,1.145,0,1,1,1.145,0,1.144,1.144,0,0,1,2.289,1.145Zm0,0" transform="translate(1.344 8.312)" fill="url(#linear-gradient-43)"/>
        <path id="Path_351" data-name="Path 351" d="M15.015,11.355a1.8,1.8,0,0,1-1.7,1.222h-4.4L1.362,5.021A.815.815,0,0,1,1,4.537L.031,1.051A.829.829,0,0,1,1.051.031L4.537,1a.819.819,0,0,1,.484.364Zm0,0" transform="translate(5.335 16.248)" fill="url(#linear-gradient-44)"/>
        <path id="Path_352" data-name="Path 352" d="M4.537,1,1.051.031a.828.828,0,0,0-1.02,1.02L1,4.537A.828.828,0,0,0,2.381,4.9l.291-.29L3.934,6.289a.409.409,0,0,0,.616.043L6.332,4.549a.409.409,0,0,0-.044-.615L4.61,2.672,4.9,2.382A.828.828,0,0,0,4.537,1Zm0,0" transform="translate(5.335 16.248)" fill="url(#linear-gradient-45)"/>
        <path id="Path_353" data-name="Path 353" d="M6.275,7.294H5.741A5.747,5.747,0,0,1,0,1.553V.759a.759.759,0,0,1,1.518,0v.794A4.227,4.227,0,0,0,5.741,5.776h.534A4.227,4.227,0,0,0,10.5,1.553V.759a.759.759,0,0,1,1.518,0v.794a5.747,5.747,0,0,1-5.741,5.74Zm0,0" transform="translate(1.716 8.579)" fill="url(#radial-gradient-2)"/>
      </g>
    </g>
    <g id="Group_99" data-name="Group 99" transform="translate(89.5 137.667)">
      <g transform="matrix(1, 0, 0, 1, -34.5, -80.67)" filter="url(#Ellipse_65)">
        <circle id="Ellipse_65-2" data-name="Ellipse 65" cx="17.889" cy="17.889" r="17.889" transform="translate(34.5 80.67)" fill="#fff"/>
      </g>
      <g id="fi-rs-verify" transform="translate(5.889 5.889)">
        <rect id="Cover" width="24" height="24" fill="none"/>
        <path id="Path_385" data-name="Path 385" d="M581.12,484.216v11l9.5,5.5,9.5-5.5v-11l-9.5-5.5Z" transform="translate(-578.62 -477.717)" fill="#2d6fc1"/>
        <path id="Path_386" data-name="Path 386" d="M581.12,495.205v5.511l9.5,5.5,9.5-5.5v-5.5l-9.5,5.5v-11Z" transform="translate(-578.62 -483.216)" fill="none"/>
        <path id="Path_387" data-name="Path 387" d="M590.62,493.611V501.4l6.726,3.894,6.726-3.894v-7.788l-6.726-3.894Z" transform="translate(-585.346 -485.505)" fill="#47a0e5"/>
        <path id="Path_388" data-name="Path 388" d="M601.411,494.63l-5.277,5.276-2.051-2.051-1.613,1.613,3.664,3.664,6.89-6.889Z" transform="translate(-585.733 -486.831)" fill="#fff"/>
      </g>
    </g>
  </g>
</svg>
