<svg xmlns="http://www.w3.org/2000/svg" width="86.223" height="41.001" viewBox="0 0 86.223 41.001">
  <path id="Caak-Logo" d="M19889.98,7265.515v-16.4h-4.268v14.181h-7.125v-23.57a6.3,6.3,0,0,1,6.291-6.275h5.4a6.3,6.3,0,0,1,6.3,6.275v25.191a3.315,3.315,0,0,1-3.3,3.575C19890.33,7268.491,19889.984,7266.328,19889.98,7265.515Zm-4.268-27.557v7.172h4.268v-7.172a2.06,2.06,0,0,0-2.184-1.4A1.925,1.925,0,0,0,19885.713,7237.958Zm-28.449,26.958v-25.191a6.306,6.306,0,0,1,6.3-6.275h5.4a6.3,6.3,0,0,1,6.295,6.275v23.567h-7.129v-14.178h-4.268v16.4c0,.813-.35,2.976-3.3,2.976A3.318,3.318,0,0,1,19857.264,7264.916Zm6.6-26.961v7.176h4.268v-7.176a1.925,1.925,0,0,0-2.086-1.4A2.059,2.059,0,0,0,19863.863,7237.955Zm49.107,26.068-5.4-14.48-.145.1V7264h-6.814v-33.235c.074-3.188,6.867-2.869,6.814,0v16.779l.525-.377,5.482-12.567,6.43-.067-5.7,13.383,6.066,16.107Zm-71.439-.153a6.3,6.3,0,0,1-6.295-6.278v-17.867a6.3,6.3,0,0,1,6.295-6.275h5.4a6.3,6.3,0,0,1,6.295,6.275c0,1.452.123,2.934.123,4.324a4.02,4.02,0,0,1-.123.979l-.387.979a3.363,3.363,0,0,1-4.8,1.267,3.721,3.721,0,0,1-1.533-2.11l-.156-1.114c0-2.015.148-4.153.148-6.242a1.575,1.575,0,0,0-1.574-1.568h-1.35a1.574,1.574,0,0,0-1.57,1.568V7258.3a1.569,1.569,0,0,0,1.57,1.568h1.35a1.57,1.57,0,0,0,1.574-1.568v-6.874h6.73v6.169a6.3,6.3,0,0,1-6.295,6.278Z" transform="translate(-19834.736 -7227.99)" fill="#0d1026" stroke="rgba(0,0,0,0)" stroke-width="1"/>
</svg>
