<svg id="Circle" xmlns="http://www.w3.org/2000/svg" width="29" height="29" viewBox="0 0 29 29">
  <path id="Ellipse_14" data-name="Ellipse 14" d="M14.5,4A10.5,10.5,0,1,0,25,14.5,10.512,10.512,0,0,0,14.5,4m0-4A14.5,14.5,0,1,1,0,14.5,14.5,14.5,0,0,1,14.5,0Z" fill="#f60"/>
  <path id="Path_366" data-name="Path 366" d="M7.5,13.7C3.364,13.7,0,10.623,0,6.847S3.364,0,7.5,0A8.1,8.1,0,0,1,11,.79V4.268A4.657,4.657,0,0,0,7.5,2.739,4.323,4.323,0,0,0,3,6.847a4.323,4.323,0,0,0,4.5,4.109A4.658,4.658,0,0,0,11,9.427v3.478A8.1,8.1,0,0,1,7.5,13.7Z" transform="translate(7 7.653)" fill="#f60"/>
  <circle id="Ellipse_16" data-name="Ellipse 16" cx="2.5" cy="2.5" r="2.5" transform="translate(12 12)" fill="#f60"/>
</svg>
