<svg id="Man-Avatar" xmlns="http://www.w3.org/2000/svg" xmlns:xlink="http://www.w3.org/1999/xlink" width="60" height="60" viewBox="0 0 60 60">
  <defs>
    <clipPath id="clip-path">
      <rect id="Rectangle_123" data-name="Rectangle 123" width="60" height="60" fill="none"/>
    </clipPath>
  </defs>
  <g id="Group_48" data-name="Group 48" clip-path="url(#clip-path)">
    <g id="Group_47" data-name="Group 47" transform="translate(1.289 0)">
      <path id="Path_186" data-name="Path 186" d="M64.67,64.9a28.711,28.711,0,1,0-49.922,0Z" transform="translate(-10.998 -19.418)" fill="#88ce65"/>
      <path id="Path_187" data-name="Path 187" d="M230.485,392.666a28.982,28.982,0,0,0,6.016,0V377h-6.016v15.666Z" transform="translate(-204.764 -332.82)" fill="#73c3f9"/>
      <path id="Path_188" data-name="Path 188" d="M236.5,377h-6.016v3.618a9.482,9.482,0,0,0,6.016-.012V377Z" transform="translate(-204.764 -332.82)" fill="#49b1f7"/>
      <path id="Path_189" data-name="Path 189" d="M191.166,279.877,194,275.5q-.882-.272-1.8-.485c-1.19-1.19-1.491-3.445-1.546-5.023a13.131,13.131,0,0,1-1.9,1.811,6.944,6.944,0,0,1-8.5,0,13.138,13.138,0,0,1-1.9-1.811c-.054,1.578-.356,3.834-1.546,5.023q-.919.212-1.8.486l2.832,4.375a7.932,7.932,0,0,0,13.316,0Z" transform="translate(-155.797 -238.352)" fill="#ffaa7b"/>
      <path id="Path_190" data-name="Path 190" d="M180.26,271.8a13.149,13.149,0,0,1-1.9-1.811c-.054,1.578-.356,3.834-1.546,5.023q-.919.212-1.8.486l1.963,3.032a5.305,5.305,0,0,0,4.122.425c2.72-1.116,3.28-4.306,3.394-5.7a6.933,6.933,0,0,1-4.238-1.454Z" transform="translate(-155.798 -238.352)" fill="#fc9460"/>
      <path id="Path_191" data-name="Path 191" d="M126.5,330.676a4.055,4.055,0,0,0-.4.128,5.144,5.144,0,0,0-2.96,3.595,9.268,9.268,0,0,0-5.97,2.231,6.267,6.267,0,0,0-1.786,4.656v5.441a28.553,28.553,0,0,0,14.01,5.092v-19.67Z" transform="translate(-103.155 -291.925)" fill="#6c5475"/>
      <path id="Path_192" data-name="Path 192" d="M59.085,315.437c-10.978,3.58-14.109,4.22-15.431,6.916a14.389,14.389,0,0,0-.656,1.6,28.85,28.85,0,0,0,8.659,9.44v-5.564c0-6.831,7.711-6.711,7.711-6.711.8-2.7,2.353-3.539,3.47-3.775Z" transform="translate(-39.248 -278.472)" fill="#56415e"/>
      <path id="Path_193" data-name="Path 193" d="M319.35,323.956a14.394,14.394,0,0,0-.656-1.6c-1.322-2.7-4.453-3.337-15.431-6.916l-3.778,1.922v20.662a28.741,28.741,0,0,0,19.865-14.065Z" transform="translate(-265.678 -278.472)" fill="#6c5475"/>
      <path id="Path_194" data-name="Path 194" d="M178.846,18.526c.762-3.108,1.385-7.765-.263-11.641C175.4-.608,166.724-.147,164.425.117a.321.321,0,0,0-.225.5c1.378,2.011-4.02.189-6.953,6.343-1.859,3.9-1.392,8.492-.712,11.563h22.312Z" transform="translate(-138.952 0)" fill="#56415e"/>
      <path id="Path_195" data-name="Path 195" d="M167.536,8.258a3.073,3.073,0,0,1,1.324-3.627c2.185-1.639-1.072-4.582-1.081-4.59a19.334,19.334,0,0,0-3.355.078.321.321,0,0,0-.225.5c1.378,2.011-4.02.189-6.953,6.343-1.859,3.9-1.392,8.492-.712,11.563h5.1l1.62-.644Z" transform="translate(-138.951 -0.002)" fill="#45304c"/>
      <path id="Path_196" data-name="Path 196" d="M336.675,152.84a1.951,1.951,0,0,0-1.97.053,5.822,5.822,0,0,1,.018,1.714l-.489,3.559q0,.43-.026.845a1.611,1.611,0,0,0,2-1.445,5.459,5.459,0,0,1,.21-.932C336.736,155.644,337.879,153.944,336.675,152.84Z" transform="translate(-296.332 -134.709)" fill="#ffaa7b"/>
      <path id="Path_197" data-name="Path 197" d="M152.679,152.84a1.951,1.951,0,0,1,1.97.053,5.819,5.819,0,0,0-.017,1.714l.489,3.559q0,.43.026.845a1.611,1.611,0,0,1-2-1.445,5.458,5.458,0,0,0-.21-.932c-.317-.99-1.46-2.69-.256-3.794Z" transform="translate(-135.6 -134.709)" fill="#fc9460"/>
      <path id="Path_198" data-name="Path 198" d="M235.116,78.414a3.608,3.608,0,0,1-.353-2.356s.457-3.74-4.15-5.068a17.2,17.2,0,0,0-5.144-.54,5.01,5.01,0,0,0-2.225,4.3,4.068,4.068,0,0,1-.36,2.527,6.2,6.2,0,0,0-.749,3.931l.5,3.819a14.284,14.284,0,0,0,5.15,11.158,6.963,6.963,0,0,0,1.071.718,6.9,6.9,0,0,0,1.452-.865,13.079,13.079,0,0,0,5.056-10.4l.489-3.559A5.538,5.538,0,0,0,235.116,78.414Z" transform="translate(-197.343 -62.181)" fill="#ffc7ab"/>
      <path id="Path_199" data-name="Path 199" d="M183.541,95.978a14.023,14.023,0,0,1-5.056-10.954L178,81.274a6.084,6.084,0,0,1,.735-3.859,3.993,3.993,0,0,0,.353-2.481,4.983,4.983,0,0,1,2.578-4.482c-4.094.057-8.582,1.444-8.582,5.621a3.622,3.622,0,0,1-.353,2.356,5.534,5.534,0,0,0-.735,3.664l.489,3.56a13.079,13.079,0,0,0,5.056,10.4,6.948,6.948,0,0,0,7.292.754A6.846,6.846,0,0,1,183.541,95.978Z" transform="translate(-153.077 -62.197)" fill="#ffaa7b"/>
      <path id="Path_200" data-name="Path 200" d="M277.057,352.392a28.686,28.686,0,0,0,3.185-.451V331.326l-3.185,1.4Z" transform="translate(-245.878 -292.499)" fill="#876d93"/>
      <path id="Path_201" data-name="Path 201" d="M282.821,292.207a13.572,13.572,0,0,0-3.446-2.711.228.228,0,0,0-.333.154,9,9,0,0,1-3.779,5.591,1.15,1.15,0,0,0-.229,1.714l2.817,3.227a1.476,1.476,0,0,0,2.415-.271,43.481,43.481,0,0,0,2.832-6.4,1.307,1.307,0,0,0-.278-1.3Z" transform="translate(-243.842 -255.545)" fill="#a98bbc"/>
      <path id="Path_202" data-name="Path 202" d="M187.726,330.574a8.674,8.674,0,0,1-1.319-1.072,4.039,4.039,0,0,0-1.734.256,5.121,5.121,0,0,0-2.942,3.538c.353.734.693,1.394.991,1.949a1.476,1.476,0,0,0,2.415.271l2.817-3.227a1.15,1.15,0,0,0-.229-1.714Z" transform="translate(-161.723 -290.879)" fill="#876d93"/>
      <path id="Path_203" data-name="Path 203" d="M172.239,294.373a9.1,9.1,0,0,1-2.673-4.722.228.228,0,0,0-.333-.154,13.569,13.569,0,0,0-3.446,2.711,1.308,1.308,0,0,0-.278,1.3,40.455,40.455,0,0,0,1.953,4.686c1.344-4.518,4.777-3.822,4.777-3.822Z" transform="translate(-147.342 -255.545)" fill="#6c5475"/>
      <path id="Path_204" data-name="Path 204" d="M369.282,79.852a11.949,11.949,0,0,0-2.72,7.249c0,5.835-7.266,15.437,0,17.315,5.973,1.545,9.271,2.233,11.55,6.1a28.743,28.743,0,0,0-8.83-30.665Z" transform="translate(-322.043 -70.494)" fill="#b4d667"/>
      <path id="Path_205" data-name="Path 205" d="M21.182,79.852A11.949,11.949,0,0,1,23.9,87.1c0,5.835,7.266,15.437,0,17.315-5.973,1.545-9.271,2.233-11.55,6.1a28.743,28.743,0,0,1,8.83-30.665Z" transform="translate(-10.998 -70.494)" fill="#b4d667"/>
      <path id="Path_206" data-name="Path 206" d="M400.876,396.626a7.146,7.146,0,0,0-3.188-4.445,1.1,1.1,0,0,0-1.688.925v7.815A28.869,28.869,0,0,0,400.876,396.626Z" transform="translate(-350.883 -346.07)" fill="#56415e"/>
    </g>
  </g>
</svg>
