<svg id="New-Logo" xmlns="http://www.w3.org/2000/svg" xmlns:xlink="http://www.w3.org/1999/xlink" width="1000" height="1000" viewBox="0 0 1000 1000">
  <defs>
    <linearGradient id="linear-gradient" x1="0.5" x2="0.5" y2="1" gradientUnits="objectBoundingBox">
      <stop offset="0" stop-color="#ff8000"/>
      <stop offset="1" stop-color="#ff4500"/>
    </linearGradient>
  </defs>
  <g id="Component_262_1" data-name="Component 262 – 1">
    <path id="download_28" d="M323.529,0H676.471C855.151,0,1000,144.849,1000,323.529V676.471C1000,855.151,855.151,1000,676.471,1000H323.529C144.849,1000,0,855.151,0,676.471V323.529C0,144.849,144.849,0,323.529,0Z" fill="url(#linear-gradient)"/>
    <path id="Path_452" data-name="Path 452" d="M-1405.777-1096.3c0-250.013,236.059-392.073,434.662-346.285,180.568,48.474,275.515,196.545,223.358,263.389s-102.986,40.1-175.208-6.687-176.537-127.009-216.657-121.662-60.182,32.754-60.182,141.061c0,108.283-13.049,248.67,30.086,266.718,47.482,19.873,52.822,17.372,143.774-42.782s187.407-157.8,264.812-89.581c81.916,72.2-21.551,182.377-139.1,252.693C-1063.389-681.838-1405.777-786.123-1405.777-1096.3Z" transform="translate(1568.777 1598.105)" fill="#fff"/>
  </g>
</svg>
