<svg xmlns="http://www.w3.org/2000/svg" width="183.185" height="144" viewBox="0 0 183.185 144">
  <g id="Successfully" transform="translate(-867.371 -136)">
    <rect id="Rectangle_140" data-name="Rectangle 140" width="182" height="144" transform="translate(868.556 136)" fill="#fff"/>
    <circle id="Ellipse_43" data-name="Ellipse 43" cx="43" cy="43" r="43" transform="translate(917 169)" fill="#2fc474"/>
    <path id="Path_230" data-name="Path 230" d="M-13152.38-4188.276l6.423-6.215,9.736,9.737,22.583-21.961,6.008,6.63-28.591,28.176Z" transform="translate(14090.38 4401.715)" fill="#fff"/>
    <path id="Path_231" data-name="Path 231" d="M-13091.678-4225.542s9.091.233,12.354-4.2,4.2-18.413,11.654-20.277" transform="translate(14097.28 4391.623)" fill="none" stroke="#f60" stroke-linecap="round" stroke-width="2"/>
    <path id="Path_232" data-name="Path 232" d="M-13097.686-4150.363s10.023,1.165,11.654,15.849" transform="translate(14096.529 4404.08)" fill="none" stroke="#ffb33c" stroke-linecap="round" stroke-width="2"/>
    <path id="Path_233" data-name="Path 233" d="M-13213.5-4159.2s13.286,2.8,17.947,0,9.322-10.021,6.992-17.48-13.285-2.331-7.925,3.962,15.616,8.158,21.676,0" transform="translate(14082.053 4400.328)" fill="none" stroke="#367ce6" stroke-linecap="round" stroke-width="2"/>
    <circle id="Ellipse_44" data-name="Ellipse 44" cx="5" cy="5" r="5" transform="translate(898 183)" fill="#ffb33c"/>
    <circle id="Ellipse_45" data-name="Ellipse 45" cx="5" cy="5" r="5" transform="translate(910 255)" fill="#2fc474"/>
    <ellipse id="Ellipse_46" data-name="Ellipse 46" cx="3" cy="2.5" rx="3" ry="2.5" transform="translate(959 269)" fill="#79ca4a"/>
    <circle id="Ellipse_47" data-name="Ellipse 47" cx="5" cy="5" r="5" transform="translate(973 270)" fill="#367ce6"/>
    <circle id="Ellipse_48" data-name="Ellipse 48" cx="5" cy="5" r="5" transform="translate(1015 198)" fill="#77d2ff"/>
    <circle id="Ellipse_49" data-name="Ellipse 49" cx="3" cy="3" r="3" transform="translate(958 146)" fill="#ffb33c"/>
    <circle id="Ellipse_50" data-name="Ellipse 50" cx="5" cy="5" r="5" transform="translate(941 136)" fill="#be5cfd"/>
  </g>
</svg>
