<svg id="Twitter-Color" xmlns="http://www.w3.org/2000/svg" width="24" height="24" viewBox="0 0 24 24">
  <rect id="Cover" width="24" height="24" fill="none"/>
  <path id="white_background" data-name="white background" d="M20.748,5.978c.013.2.013.391.013.588A12.8,12.8,0,0,1,7.919,19.5v0A12.714,12.714,0,0,1,1,17.456a9.119,9.119,0,0,0,1.074.066A9.024,9.024,0,0,0,7.68,15.573a4.523,4.523,0,0,1-4.217-3.156A4.469,4.469,0,0,0,5.5,12.338,4.538,4.538,0,0,1,1.88,7.884V7.826a4.461,4.461,0,0,0,2.049.569,4.57,4.57,0,0,1-1.4-6.068,12.781,12.781,0,0,0,9.3,4.748A4.568,4.568,0,0,1,13.14,2.732a4.5,4.5,0,0,1,6.386.2,9.019,9.019,0,0,0,2.866-1.1A4.556,4.556,0,0,1,20.408,4.34,8.928,8.928,0,0,0,23,3.624,9.2,9.2,0,0,1,20.748,5.978Z" transform="translate(0 1.502)" fill="#1d9bf0"/>
</svg>
