<svg xmlns="http://www.w3.org/2000/svg" width="38" height="38.057" viewBox="0 0 38 38.057">
  <g id="smile" style="mix-blend-mode: luminosity;isolation: isolate">
    <circle id="Ellipse_112" data-name="Ellipse 112" cx="19" cy="19" r="19" fill="#ffd54f"/>
    <path id="Path_465" data-name="Path 465" d="M24.8.964a4,4,0,0,0-2.462.841A4,4,0,0,0,19.871.964,3.792,3.792,0,0,0,16,4.663c0,3.178,4.71,6.626,5.652,7.285a1.191,1.191,0,0,0,1.362,0c.942-.66,5.652-4.107,5.652-7.285A3.792,3.792,0,0,0,24.8.964Z" transform="translate(9.333 0.562)" fill="#e53935"/>
    <path id="Path_466" data-name="Path 466" d="M8.8,16.964a4,4,0,0,0-2.462.841,4,4,0,0,0-2.462-.841A3.792,3.792,0,0,0,0,20.663c0,3.178,4.71,6.626,5.652,7.285a1.191,1.191,0,0,0,1.362,0c.942-.66,5.653-4.107,5.653-7.285A3.792,3.792,0,0,0,8.8,16.964Z" transform="translate(0 9.896)" fill="#e53935"/>
    <g id="Group_158" data-name="Group 158" transform="translate(7.917 12.667)">
      <path id="Path_467" data-name="Path 467" d="M11.729,13.146a1.188,1.188,0,0,1-1.187-1.188,1.583,1.583,0,0,0-3.167,0,1.188,1.188,0,1,1-2.375,0,3.958,3.958,0,0,1,7.917,0A1.188,1.188,0,0,1,11.729,13.146Z" transform="translate(-5 -8)" fill="#6d4c41"/>
      <path id="Path_468" data-name="Path 468" d="M20.729,13.146a1.188,1.188,0,0,1-1.187-1.188,1.583,1.583,0,0,0-3.167,0,1.188,1.188,0,1,1-2.375,0,3.958,3.958,0,1,1,7.917,0A1.188,1.188,0,0,1,20.729,13.146Z" transform="translate(0.25 -8)" fill="#6d4c41"/>
      <path id="Path_469" data-name="Path 469" d="M15.5,20.144a12.85,12.85,0,0,1-9.152-3.792,1.188,1.188,0,0,1,1.68-1.68,10.565,10.565,0,0,0,14.945,0,1.188,1.188,0,1,1,1.68,1.68A12.862,12.862,0,0,1,15.5,20.144Z" transform="translate(-4.417 -4.311)" fill="#6d4c41"/>
    </g>
  </g>
</svg>
