<?xml version="1.0" standalone="no"?>
<!DOCTYPE svg PUBLIC "-//W3C//DTD SVG 1.1//EN" "http://www.w3.org/Graphics/SVG/1.1/DTD/svg11.dtd" >
<svg xmlns="http://www.w3.org/2000/svg">
<metadata>Generated by IcoMoon</metadata>
<defs>
<font id="caakmoon" horiz-adv-x="1024">
<font-face units-per-em="1024" ascent="960" descent="-64" />
<missing-glyph horiz-adv-x="1024" />
<glyph unicode="&#x20;" horiz-adv-x="512" d="" />
<glyph unicode="&#xe900;" glyph-name="fi-rs-about" d="M0 448c0 282.77 229.23 512 512 512v0c282.77 0 512-229.23 512-512v0c-0.316-282.643-229.358-511.685-511.97-512h-0.030c-282.77 0-512 229.23-512 512v0zM85.333 448c0-235.641 191.025-426.667 426.667-426.667v0c235.641 0 426.667 191.025 426.667 426.667v0c-0.243 235.544-191.123 426.424-426.643 426.667h-0.023c-235.641 0-426.667-191.025-426.667-426.667v0zM512 149.333v298.667h-85.333v85.333h85.333c47.128 0 85.333-38.205 85.333-85.333v0-298.667zM448 682.667c0 35.346 28.654 64 64 64v0c35.346 0 64-28.654 64-64v0c0-35.346-28.654-64-64-64v0c-35.346 0-64 28.654-64 64v0z" />
<glyph unicode="&#xe901;" glyph-name="fi-rs-album" d="M186.923 41.643c-56.106 0-101.589 45.483-101.589 101.589 0 0.015 0 0.030 0 0.045v-0.002 609.493c0 56.106 45.483 101.589 101.589 101.589v0h284.416c56.106 0 101.589-45.483 101.589-101.589v0-609.493c0-0.013 0-0.028 0-0.043 0-56.083-45.464-101.547-101.547-101.547-0.015 0-0.030 0-0.045 0h0.002zM613.589 115.968v664.064h121.941c0.524 0.025 1.139 0.040 1.756 0.040 20.799 0 37.787-16.319 38.858-36.851l0.004-0.096v-590.251c-1.076-20.628-18.063-36.946-38.862-36.946-0.618 0-1.232 0.014-1.843 0.043l0.086-0.003zM816.768 163.541v568.917h81.067c22.433 0 40.619-18.186 40.619-40.619v0-487.637c0-22.433-18.186-40.619-40.619-40.619v0z" />
<glyph unicode="&#xe902;" glyph-name="fi-rs-archive" d="M255.943-64.057v85.333h552.846l25.657 31.744c65.011 82.806 104.26 188.527 104.26 303.414 0 2.191-0.014 4.379-0.043 6.563l0.003-0.331v426.667h85.333v-853.333zM-0.057 106.61c53.25 68.492 85.371 155.71 85.371 250.431 0 1.958-0.014 3.913-0.041 5.865l0.003-0.296v597.333h768v-597.333c0.024-1.662 0.038-3.623 0.038-5.588 0-94.715-32.121-181.927-86.064-251.338l0.693 0.926zM558.251 383.943l60.302 60.416-88.974 88.974 88.974 88.974-60.359 60.302-89.031-88.974-88.917 88.974-60.359-60.302 88.974-88.974-88.974-88.974 60.302-60.416 89.031 89.031z" />
<glyph unicode="&#xe903;" glyph-name="fi-rs-auro" horiz-adv-x="783" d="M0 327.564c0 80.066 33.712 162.197 105.982 258.571 106.277 141.674 54.023 325.952 53.518 327.764-0.919 3.032-1.449 6.517-1.449 10.126 0 10.634 4.596 20.194 11.91 26.803l0.031 0.028c6.304 5.652 14.67 9.117 23.846 9.144h0.006c4.991-0.008 9.74-1.030 14.057-2.87l-0.235 0.089c58.152-28.886 107.579-66.413 148.829-111.54l0.346-0.384c40.381-43.111 73.455-93.673 96.86-149.305l1.242-3.326c19.629-46.918 32.891-101.278 37.066-158.162l0.101-1.716c39.091 49.442 67.549 109.11 80.869 174.289l0.461 2.698c2.879 13.799 13.356 24.557 26.766 27.804l0.246 0.050c2.47 0.616 5.306 0.97 8.224 0.97 0.072 0 0.143 0 0.215-0.001h-0.011c0.030 0 0.065 0 0.1 0 11.461 0 21.661-5.395 28.201-13.784l0.060-0.080c5.942-7.669 145.846-189.84 145.846-397.379-0.216-216.145-175.377-391.306-391.501-391.522h-0.021c-216.237 0.192-391.468 175.483-391.564 391.724v0.009zM291.861 246.698c-23.098-26.015-38.428-59.396-42.083-96.211l-0.057-0.711c0.096-78.299 63.544-141.747 141.834-141.843h0.009c78.276 0.096 141.705 63.525 141.801 141.792v0.009c-1.273 37.974-10.559 73.487-26.21 105.306l0.674-1.515c-14.486-31.081-39.526-55.219-70.412-68.189l-0.888-0.331c-3.563-1.305-7.676-2.061-11.966-2.065h-0.002c-0.021 0-0.046 0-0.071 0-8.007 0-15.397 2.643-21.344 7.104l0.092-0.066c-8.927 6.626-14.648 17.134-14.648 28.978 0 0.479 0.009 0.956 0.028 1.431l-0.002-0.068c0.283 3.998 0.444 8.663 0.444 13.365 0 52.8-20.307 100.857-53.536 136.787l0.122-0.134c-2.28-46.742-18.344-89.331-44.178-124.256l0.436 0.618zM528.519 359.464c43.916-58.006 71.998-130.187 76.645-208.673l0.050-1.058c0-0.126 0-0.274 0-0.423 0-24.783-4.26-48.572-12.088-70.673l0.457 1.481c71.857 59.081 117.374 147.932 117.528 247.42v0.026c-5.324 108.249-38.024 207.857-91.259 293.353l1.501-2.588c-4.214-11.546-8.681-22.713-13.4-33.459-23.652-68.532-73.324-122.843-136.907-152.095l-1.607-0.663c-3.563-1.305-7.676-2.062-11.966-2.065h-0.001c-0.025 0-0.056 0-0.086 0-7.996 0-15.378 2.626-21.332 7.063l0.095-0.067c-8.99 6.597-14.761 17.123-14.761 28.996 0 0.325 0.004 0.648 0.013 0.97l-0.001-0.048c0.372 7.004 0.584 15.205 0.584 23.456 0 62.424-12.13 122.015-34.161 176.545l1.13-3.165c-20.914 50.426-48.978 93.697-83.482 130.913l0.256-0.279c-19.157 20.8-39.824 39.583-62.046 56.422l-1.164 0.846c1.433-16.14 2.149-32.279 2.149-48.292 0.062-2.722 0.097-5.93 0.097-9.145 0-94.446-30.485-181.772-82.153-252.675l0.852 1.227c-50.904-57.858-84.352-132.187-91.471-214.055l-0.099-1.407c0.154-99.513 45.671-188.365 116.973-247.003l0.555-0.443c-7.397 20.607-11.673 44.383-11.673 69.158 0 0.175 0 0.351 0.001 0.526v-0.027c3.316 53.905 24.166 102.384 56.856 140.385l-0.262-0.312c18.642 28.237 29.74 62.882 29.74 100.119 0 16.325-2.133 32.153-6.136 47.218l0.289-1.28c-0.928 3.044-1.462 6.543-1.462 10.166 0 10.595 4.567 20.122 11.841 26.722l0.030 0.027c6.324 5.725 14.752 9.229 23.999 9.229 0.022 0 0.044 0 0.066 0h-0.003c0.013 0 0.027 0 0.042 0 4.99 0 9.741-1.023 14.055-2.87l-0.233 0.089c71.081-34.997 123.923-97.87 144.765-173.97l0.449-1.922c4.991 11.538 9.494 25.284 12.779 39.496l0.326 1.675c2.935 13.784 13.407 24.523 26.806 27.803l0.248 0.051c2.531 0.612 5.437 0.965 8.425 0.969h0.003c0.002 0 0.005 0 0.008 0 11.398 0 21.548-5.343 28.083-13.661l0.058-0.077z" />
<glyph unicode="&#xe904;" glyph-name="fi-rs-back" d="M379.52 448l388.267 395.605-72.32 73.728-424.533-432.469c-9.233-9.525-14.924-22.53-14.924-36.864s5.691-27.339 14.937-36.878l-0.013 0.014 424.661-432.469 72.533 73.728z" />
<glyph unicode="&#xe905;" glyph-name="fi-rs-bookmark" horiz-adv-x="838" d="M23.962-58.163c6.499-3.665 14.269-5.824 22.543-5.824 9.16 0 17.703 2.647 24.904 7.217l-0.19-0.113 347.699 217.293 347.699-217.293c7.003-4.444 15.533-7.082 24.678-7.082 25.704 0 46.541 20.837 46.541 46.541 0 0.006 0 0.011 0 0.017v-0.001 837.786c0 77.111-62.511 139.622-139.622 139.622-0.018 0-0.036 0-0.054 0h-558.538c-77.111 0-139.622-62.511-139.622-139.622v0-837.837c0-0.078-0.001-0.17-0.001-0.263 0-17.415 9.566-32.597 23.729-40.576l0.233-0.121zM93.082 820.378c0 25.704 20.837 46.541 46.541 46.541v0h558.541c25.704 0 46.541-20.837 46.541-46.541v0-754.022l-301.158 188.211c-7.003 4.444-15.533 7.082-24.678 7.082s-17.675-2.638-24.869-7.194l0.191 0.113-301.107-188.211z" />
<glyph unicode="&#xe906;" glyph-name="fi-rs-check" d="M835.669 704l-391.381-391.339-256 256-60.288-60.373 316.288-316.331 451.712 451.712z" />
<glyph unicode="&#xe907;" glyph-name="fi-rs-close" d="M160.597 21.205v0l-75.264 75.477 351.232 351.275-351.232 351.275 75.349 75.477 351.232-351.232 351.403 351.232 75.349-75.477-351.232-351.275 351.232-351.275-75.264-75.435-351.488 351.403-351.232-351.445z" />
<glyph unicode="&#xe908;" glyph-name="fi-rs-comment" d="M512.043 917.333c-244.309 0-442.368-178.219-442.368-398.080s198.059-398.080 442.368-398.080c18.56 0.035 36.832 1.088 54.812 3.106l-2.246-0.205v-145.408s321.579 178.176 379.435 455.083c6.526 25.614 10.289 55.026 10.325 85.311v0.023c0.043 220.032-198.016 398.251-442.325 398.251zM382.592 469.589h-86.357v86.315h86.315zM555.221 469.589h-86.315v86.315h86.315zM727.851 469.589h-86.443v86.315h86.315z" />
<glyph unicode="&#xe909;" glyph-name="fi-rs-delete" d="M289.28-21.376c-65.98 0-119.467 53.487-119.467 119.467v517.803c-35.852 4.097-63.464 34.193-63.616 70.768v31.803c0.073 39.558 32.121 71.607 71.673 71.68h185.394c11.671 72.491 73.783 127.194 148.672 127.194s137.001-54.703 148.557-126.331l0.115-0.863h185.387c39.578-0.024 71.656-32.102 71.68-71.678v-31.789c-0.175-36.597-27.797-66.688-63.329-70.753l-0.33-0.031v-517.803c0-65.98-53.487-119.467-119.467-119.467v0zM217.643 98.091c0-39.564 32.073-71.637 71.637-71.637v0h445.397c39.564 0 71.637 32.073 71.637 71.637v0 516.907h-588.8zM153.984 718.464v-31.787c0.048-13.159 10.727-23.808 23.893-23.808 0.030 0 0.060 0 0.090 0h668.070c0.038 0 0.083 0 0.128 0 13.149 0 23.808 10.659 23.808 23.808 0 0 0 0 0 0v0 31.787c-0.048 13.2-10.736 23.888-23.931 23.936h-668.080c-13.224-0.048-23.93-10.755-23.979-23.974v-0.005zM411.648 790.144h200.533c-11.122 45.81-51.784 79.295-100.267 79.295s-89.145-33.485-100.122-78.59l-0.145-0.705zM647.211 193.536v254.421c0.556 12.754 11.031 22.884 23.872 22.884s23.316-10.13 23.87-22.834l0.002-0.050v-254.507c0.014-0.301 0.021-0.654 0.021-1.009 0-13.196-10.697-23.893-23.893-23.893s-23.893 10.697-23.893 23.893c0 0.355 0.008 0.708 0.023 1.059l-0.002-0.050zM488.149 193.536v254.421c0 13.172 10.678 23.851 23.851 23.851s23.851-10.678 23.851-23.851v0-254.507c0-13.172-10.678-23.851-23.851-23.851s-23.851 10.678-23.851 23.851v0zM328.96 193.536v254.421c0.557 12.778 11.051 22.926 23.915 22.926s23.358-10.148 23.913-22.876l0.002-0.050v-254.507c0.014-0.301 0.021-0.655 0.021-1.010 0-13.219-10.717-23.936-23.936-23.936s-23.936 10.717-23.936 23.936c0 0.355 0.008 0.709 0.023 1.060l-0.002-0.050z" />
<glyph unicode="&#xe90a;" glyph-name="fi-rs-desc" horiz-adv-x="815" d="M37.837-63.949c-20.885 0.029-37.808 16.952-37.837 37.834v948.329c0.029 20.885 16.952 37.808 37.834 37.837h739.126c0.015 0 0.033 0 0.051 0 20.868 0 37.786-16.917 37.786-37.786 0-0.018 0-0.036 0-0.054v0.003-948.326c0-0.015 0-0.033 0-0.051 0-20.868-16.917-37.786-37.786-37.786-0.018 0-0.036 0-0.054 0h0.003zM75.674 11.725h663.45v872.653h-663.45zM190.362 88.525c-20.863 0.058-37.757 16.97-37.786 37.834v0.003c0.029 20.867 16.923 37.779 37.78 37.837h434.028c20.79-0.029 37.632-16.889 37.632-37.683 0-0.054 0-0.108 0-0.162v0.008c0-0.030 0-0.066 0-0.103 0-20.804-16.836-37.676-37.627-37.734h-0.006zM190.362 228.557c-20.863 0.058-37.757 16.97-37.786 37.834v0.003c0.029 20.867 16.923 37.779 37.78 37.837h434.028c20.79-0.029 37.632-16.889 37.632-37.683 0-0.054 0-0.108 0-0.162v0.008c0-0.030 0-0.066 0-0.103 0-20.804-16.836-37.676-37.627-37.734h-0.006zM190.362 368.538c-20.863 0.058-37.757 16.97-37.786 37.834v0.003c0.029 20.867 16.923 37.779 37.78 37.837h418.771c0.015 0 0.033 0 0.051 0 20.868 0 37.786-16.917 37.786-37.786 0-0.018 0-0.036 0-0.054v0.003c0-0.015 0-0.033 0-0.051 0-20.868-16.917-37.786-37.786-37.786-0.018 0-0.036 0-0.054 0h0.003zM190.362 536.32c-20.863 0.058-37.757 16.97-37.786 37.834v195.433c0.029 20.867 16.923 37.779 37.78 37.837h432.595c0.015 0 0.033 0 0.051 0 20.868 0 37.786-16.917 37.786-37.786 0-0.018 0-0.036 0-0.054v0.003-195.43c0-0.015 0-0.033 0-0.051 0-20.868-16.917-37.786-37.786-37.786-0.018 0-0.036 0-0.054 0h0.003zM228.198 611.994h356.915v119.757h-356.915z" />
<glyph unicode="&#xe90b;" glyph-name="fi-rs-document-signed" horiz-adv-x="768" d="M768 693.632c0 0.133 0.001 0.291 0.001 0.448 0 46.998-19.117 89.531-49.998 120.248l-0.008 0.007-95.659 95.659c-30.93 30.804-73.556 49.885-120.638 50.005h-373.698c-70.692 0-128-57.308-128-128v0-896h768zM657.664 754.005c2.049-2.218 4.021-4.61 5.856-7.11l0.16-0.229h-109.013v109.013c2.729-1.995 5.121-3.967 7.394-6.067l-0.055 0.051zM85.333 21.333v810.667c0 23.564 19.103 42.667 42.667 42.667v0h341.333v-213.333h213.333v-640zM213.333 576h341.333v-85.333h-341.333zM213.333 405.333h341.333v-85.333h-341.333zM470.101 242.603l83.84-15.616c-8.149-44.672-42.88-120.32-121.515-120.32-32.239 0.029-61.819 11.39-84.977 30.314l0.241-0.191c-13.397 9.515-18.091 12.544-28.245 12.544-15.703-6.059-28.87-15.714-38.953-27.997l-0.13-0.163-64 56.192c25.255 30.691 61.301 51.702 102.261 57.211l0.822 0.090c29.63-0.365 56.708-11 77.908-28.5l-0.212 0.17c9.209-8.693 21.594-14.108 35.24-14.335l0.045-0.001c26.581 0 37.547 50.048 37.675 50.603z" />
<glyph unicode="&#xe90c;" glyph-name="fi-rs-draft" horiz-adv-x="805" d="M146.304 960c-80.694-0.266-146.038-65.61-146.304-146.279v-731.46c0.29-80.676 65.625-145.996 146.279-146.261h512.025c80.694 0.266 146.038 65.61 146.304 146.279v0.025c0 20.194-16.371 36.565-36.565 36.565s-36.565-16.371-36.565-36.565v0c0.004-0.281 0.006-0.613 0.006-0.945 0-39.871-32.321-72.192-72.192-72.192-0.332 0-0.664 0.002-0.995 0.007l0.050-0.001h-512c-0.281-0.004-0.613-0.006-0.945-0.006-39.871 0-72.192 32.321-72.192 72.192 0 0.332 0.002 0.664 0.007 0.995l-0.001-0.050v731.392c-0.004 0.281-0.006 0.613-0.006 0.945 0 39.871 32.321 72.192 72.192 72.192 0.332 0 0.664-0.002 0.995-0.007l-0.050 0.001h329.131v-146.304c0.337-60.448 49.249-109.359 109.664-109.696h146.336v-402.304c0-20.194 16.371-36.565 36.565-36.565s36.565 16.371 36.565 36.565v438.912c-0.005 34.474-13.977 65.683-36.566 88.278l-167.722 167.722c-22.599 22.592-53.815 36.565-88.295 36.565-0.009 0-0.018 0-0.027 0h0.001zM548.608 871.723l167.68-167.723h-131.157c-0.257-0.007-0.56-0.010-0.864-0.010-19.723 0-35.712 15.989-35.712 35.712 0 0.304 0.004 0.607 0.011 0.908l-0.001-0.045z" />
<glyph unicode="&#xe90d;" glyph-name="fi-rs-edit" d="M110.763 21.248v42.965h802.133v-42.965zM200.789 217.984l-24.021 168.277 488.661 488.32 192.299-192.299-488.533-488.277zM222.123 370.987l16.555-115.2 115.2-16.341 321.493 321.237-131.712 131.541zM574.080 722.773l131.627-131.627 91.221 91.136-131.755 131.541z" />
<glyph unicode="&#xe90e;" glyph-name="fi-rs-emoji" d="M0 448c0 282.77 229.23 512 512 512v0c282.627-0.356 511.644-229.373 512-511.966v-0.034c0-282.77-229.23-512-512-512v0c-282.77 0-512 229.23-512 512v0zM93.070 448c0.033-231.344 187.581-418.873 418.93-418.873 0.020 0 0.040 0 0.060 0h-0.003c231.233 0.259 418.614 187.64 418.873 418.848v0.024c-0.033 231.336-187.542 418.865-418.867 418.93h-0.006c-231.38 0-418.954-187.554-418.987-418.927v-0.003zM289.735 278.983c-6.507 7.942-10.451 18.203-10.451 29.384 0 14.525 6.654 27.495 17.081 36.029l0.083 0.066c7.944 6.535 18.22 10.497 29.42 10.497 14.512 0 27.47-6.65 35.993-17.070l0.066-0.083c34.288-46.31 88.735-76.004 150.118-76.004 0.004 0 0.008 0 0.012 0h-0.001c0.012 0 0.027 0 0.041 0 61.357 0 115.778 29.696 149.675 75.499l0.357 0.505c8.599 10.506 21.568 17.157 36.090 17.157 11.21 0 21.494-3.964 29.527-10.566l-0.081 0.065c10.476-8.61 17.106-21.568 17.106-36.075 0-11.188-3.943-21.455-10.516-29.487l0.066 0.083c-51.515-67.247-131.846-110.182-222.206-110.194h-0.002c-0.028 0-0.061 0-0.094 0-90.375 0-170.728 42.912-221.794 109.472l-0.49 0.665zM605.127 494.592v93.070c0 0.017 0 0.037 0 0.057 0 25.669 20.809 46.478 46.478 46.478 0.020 0 0.040 0 0.060 0h-0.003c25.701 0 46.535-20.834 46.535-46.535v-93.070c-0.032-25.688-20.848-46.503-46.532-46.535h-0.003c-0.017 0-0.037 0-0.057 0-25.681 0-46.503 20.802-46.535 46.475v0.003zM325.86 494.592v93.070c0 0.017 0 0.037 0 0.057 0 25.669 20.809 46.478 46.478 46.478 0.020 0 0.040 0 0.060 0h-0.003c25.701 0 46.535-20.834 46.535-46.535v-93.070c-0.032-25.688-20.848-46.503-46.532-46.535h-0.003c-25.681 0-46.503 20.802-46.535 46.475v0.003z" />
<glyph unicode="&#xe90f;" glyph-name="fi-rs-exit" d="M489.088-21.376c-0.067-0.001-0.147-0.001-0.227-0.001-4.336 0-8.374 1.273-11.762 3.466l0.085-0.051-296.32 196.693c-6.053 3.97-10.044 10.651-10.239 18.275l-0.001 0.029v655.275c0.284 12.289 10.256 22.156 22.56 22.272h526.774c0 0 0 0 0 0 12.326 0 22.327-9.956 22.4-22.265v-131.036c0-12.383-10.038-22.421-22.421-22.421s-22.421 10.038-22.421 22.421v108.501h-430.251l234.667-155.52c6.161-4.053 10.186-10.916 10.24-18.722v-501.725h185.429v108.715c0 12.383 10.038 22.421 22.421 22.421s22.421-10.038 22.421-22.421v-131.029c-0.073-12.316-10.073-22.272-22.4-22.272 0 0 0 0 0 0h-207.829v-108.501c-0.229-8.582-5.197-15.952-12.373-19.61l-0.128-0.059c-3.031-1.534-6.608-2.433-10.396-2.433-0.080 0-0.161 0-0.241 0.001h0.012zM215.68 810.624v0-601.301l251.52-166.869v601.301l-251.52 166.869zM752.939 371.371c-0.088-0.001-0.192-0.002-0.296-0.002-6.107 0-11.647 2.425-15.71 6.365l0.006-0.006c-4.058 3.97-6.573 9.501-6.573 15.62 0 0.119 0.001 0.237 0.003 0.355v-0.018c-0.003 0.132-0.005 0.288-0.005 0.444 0 6.086 2.518 11.584 6.57 15.508l0.006 0.006 60.928 60.16h-209.579c-12.312 0-22.293 9.981-22.293 22.293s9.981 22.293 22.293 22.293h209.579l-60.928 60.117c-4.068 4.043-6.586 9.642-6.586 15.829s2.518 11.786 6.585 15.828l0.001 0.001c3.989 4.058 9.538 6.573 15.674 6.573 0.115 0 0.229-0.001 0.344-0.003h-0.017c0.084 0.001 0.183 0.002 0.282 0.002 6.096 0 11.604-2.517 15.542-6.567l0.005-0.005 101.419-100.949c2.723-3.599 4.361-8.149 4.361-13.082 0-6.303-2.674-11.981-6.95-15.962l-0.013-0.012-98.816-98.389c-3.973-4.082-9.521-6.614-15.66-6.614-0.075 0-0.149 0-0.223 0.001h0.011z" />
<glyph unicode="&#xe910;" glyph-name="fi-rs-follow" d="M981.333-64c-23.551 0.032-42.634 19.116-42.667 42.664v0.003c-0.075 86.919-35.54 165.539-92.762 222.241l-0.024 0.023c-56.554 57.389-135.005 93.066-221.79 93.468h-2.181c-86.859-0.416-165.306-36.090-221.83-93.431l-0.037-0.037c-57.246-56.726-92.711-135.346-92.786-222.251v-0.014c0-23.564-19.103-42.667-42.667-42.667v0c-23.551 0.032-42.634 19.116-42.667 42.664v0.003c0 0.020 0 0.043 0 0.066 0 84.842 26.639 163.462 72.009 227.953l-0.841-1.26c45.073 64.714 106.945 114.871 179.348 144.654l2.696 0.982c-45.331 40.753-73.767 99.526-73.955 164.944v0.034c0 122.534 99.333 221.867 221.867 221.867v0c122.534 0 221.867-99.333 221.867-221.867v0c-0.119-65.465-28.573-124.261-73.748-164.795l-0.207-0.183c75.098-30.767 136.969-80.924 181.174-144.317l0.871-1.319c44.424-63.168 70.997-141.687 70.997-226.412 0-0.122 0-0.244 0-0.366v0.019c-0.032-23.551-19.116-42.634-42.664-42.667h-0.003zM622.933 658.489c-76.95-0.065-139.313-62.428-139.378-139.372v-0.006c0.065-76.962 62.421-139.338 139.369-139.435h0.009c76.957 0.097 139.313 62.473 139.378 139.429v0.006c-0.097 76.937-62.44 139.281-139.368 139.378h-0.009zM42.667 162.133c-23.551 0.032-42.634 19.116-42.667 42.664v0.003c0 0.008 0 0.017 0 0.027 0 84.322 26.309 162.499 71.167 226.77l-0.852-1.289c44.533 64.453 105.638 114.562 177.218 144.697l2.665 0.996c-43.497 40.566-70.702 98.115-70.997 162.022v0.054c0 0.028 0 0.061 0 0.094 0 61.212 24.975 116.591 65.29 156.503l0.018 0.018c39.93 40.334 95.309 65.308 156.521 65.308 0.013 0 0.026 0 0.039 0h-0.002c101.126-0.485 186.312-68.172 213.225-160.671l0.393-1.577c-30.552-0.841-59.537-6.378-86.639-15.913l1.989 0.61c-19.108 53.943-69.564 91.94-128.933 92.217h-0.034c-37.659-0.036-71.714-15.434-96.243-40.264l-0.013-0.014c-24.844-24.542-40.242-58.597-40.277-96.249v-0.007c0.446-58.457 37.242-108.208 88.881-127.798l0.947-0.315c-10.7-28.568-16.946-61.579-17.067-96.033v-0.052c-144.266-31.468-250.843-157.7-251.733-308.979v-0.098c0 0 0 0 0 0 0-23.596-19.128-42.724-42.724-42.724-0.060 0-0.12 0-0.18 0h0.009zM896 704c-23.551 0.032-42.634 19.116-42.667 42.664v42.67h-42.667c-23.571 0.032-42.667 19.148-42.667 42.724 0 0 0 0 0 0v0c0.032 23.551 19.116 42.634 42.664 42.667h42.67v42.667c0 0 0 0 0 0 0 23.576 19.096 42.691 42.664 42.724h0.003c23.571-0.032 42.667-19.148 42.667-42.724 0 0 0 0 0 0v0-42.667h42.667c23.551-0.032 42.634-19.116 42.667-42.664v-0.003c0 0 0 0 0 0 0-23.576-19.096-42.691-42.664-42.724h-42.67v-42.667c-0.032-23.551-19.116-42.634-42.664-42.667h-0.003z" />
<glyph unicode="&#xe911;" glyph-name="fi-rs-following" horiz-adv-x="1093" d="M1011.111-23.195c0.223 3.475 0.349 7.535 0.349 11.625 0 101.926-78.774 185.454-178.762 193.024l-0.651 0.040c-30.473-0.123-58.915-8.709-83.129-23.528l0.703 0.4c22.39-52.61 35.406-113.806 35.406-178.043 0-0.216 0-0.431 0-0.647v0.033c0-22.508-18.246-40.754-40.754-40.754v0c-22.508 0-40.754 18.246-40.754 40.754v0c0 193.939-139.481 351.505-310.751 351.505s-310.751-157.922-310.751-351.505c0-22.508-18.246-40.754-40.754-40.754v0c-22.508 0-40.754 18.246-40.754 40.754v0c0 238.871 176.109 433.268 392.565 433.37 68.384-1.292 132.073-20.252 187.038-52.484l-1.81 0.981c55.385-32.482 100.648-76.621 133.495-129.301l0.943-1.622c34.383 20.224 75.695 32.262 119.8 32.501h0.068c145.731-7.719 260.975-127.765 260.975-274.728 0-4.123-0.091-8.225-0.27-12.304l0.020 0.581c0-22.508-18.246-40.754-40.754-40.754v0c-0.212-0.004-0.463-0.006-0.713-0.006-22.508 0-40.754 18.246-40.754 40.754 0 0.038 0 0.076 0 0.114v-0.006zM653.137 542.983c0.289 95.279 77.464 172.436 172.722 172.696h0.025c95.309-0.145 172.529-77.383 172.645-172.685v-0.011c-0.145-95.291-77.354-172.5-172.631-172.645h-0.014c-95.301 0.26-172.487 77.446-172.747 172.722v0.025zM734.645 542.983c0.087-50.278 40.851-91.006 91.134-91.035h0.003c50.232 0.087 90.926 40.799 90.984 91.029v0.006c-0.058 50.226-40.758 90.926-90.978 90.984h-4.794c-48.070-2.949-85.973-42.522-86.246-91.008v-0.027zM159.705 733.509c-0.001 0.236-0.001 0.514-0.001 0.793 0 62.309 25.315 118.706 66.22 159.466l0.007 0.007c40.751 40.912 97.134 66.227 159.43 66.227 0.258 0 0.516 0 0.774-0.001h-0.040c125.009-0.087 226.339-101.345 226.542-226.319v-0.019c0.001-0.231 0.001-0.503 0.001-0.776 0-62.283-25.316-118.652-66.219-159.38l-0.008-0.008c-40.751-40.912-97.134-66.227-159.43-66.227-0.258 0-0.516 0-0.774 0.001h0.040c-124.813 0.346-225.921 101.346-226.44 226.085v0.050zM241.214 733.509c0.174-79.841 64.88-144.511 144.717-144.626h0.011c79.919 0.145 144.664 64.907 144.779 144.819v0.011c-0.116 79.902-64.873 144.641-144.771 144.728h-0.008c-79.813-0.433-144.359-65.177-144.474-145.023v-0.011z" />
<glyph unicode="&#xe912;" glyph-name="fi-rs-full-screen" d="M640 64c-23.564 0-42.667 19.103-42.667 42.667v0c0 23.564 19.103 42.667 42.667 42.667v0h128c23.564 0 42.667 19.103 42.667 42.667v0 128c0 23.564 19.103 42.667 42.667 42.667v0c23.564 0 42.667-19.103 42.667-42.667v0-128c0-70.692-57.308-128-128-128v0zM256 64c-70.692 0-128 57.308-128 128v0 128c0 23.564 19.103 42.667 42.667 42.667v0c23.564 0 42.667-19.103 42.667-42.667v0-128c0-23.564 19.103-42.667 42.667-42.667v0h128c23.564 0 42.667-19.103 42.667-42.667v0c0-23.564-19.103-42.667-42.667-42.667v0zM810.667 576v128c0 23.564-19.103 42.667-42.667 42.667v0h-128c-23.564 0-42.667 19.103-42.667 42.667v0c0 23.564 19.103 42.667 42.667 42.667v0h128c70.692 0 128-57.308 128-128v0-128c0-23.564-19.103-42.667-42.667-42.667v0c-23.564 0-42.667 19.103-42.667 42.667v0zM128 576v128c0 70.692 57.308 128 128 128v0h128c23.564 0 42.667-19.103 42.667-42.667v0c0-23.564-19.103-42.667-42.667-42.667v0h-128c-23.564 0-42.667-19.103-42.667-42.667v0-128c0-23.564-19.103-42.667-42.667-42.667v0c-23.564 0-42.667 19.103-42.667 42.667v0z" />
<glyph unicode="&#xe913;" glyph-name="fi-rs-group" horiz-adv-x="1397" d="M1303.481-17.513c0.233 3.477 0.366 7.537 0.366 11.629 0 97.222-75.087 176.907-170.433 184.226l-0.628 0.039c-27.006-0.193-52.288-7.402-74.164-19.892l0.746 0.392c20.93-51.195 33.078-110.605 33.078-172.853 0-0.302 0-0.604-0.001-0.906v0.046c0-25.705-20.838-46.543-46.543-46.543v0c-25.705 0-46.543 20.838-46.543 46.543v0c0 188.295-134.991 341.389-300.992 341.389s-300.992-153.094-300.992-341.389c0-25.705-20.838-46.543-46.543-46.543v0c-25.716 0-46.567 20.831-46.599 46.54v0.003c0 0.116 0 0.254 0 0.391 0 62.408 12.147 121.978 34.206 176.476l-1.129-3.156c-21.112 12.1-46.375 19.31-73.307 19.5h-0.056c-96.003-7.36-171.113-87.069-171.113-184.321 0-4.072 0.132-8.112 0.391-12.119l-0.028 0.546c0-25.705-20.838-46.543-46.543-46.543v0c-25.705 0-46.543 20.838-46.543 46.543v0c-0.159 3.516-0.25 7.639-0.25 11.782 0 148.527 116.676 269.802 263.372 277.171l0.659 0.026c42.826-0.303 82.964-11.532 117.851-31.033l-1.242 0.638c67.883 106.366 184.413 176.463 317.468 178.792l0.343 0.005c133.363-2.34 249.856-72.439 316.777-177.253l0.922-1.543c33.665 18.852 73.819 30.079 116.57 30.395l0.095 0.001c147.36-7.426 264.028-128.713 264.028-277.25 0-4.125-0.090-8.229-0.268-12.311l0.020 0.581c0-25.705-20.838-46.543-46.543-46.543v0c-25.644 0.095-46.4 20.89-46.431 46.54v0.003zM949.744 541.728c0 97.666 79.174 176.841 176.841 176.841 0.020 0 0.039 0 0.059 0h-0.003c97.666 0 176.841-79.174 176.841-176.841v0c0-0.017 0-0.036 0-0.056 0-97.666-79.174-176.841-176.841-176.841v0c-0.017 0-0.036 0-0.056 0-97.666 0-176.841 79.174-176.841 176.841 0 0.020 0 0.039 0 0.059v-0.003zM1042.83 541.728c0-46.287 37.523-83.811 83.811-83.811v0c46.287 0 83.811 37.523 83.811 83.811v0c0 46.287-37.523 83.811-83.811 83.811v0c-46.287 0-83.811-37.523-83.811-83.811v0zM80.905 541.728c0.032 97.673 79.219 176.841 176.897 176.841v0c97.678 0 176.865-79.167 176.897-176.838v-0.003c0-97.697-79.199-176.897-176.897-176.897v0c-97.697 0-176.897 79.199-176.897 176.897v0zM174.047 541.728c0-46.287 37.523-83.811 83.811-83.811v0c46.287 0 83.811 37.523 83.811 83.811v0c0 46.287-37.523 83.811-83.811 83.811v0c-0.017 0-0.036 0-0.056 0-46.287 0-83.811-37.523-83.811-83.811v0zM462.244 729.967c0 127.013 102.964 229.977 229.977 229.977v0c127.013 0 229.977-102.964 229.977-229.977v0c0-0.017 0-0.036 0-0.056 0-127.013-102.964-229.977-229.977-229.977v0c-126.988 0.159-229.881 103.092-229.977 230.079v0.009zM555.386 729.967c0-75.594 61.25-136.883 136.829-136.947h0.006c75.61 0.032 136.891 61.333 136.891 136.947v0c-0.032 75.579-61.308 136.835-136.891 136.835v0c-75.525-0.095-136.732-61.263-136.891-136.764v-0.015z" />
<glyph unicode="&#xe914;" glyph-name="fi-rs-help" d="M42.667 448c0 259.206 210.128 469.333 469.333 469.333v0c259.206 0 469.333-210.128 469.333-469.333v0c-0.267-259.098-210.235-469.066-469.308-469.333h-0.026c-259.206 0-469.333 210.128-469.333 469.333v0zM120.875 448c0-216.013 175.113-391.125 391.125-391.125v0c215.994 0.025 391.083 175.128 391.083 391.125 0 0 0 0 0 0.001v-0.001c-0.243 215.891-175.191 390.84-391.059 391.083h-0.023c-215.998 0-391.101-175.089-391.125-391.081v-0.002zM469.333 149.333v110.933h85.333v-110.933zM469.333 296.875v25.6c-0.087 2.077-0.136 4.514-0.136 6.963 0 64.604 34.457 121.16 85.996 152.292l0.796 0.446c28.359 15.851 47.217 45.689 47.217 79.931 0 6.030-0.585 11.924-1.701 17.627l0.094-0.577c-7.478 36.867-36.102 65.418-72.412 72.691l-0.59 0.099c-4.978 0.963-10.703 1.514-16.557 1.514-22.244 0-42.63-7.954-58.469-21.173l0.146 0.118c-20.156-16.834-32.908-41.95-32.981-70.046v-0.013h-91.221c0.043 90.011 65.233 164.783 150.972 179.725l1.092 0.157c9.168 1.633 19.722 2.566 30.494 2.566 79.247 0 146.695-50.514 171.904-121.099l0.397-1.274c6.449-17.905 10.177-38.566 10.177-60.098 0-68.506-37.74-128.197-93.563-159.417l-0.924-0.475c-27.353-16.557-45.355-46.151-45.355-79.948 0-0.003 0-0.006 0-0.009v0-25.6z" />
<glyph unicode="&#xe915;" glyph-name="fi-rs-hide" d="M716.8 146.048l-18.005 18.133c-64.631-104.066-178.302-172.325-307.915-172.325-199.518 0-361.259 161.741-361.259 361.259 0 129.559 68.201 243.189 170.66 306.946l1.532 0.888-19.499 19.413-97.237 97.237 54.4 54.4 756.181-756.395-54.4-54.187zM298.667 447.915c0-117.821 95.513-213.333 213.333-213.333v0c34.267 0.152 66.552 8.493 95.044 23.164l-1.177-0.551-65.92 65.92c-8.308-1.966-17.866-3.128-27.684-3.2h-0.049c-70.692 0-128 57.308-128 128v0c0.119 9.966 1.294 19.593 3.419 28.858l-0.176-0.912-65.92 65.877c-14.151-27.294-22.57-59.542-22.869-93.728l-0.001-0.096zM710.101 370.048c9.549 23.038 15.136 49.786 15.232 77.829v0.038c0.001 0.278 0.002 0.607 0.002 0.937 0 117.302-95.092 212.395-212.395 212.395-28.371 0-55.443-5.563-80.184-15.657l1.419 0.512-92.16 91.947c50.565 18.899 108.993 29.845 169.975 29.867h0.009c46.994 30.672 104.524 48.916 166.316 48.916 169.662 0 307.2-137.538 307.2-307.2 0-111.892-59.821-209.812-149.225-263.523l-1.389-0.774zM504.917 575.232l6.997 0.64c70.692 0 128-57.308 128-128v0l-0.683-7.040z" />
<glyph unicode="&#xe916;" glyph-name="fi-rs-image-o" d="M784.469 21.675c-1.237 0-2.347-0.341-3.584-0.341h-537.685c-87.187 0-157.867 70.679-157.867 157.867v0 537.6c0 87.187 70.679 157.867 157.867 157.867h537.813c87.187 0 157.867-70.679 157.867-157.867v0-537.6c-0.236-82.939-64.568-150.778-146.055-156.6l-0.505-0.029c-1.717-0.569-3.708-0.964-5.769-1.105l-0.076-0.004c-0.718 0.013-1.409 0.090-2.079 0.226l0.073-0.012zM146.261 374.4v-195.285c0.049-53.447 43.363-96.762 96.806-96.811h469.679l-429.355 429.269zM612.992 268.16l184.235-184.235c45.895 8.106 80.336 47.6 80.512 95.17v36.84l-158.507 158.464zM740.992 439.083l136.917-136.917v414.763c-0.049 53.447-43.363 96.762-96.806 96.811h-537.903c-53.447-0.049-96.762-43.363-96.811-96.806v-256.261l115.627 115.584c5.521 5.483 13.127 8.872 21.525 8.872s16.005-3.389 21.527-8.873l265.001-264.915 127.744 127.744c5.517 5.508 13.134 8.915 21.546 8.917v0c8.387-0.038 15.969-3.456 21.461-8.959l0.001-0.001zM603.605 646.101c0 58.91 47.756 106.667 106.667 106.667v0c58.91 0 106.667-47.756 106.667-106.667v0c0-58.91-47.756-106.667-106.667-106.667v0c-0.051 0-0.111 0-0.171 0-58.895 0-106.642 47.732-106.667 106.622v0.002zM664.533 646.101c0.073-25.229 20.542-45.653 45.781-45.653 0 0 0 0 0 0v0c25.222 0 45.672 20.434 45.696 45.651v0.002c0 0.013 0 0.028 0 0.043 0 25.237-20.459 45.696-45.696 45.696v0c-0.051 0-0.111 0-0.171 0-25.284 0-45.781-20.497-45.781-45.781 0 0 0 0 0 0v0z" />
<glyph unicode="&#xe917;" glyph-name="fi-rs-image" d="M51.251-64.051c-0.868-0.056-1.882-0.087-2.903-0.087-26.722 0-48.384 21.662-48.384 48.384 0 1.021 0.032 2.035 0.094 3.041l-0.007-0.138v921.6c-0.056 0.868-0.087 1.882-0.087 2.903 0 26.722 21.662 48.384 48.384 48.384 1.021 0 2.035-0.032 3.041-0.094l-0.138 0.007h921.6c0.868 0.056 1.882 0.087 2.903 0.087 26.722 0 48.384-21.662 48.384-48.384 0-1.021-0.032-2.035-0.094-3.041l0.007 0.138v-921.6c0.058-0.884 0.091-1.917 0.091-2.958 0-26.693-21.639-48.333-48.333-48.333-1.041 0-2.074 0.033-3.098 0.098l0.14-0.007zM102.451 140.749l307.2 307.2 153.6-153.6 256 256 102.4-102.4v409.6h-819.2zM204.851 652.749c0 56.554 45.846 102.4 102.4 102.4v0c56.554 0 102.4-45.846 102.4-102.4v0c0-56.554-45.846-102.4-102.4-102.4v0c-56.554 0-102.4 45.846-102.4 102.4v0z" />
<glyph unicode="&#xe918;" glyph-name="fi-rs-link" d="M153.515 89.643c-102.187 100.907-82.731 252.928 13.568 349.056 8.599 8.615 20.488 13.945 33.621 13.945 26.235 0 47.503-21.268 47.503-47.503 0-13.102-5.304-24.964-13.882-33.558l0.001 0.001c-58.325-58.112-77.824-150.784-13.739-214.656 26.036-25.427 61.682-41.113 100.992-41.113s74.956 15.686 101.020 41.14l-0.028-0.027 134.315 134.144c25.456 25.833 41.175 61.321 41.175 100.48s-15.719 74.647-41.192 100.497l0.017-0.017c-9.35 8.711-15.18 21.095-15.18 34.841 0 26.274 21.299 47.573 47.573 47.573 13.618 0 25.9-5.722 34.572-14.893l0.021-0.022c42.598-43.128 68.909-102.427 68.909-167.872s-26.312-124.744-68.933-167.896l0.024 0.024q-67.371-66.987-134.571-133.973c-43.366-42.244-102.683-68.299-168.085-68.299s-124.719 26.054-168.138 68.349l0.052-0.051zM400.256 335.659c-42.621 43.094-68.95 102.376-68.95 167.808s26.329 124.714 68.971 167.83l-0.021-0.022 134.4 134.016c43.136 42.896 102.599 69.412 168.256 69.412s125.121-26.516 168.267-69.423l-0.011 0.011c101.504-100.48 81.835-253.739-14.251-349.312-8.517-8.148-20.090-13.163-32.833-13.163-26.25 0-47.531 21.28-47.531 47.531 0 12.723 4.999 24.278 13.139 32.808l-0.018-0.019c59.989 59.733 79.232 150.059 14.251 214.912-26.023 25.457-61.673 41.164-100.992 41.164s-74.969-15.707-101.018-41.19l0.026 0.026-134.315-134.144c-25.239-25.938-40.804-61.402-40.804-100.501s15.565-74.563 40.836-100.534l-0.032 0.033c8.596-8.633 13.911-20.539 13.911-33.687 0-13.020-5.211-24.822-13.662-33.435l0.007 0.008c-8.792-8.439-20.752-13.636-33.927-13.636-13.044 0-24.897 5.094-33.68 13.401l0.023-0.022z" />
<glyph unicode="&#xe919;" glyph-name="fi-rs-megaphone" d="M73.259 332.8l176.341-396.8h104.789c64.82 0.038 117.352 52.594 117.352 117.419 0 17.238-3.715 33.609-10.387 48.355l0.299-0.739-97.323 218.965h105.003c117.762-0.146 213.188-95.571 213.333-213.319v-0.014h85.333v853.333h-85.333c-0.146-117.762-95.571-213.188-213.319-213.333h-341.348c-70.692 0-128-57.308-128-128v0-170.667c0.206-50.607 29.748-94.265 72.493-114.867l0.766-0.333zM383.659 66.432c1.757-3.839 2.781-8.328 2.781-13.056 0-17.697-14.346-32.043-32.043-32.043-0.003 0-0.005 0-0.008 0h-49.322l-132.736 298.667h98.603zM85.333 618.667c0 23.564 19.103 42.667 42.667 42.667v0h341.333c0.003 0 0.007 0 0.010 0 83.63 0 159.201 34.501 213.259 90.045l0.065 0.067v-436.181c-54.112 55.586-129.661 90.069-213.264 90.069-0.025 0-0.049 0-0.074 0h-341.329c-23.564 0-42.667 19.103-42.667 42.667v0zM951.168 289.835l-97.835 97.621 60.331 60.331 97.621-97.621zM915.499 620.501l-60.331 60.331 96 96 60.331-60.331zM896 576h128v-85.333h-128z" />
<glyph unicode="&#xe91a;" glyph-name="fi-rs-mention" d="M542.891-21.333h-30.976c-259.206 0-469.333 210.128-469.333 469.333s210.128 469.333 469.333 469.333c259.206 0 469.333-210.128 469.333-469.333v0-170.368c0-0.073 0-0.159 0-0.245 0-84.148-68.215-152.363-152.363-152.363-77.556 0-141.578 57.947-151.132 132.907l-0.079 0.756-3.925 30.805-24.448-19.115c-37.404-29.828-85.301-47.94-137.42-48.17h-0.052c-0.025 0-0.055 0-0.085 0-124.725 0-225.835 101.11-225.835 225.835s101.11 225.835 225.835 225.835c124.725 0 225.835-101.11 225.835-225.835 0-0.015 0-0.030 0-0.045v0.003-170.368c0-50.121 40.631-90.752 90.752-90.752s90.752 40.631 90.752 90.752v0 170.368c0 224.943-182.353 407.296-407.296 407.296s-407.296-182.353-407.296-407.296c0-224.943 182.353-407.296 407.296-407.296 0.015 0 0.030 0 0.045 0h30.974v-61.909zM511.915 611.883c-0.038 0-0.083 0-0.128 0-90.533 0-163.925-73.392-163.925-163.925s73.392-163.925 163.925-163.925c90.518 0 163.901 73.368 163.925 163.88v0.002c-0.097 90.458-73.353 163.774-163.779 163.968h-0.019z" />
<glyph unicode="&#xe91b;" glyph-name="fi-rs-mute" horiz-adv-x="1288" d="M577.946-64c-11.974 0.025-22.97 4.189-31.639 11.137l0.1-0.078-315.802 252.672h-180.070c-27.869 0.029-50.454 22.614-50.483 50.48v395.574c0.029 27.869 22.614 50.454 50.48 50.483h180.073l315.802 252.672c8.582 6.881 19.598 11.047 31.588 11.059h131.843c27.869-0.029 50.454-22.614 50.483-50.48v-923.037c-0.029-27.869-22.614-50.454-50.48-50.483h-0.003zM100.966 300.698h147.302c11.974-0.025 22.97-4.189 31.639-11.137l-0.1 0.078 315.853-252.672h63.642v822.067h-63.642l-315.802-252.672c-8.582-6.881-19.598-11.047-31.588-11.059h-147.305zM937.83 280.218c-9.117 9.14-14.754 21.755-14.754 35.686s5.637 26.546 14.755 35.687l96.409 96.409-96.205 96.154c-9.117 9.14-14.754 21.755-14.754 35.686s5.637 26.546 14.755 35.687l-0.001-0.001c9.14 9.117 21.755 14.754 35.686 14.754s26.546-5.637 35.687-14.755l96.153-96.153 96.154 96.154c9.077 9.11 21.635 14.747 35.509 14.747 0.116 0 0.233 0 0.349-0.001h-0.018c0.098 0.001 0.215 0.001 0.331 0.001 13.874 0 26.432-5.637 35.508-14.745l0.001-0.001c9.11-9.077 14.747-21.635 14.747-35.509 0-0.116 0-0.233-0.001-0.349v0.018c0.001-0.098 0.001-0.215 0.001-0.331 0-13.874-5.637-26.432-14.745-35.508l-0.001-0.001-96.614-95.846 96.154-96.154c9.11-9.077 14.747-21.635 14.747-35.509 0-0.116 0-0.233-0.001-0.349v0.018c0.001-0.098 0.001-0.215 0.001-0.331 0-13.874-5.637-26.432-14.745-35.508l-0.001-0.001c-9.077-9.11-21.635-14.747-35.509-14.747-0.116 0-0.233 0-0.349 0.001h0.018c-0.092-0.001-0.201-0.001-0.31-0.001-13.881 0-26.445 5.636-35.529 14.745l-96.155 96.155-96.154-96.154c-9.108-9.111-21.693-14.746-35.593-14.746-0.087 0-0.173 0-0.26 0.001h0.013c-13.826 0.177-26.281 5.902-35.27 15.046l-0.007 0.007z" />
<glyph unicode="&#xe91c;" glyph-name="fi-rs-new-o" d="M512.085 21.419c-0.12-0.002-0.262-0.003-0.404-0.003-10.986 0-20.294 7.183-23.483 17.109l-0.048 0.175-51.2 149.76c-30.277 87.155-97.629 154.563-182.669 184.285l-2.077 0.632-150.016 50.773c-9.861 3.708-16.749 13.060-16.749 24.021s6.889 20.313 16.573 23.963l0.176 0.058 150.016 50.773c87.111 30.366 154.458 97.769 184.116 182.838l0.631 2.079 51.2 149.803c3.244 9.984 12.464 17.074 23.341 17.074 0.209 0 0.418-0.003 0.626-0.008l-0.031 0.001c0.113 0.002 0.246 0.003 0.379 0.003 10.931 0 20.209-7.075 23.506-16.895l0.051-0.175 50.731-149.803c30.397-87.137 97.781-154.52 182.836-184.283l2.081-0.634 150.016-50.773c9.861-3.708 16.749-13.060 16.749-24.021s-6.889-20.313-16.573-23.963l-0.176-0.058-150.016-50.773c-87.15-30.374-154.543-97.767-184.284-182.837l-0.633-2.081-50.731-149.76c-3.328-10.111-12.686-17.281-23.718-17.281-0.077 0-0.153 0-0.229 0.001h0.012zM512.085 770.645l-26.923-78.933c-35.56-102.053-114.457-180.977-214.054-215.834l-2.436-0.742-79.232-27.051 79.232-26.837c102.035-35.599 180.931-114.524 215.749-214.139l0.742-2.437 26.923-79.061 26.752 79.061c35.657 102.021 114.555 180.919 214.136 215.831l2.44 0.745 79.232 26.837-79.232 27.051c-102.021 35.657-180.919 114.555-215.831 214.136l-0.745 2.44zM804.181 130.859c-0.123-0.002-0.268-0.003-0.413-0.003-6.838 0-13.028 2.773-17.507 7.257v0l-68.267 68.011c-4.575 4.623-7.402 10.984-7.402 18.005s2.827 13.382 7.404 18.007l-0.002-0.002c4.537 4.485 10.777 7.256 17.664 7.256 0.12 0 0.239-0.001 0.359-0.003h-0.018c0.087 0.001 0.191 0.002 0.294 0.002 6.848 0 13.049-2.772 17.541-7.255v0l68.011-68.011c4.637-4.595 7.508-10.965 7.508-18.005s-2.871-13.411-7.506-18.003l-0.002-0.002c-4.487-4.526-10.705-7.331-17.577-7.339h-0.002zM220.032 130.859c-0.092-0.001-0.2-0.002-0.309-0.002-6.87 0-13.094 2.771-17.613 7.257l0.002-0.002c-4.575 4.623-7.402 10.984-7.402 18.005s2.827 13.382 7.404 18.007l-0.002-0.002 68.267 68.011c4.453 4.482 10.621 7.257 17.436 7.257 0.14 0 0.28-0.001 0.42-0.004h-0.021c13.877-0.337 24.997-11.666 24.997-25.593 0-6.857-2.696-13.085-7.087-17.681l0.009 0.010-68.011-68.011c-4.616-4.538-10.952-7.339-17.941-7.339-0.023 0-0.045 0-0.068 0h0.003zM736.299 647.125c-0.101-0.001-0.221-0.002-0.341-0.002-6.887 0-13.128 2.771-17.667 7.258l0.002-0.002c-4.575 4.623-7.402 10.984-7.402 18.005s2.827 13.382 7.404 18.007l-0.002-0.002 68.267 68.011c4.457 4.508 10.642 7.3 17.479 7.3 0.155 0 0.31-0.001 0.464-0.004h-0.023c0.070 0.001 0.152 0.001 0.234 0.001 6.875 0 13.098-2.789 17.6-7.297v0c4.585-4.579 7.443-10.888 7.509-17.865v-0.013c-0.022-6.997-2.89-13.32-7.507-17.875l-0.003-0.003-68.011-68.267c-4.529-4.636-10.843-7.51-17.829-7.51-0.077 0-0.154 0-0.231 0.001h0.012zM288.299 647.125c-0.119-0.002-0.258-0.003-0.399-0.003-6.815 0-12.983 2.774-17.435 7.255l-68.268 68.268c-4.624 4.474-7.498 10.732-7.509 17.662v0.002c0.006 7.067 2.875 13.462 7.509 18.090v0c4.528 4.509 10.774 7.297 17.671 7.297 0.087 0 0.175 0 0.262-0.001h-0.013c0.038 0 0.082 0 0.127 0 6.935 0 13.22-2.786 17.796-7.299l68.008-68.008c4.484-4.543 7.254-10.788 7.254-17.68 0-0.069 0-0.138-0.001-0.207v0.011c0.001-0.070 0.001-0.153 0.001-0.236 0-6.947-2.767-13.248-7.26-17.861l0.005 0.006c-4.574-4.651-10.93-7.537-17.96-7.552h-0.003z" />
<glyph unicode="&#xe91d;" glyph-name="fi-rs-new" horiz-adv-x="819" d="M119.962 62.464c-74.301 78.737-119.971 185.192-119.971 302.313 0 1.016 0.003 2.032 0.010 3.046l-0.001-0.156c0.096 24.663 1.805 48.833 5.026 72.522l-0.316-2.839 89.805-80.384c4.859-4.503 11.387-7.265 18.56-7.265s13.701 2.762 18.578 7.281l-0.018-0.016 129.485 119.398 129.638-119.091c4.888-4.566 11.473-7.37 18.714-7.37s13.825 2.804 18.729 7.385l-0.016-0.015 129.894 119.091 129.638-119.091c4.859-4.503 11.387-7.265 18.56-7.265s13.701 2.762 18.578 7.281l-0.018-0.016 89.754 80.384c2.914-21.006 4.588-45.293 4.608-69.967v-0.023c0.006-0.876 0.010-1.911 0.010-2.947 0-117.129-45.691-223.586-120.222-302.521l0.2 0.213c-72.348-77.874-175.321-126.441-289.638-126.441s-217.291 48.568-289.412 126.195l-0.226 0.247zM576.666 538.624c-4.879 4.589-11.467 7.408-18.714 7.408s-13.835-2.819-18.728-7.421l0.014 0.013-129.638-118.989-129.638 119.142c-4.879 4.589-11.467 7.408-18.714 7.408s-13.835-2.819-18.728-7.421l0.014 0.013-129.894-119.347-95.642 85.658c21.945 92.071 56.079 173.217 101.26 246.855l-2.085-3.655c34.439 58.271 77.068 107.653 127.010 148.414l0.99 0.783c44.547 37.514 102.11 60.862 165.076 62.508l0.351 0.007c63.242-1.711 120.723-25.050 165.629-62.849l-0.407 0.333c50.918-41.555 93.545-90.935 126.605-146.657l1.395-2.54c43.090-69.968 77.224-151.097 98.011-237.425l1.164-5.724-95.437-85.709z" />
<glyph unicode="&#xe91e;" glyph-name="fi-rs-notebook" horiz-adv-x="768" d="M682.667 874.667v85.333h-85.333v-85.333h-85.333v85.333h-85.333v-85.333h-85.333v85.333h-85.333v-85.333h-85.333v85.333h-85.333v-85.333h-85.333v-810.667c0-70.692 57.308-128 128-128v0h512c70.692 0 128 57.308 128 128v0 810.667zM682.667 64c0-23.564-19.103-42.667-42.667-42.667v0h-512c-23.564 0-42.667 19.103-42.667 42.667v0 725.333h597.333zM597.333 576h-426.667v85.333h426.667zM597.333 405.333h-426.667v85.333h426.667zM426.667 234.667h-256v85.333h256z" />
<glyph unicode="&#xe91f;" glyph-name="fi-rs-notification" d="M511.104 21.291c-66.158 0.218-121.667 45.551-137.385 106.833l-0.215 0.986-3.285 13.483h-219.776c-0.024 0-0.051 0-0.079 0-8.631 0-16.107 4.948-19.745 12.161l-0.058 0.127c-1.575 3.013-2.499 6.581-2.499 10.364 0 5.169 1.725 9.936 4.63 13.756l-0.041-0.056 62.848 84.437c32.852 44.142 52.631 99.708 52.736 159.89v145.732c0.058 66.47 24.418 127.24 64.675 173.913l-0.291-0.345c40.274 46.652 96.171 78.849 159.486 88.438l1.452 0.181 15.061 2.048v18.517c0 0 0 0 0 0 0 12.371 10.029 22.4 22.4 22.4s22.4-10.029 22.4-22.4v-18.517l15.275-2.048c64.736-9.835 120.601-42.016 160.614-88.285l0.282-0.334c40.002-46.251 64.386-106.973 64.427-173.389v-146.056c0.275-60.134 20.023-115.602 53.257-160.481l-0.521 0.737 62.848-84.437c2.878-3.754 4.612-8.518 4.612-13.687 0-3.791-0.933-7.363-2.581-10.501l0.059 0.124c-3.754-7.346-11.267-12.288-19.935-12.288-0.012 0-0.023 0-0.035 0h-219.731l-3.456-13.483c-15.756-62.313-71.276-107.711-137.417-107.819h-0.012zM411.605 142.592l15.403-26.496c16.972-29.462 48.235-49.011 84.076-49.152h0.020c35.886 0.274 67.158 19.769 84.058 48.687l0.251 0.465 15.061 26.496zM511.104 788.608c-120.527-0.533-218.027-98.362-218.027-218.963 0-0.166 0-0.331 0.001-0.497v0.026-145.877c-0.209-70.58-23.432-135.695-62.553-188.28l0.601 0.846-35.456-47.957h630.955l-35.456 47.744c-38.428 51.885-61.637 117.064-61.994 187.648v145.962c0 0.102 0 0.223 0 0.343 0 120.625-97.519 218.473-218.019 219.006h-0.051z" />
<glyph unicode="&#xe920;" glyph-name="fi-rs-pause" d="M610.475 64c-20.91 0-37.864 16.939-37.888 37.843v692.311c0.049 20.897 16.988 37.821 37.886 37.845h197.805c20.892-0.024 37.821-16.954 37.845-37.843v-692.311c-0.024-20.817-16.832-37.7-37.618-37.845h-0.014zM648.32 139.733h122.069v616.533h-122.069zM214.869 64c-20.892 0.024-37.821 16.954-37.845 37.843v692.311c0.024 20.892 16.954 37.821 37.843 37.845h197.805c20.882-0.048 37.797-16.963 37.845-37.841v-692.314c-0.048-20.882-16.963-37.797-37.841-37.845h-0.005zM252.715 139.733h122.069v616.533h-122.069z" />
<glyph unicode="&#xe921;" glyph-name="fi-rs-pending" horiz-adv-x="939" d="M511.943 149.333c0 117.821 95.513 213.333 213.333 213.333v0c117.821 0 213.333-95.513 213.333-213.333v0c-0.032-117.808-95.526-213.301-213.331-213.333h-0.003c-117.808 0.032-213.301 95.526-213.333 213.331v0.003zM693.305 117.305h159.972v64h-95.972v95.972h-64zM85.333 21.276c-47.128 0-85.333 38.205-85.333 85.333v0 768c0.193 47.050 38.283 85.14 85.315 85.333h597.351c47.050-0.193 85.14-38.283 85.333-85.315v-426.685h-42.667c-164.858-0.226-298.44-133.809-298.667-298.645v-128.022zM128 234.553h170.667v85.333h-170.667zM128 405.22h256v85.333h-256zM128 575.886h512v85.333h-512zM128 746.553h426.667v85.333h-426.667z" />
<glyph unicode="&#xe922;" glyph-name="fi-rs-play" horiz-adv-x="892" d="M866.97 491.622l-791.040 461.517c-7.29 4.326-16.069 6.882-25.446 6.882-27.881 0-50.483-22.602-50.483-50.483 0-0.008 0-0.015 0-0.023v0.001-923.085c0-0.006 0-0.014 0-0.022 0-27.881 22.602-50.483 50.483-50.483 9.377 0 18.157 2.557 25.681 7.011l-0.234-0.128 791.194 461.517c14.977 8.954 24.849 25.084 24.849 43.52s-9.872 34.566-24.619 43.392l-0.23 0.128zM100.813 74.342v747.52l640.512-373.76z" />
<glyph unicode="&#xe923;" glyph-name="fi-rs-profile" d="M42.667 448c0 259.206 210.128 469.333 469.333 469.333s469.333-210.128 469.333-469.333c0-259.206-210.128-469.333-469.333-469.333v0c-259.206 0-469.333 210.128-469.333 469.333v0zM93.867 448c0-230.929 187.205-418.133 418.133-418.133s418.133 187.205 418.133 418.133c0 230.929-187.205 418.133-418.133 418.133v0c-230.929 0-418.133-187.205-418.133-418.133v0zM271.616 180.096c-12.619 1.718-22.24 12.425-22.24 25.379 0 1.191 0.081 2.364 0.239 3.512l-0.015-0.133c12.785 94.497 73.844 172.24 157.137 208.405l1.711 0.662c-56.073 35.202-92.8 96.701-92.8 166.779 0 108.395 87.872 196.267 196.267 196.267s196.267-87.872 196.267-196.267c0-70.078-36.727-131.577-91.984-166.3l-0.816-0.479c85.069-36.789 146.192-114.54 158.866-207.696l0.153-1.371c0.141-1.008 0.221-2.173 0.221-3.357 0-13.013-9.71-23.759-22.279-25.387l-0.128-0.014c-0.682-0.062-1.474-0.097-2.276-0.097-13.195 0-24.151 9.583-26.289 22.169l-0.022 0.157c-13.831 105.663-103.3 186.403-211.627 186.403s-197.795-80.74-211.511-185.324l-0.116-1.079c-1.645-12.695-12.389-22.401-25.399-22.401-0.071 0-0.141 0-0.211 0.001h0.011c-1.109 0.011-2.189 0.088-3.249 0.228l0.135-0.015zM366.848 584.576c0-80.118 64.949-145.067 145.067-145.067s145.067 64.949 145.067 145.067c0 80.118-64.949 145.067-145.067 145.067v0c-80.009-0.266-144.788-65.090-144.981-145.091v-0.019z" />
<glyph unicode="&#xe924;" glyph-name="fi-rs-rec" d="M511.957-63.915c-282.609 0.34-511.617 229.347-511.957 511.924v0.033c0.34 282.609 229.347 511.617 511.924 511.957h0.033c282.609-0.34 511.617-229.347 511.957-511.924v-0.033c-0.34-282.609-229.347-511.617-511.924-511.957h-0.033zM511.957 874.674c-233.142-6.066-420.566-193.49-426.619-426.062l-0.012-0.569c6.066-233.142 193.49-420.566 426.062-426.619l0.569-0.012c233.16 6.021 420.61 193.47 426.62 426.065l0.012 0.566c-6.066 233.142-193.49 420.566-426.062 426.619l-0.569 0.012zM511.957 192.064c-141.373 0-255.979 114.606-255.979 255.979v0c0 141.373 114.606 255.979 255.979 255.979v0c141.373 0 255.979-114.606 255.979-255.979v0c0-141.373-114.606-255.979-255.979-255.979v0z" />
<glyph unicode="&#xe925;" glyph-name="fi-rs-report" d="M640 832c0 70.692-57.308 128-128 128v0h-512v-1024h85.35v469.35h341.299v-42.65c0-70.692 57.308-128 128-128v0h469.35v554.65h-384zM85.35 874.65h426.65c23.555 0 42.65-19.095 42.65-42.65v0-341.35h-469.299zM938.65 704v-384h-384c-23.555 0-42.65 19.095-42.65 42.65v42.65h128v298.701z" />
<glyph unicode="&#xe926;" glyph-name="fi-rs-resend" d="M236.757 779.904c-92.917-79.767-151.409-197.356-151.409-328.608 0-118.548 47.718-225.951 124.993-304.049l-0.038 0.038c76.953-77.77 183.701-125.928 301.696-125.928s224.742 48.158 301.659 125.891l0.037 0.037c77.302 78.116 125.059 185.6 125.059 304.238 0 91.688-28.524 176.713-77.183 246.686l0.935-1.42c-48.121 69.412-114.586 123.034-192.418 154.372l-2.868 1.020-37.888-97.749c121.514-48.18 205.879-164.698 205.879-300.921 0-178.31-144.549-322.859-322.859-322.859s-322.859 144.549-322.859 322.859c0 91.474 38.041 174.062 99.166 232.808l0.107 0.102 63.36-114.475 176.128 297.984-344.149 4.779z" />
<glyph unicode="&#xe927;" glyph-name="fi-rs-search" d="M879.445 31.531l-178.432 178.389c-64.693-54.033-148.743-86.841-240.455-86.841-207.836 0-376.32 168.484-376.32 376.32s168.484 376.32 376.32 376.32c207.836 0 376.32-168.484 376.32-376.32 0-91.713-32.808-175.763-87.327-241.054l0.486 0.599 178.389-178.347c6.829-6.353 11.087-15.39 11.087-25.421 0-19.158-15.53-34.688-34.688-34.688-10.010 0-19.030 4.24-25.362 11.023l-0.019 0.020zM154.667 498.901c0-169.238 137.194-306.432 306.432-306.432s306.432 137.194 306.432 306.432c0 169.223-137.17 306.408-306.387 306.432h-0.002c-169.168-0.194-306.256-137.267-306.475-306.411v-0.021z" />
<glyph unicode="&#xe928;" glyph-name="fi-rs-settings-f" d="M960.512 529.664l-107.691 26.496c-7.33 22.886-15.744 42.451-25.763 61.023l0.931-1.887 50.133 83.541c2.425 4.017 3.859 8.868 3.859 14.054 0 7.632-3.107 14.538-8.124 19.523l-0.001 0.001-77.653 77.781c-4.976 5.032-11.879 8.148-19.511 8.148-5.193 0-10.050-1.443-14.19-3.95l0.122 0.069-83.669-50.261c-16.583 9.007-36.036 17.349-56.289 23.916l-2.505 0.702-26.496 107.691c-3.084 12.053-13.847 20.821-26.659 20.821-0.003 0-0.005 0-0.008 0h-109.994c-0.002 0-0.005 0-0.008 0-12.812 0-23.575-8.768-26.618-20.631l-0.041-0.19s-18.347-75.136-26.453-107.648c-24.106-7.681-44.803-16.69-64.365-27.502l1.816 0.92-86.656 52.053c-4.016 2.418-8.865 3.848-14.047 3.848-7.632 0-14.54-3.102-19.531-8.114l-0.001-0.001-77.781-77.653c-5.019-4.987-8.126-11.893-8.126-19.525 0-5.186 1.435-10.037 3.928-14.178l-0.069 0.124 53.675-89.6c-7.711-14.772-15.055-32.306-20.969-50.485l-0.705-2.507-107.563-26.581c-12.053-3.084-20.821-13.847-20.821-26.659 0-0.003 0-0.005 0-0.008v0-109.995c0-0.002 0-0.005 0-0.008 0-12.812 8.768-23.575 20.631-26.618l0.19-0.041 107.691-26.496c7.421-23.237 15.995-43.128 26.229-61.987l-0.928 1.869-48-80.043c-2.425-4.017-3.859-8.868-3.859-14.054 0-7.632 3.107-14.538 8.124-19.523l0.001-0.001 77.653-77.781c4.997-5.007 11.906-8.104 19.538-8.104 5.179 0 10.024 1.426 14.166 3.907l-0.125-0.070 80.213 48.213c16.874-9.231 36.638-17.747 57.228-24.428l2.505-0.703 26.453-107.648c3.081-12.042 13.827-20.805 26.622-20.821h109.997c0.002 0 0.005 0 0.008 0 12.812 0 23.575 8.768 26.618 20.631l0.041 0.19 26.453 107.648c23.536 7.523 43.722 16.299 62.82 26.81l-1.807-0.912 81.493-48.896c4.017-2.425 8.868-3.859 14.054-3.859 7.632 0 14.538 3.107 19.523 8.124l77.782 77.782c5.019 4.987 8.126 11.893 8.126 19.525 0 5.186-1.435 10.037-3.928 14.178l0.069-0.124-49.451 82.347c8.808 16.287 16.992 35.416 23.45 55.321l0.699 2.492 107.691 26.496c11.974 3.126 20.672 13.835 20.693 26.579v109.998c0 0.002 0 0.005 0 0.008 0 12.812-8.768 23.575-20.631 26.618l-0.19 0.041zM512 255.488c-106.321 0-192.512 86.191-192.512 192.512s86.191 192.512 192.512 192.512c106.321 0 192.512-86.191 192.512-192.512v0c-0.121-106.273-86.239-192.391-192.5-192.512h-0.012z" />
<glyph unicode="&#xe929;" glyph-name="fi-rs-settings" d="M495.147-20.864c-11.264 0.299-22.016 0.597-31.488 0.299-41.415 2.569-74.031 36.786-74.031 78.62 0 7.026 0.92 13.837 2.646 20.319l-0.125-0.55c-2.992 12.335-11.564 22.199-22.826 26.913l-0.256 0.095c-4.408 1.835-9.529 2.9-14.899 2.9-7.614 0-14.728-2.142-20.772-5.857l0.172 0.099c-14.213-23.14-39.384-38.339-68.104-38.339-19.941 0-38.171 7.327-52.144 19.437l0.099-0.084c-22.571 28.245-93.867 75.008-88.235 117.803 2.453 28.9 17.575 53.831 39.724 69.476l0.297 0.199c3.581 5.791 5.702 12.811 5.702 20.328 0 18.339-12.631 33.728-29.669 37.941l-0.269 0.056c-5.893-1.582-12.658-2.491-19.635-2.491-41.798 0-75.98 32.612-78.487 73.78l-0.011 0.221v95.189c0 0.013 0 0.028 0 0.043 0 39.425 31.924 71.394 71.332 71.467h0.007c2.901 0 6.229 0 9.899 0 15.019-0.469 34.133-0.896 38.827 14.123 16.768 30.507 8.235 41.472-16.512 63.317-12.897 12.927-20.872 30.769-20.872 50.475s7.975 37.548 20.874 50.476l-0.001-0.001c56.661 56.789 112.853 137.557 187.435 48.469 5.883-3.629 13.013-5.779 20.646-5.779 5.352 0 10.457 1.057 15.118 2.974l-0.265-0.096c11.524 4.823 20.096 14.701 23.028 26.785l0.055 0.266c-1.602 5.931-2.522 12.741-2.522 19.766 0 41.826 32.621 76.034 73.809 78.569l0.223 0.011c9.088 0 19.413 0 30.421 0.469 59.435 1.792 135.595 3.499 136.533-72.021v-26.837c4.142-17.327 19.496-30.010 37.812-30.010 7.599 0 14.687 2.183 20.673 5.955l-0.161-0.094c74.069 89.088 131.584 7.893 187.733-48.469 12.179-13.827 19.613-32.090 19.613-52.088 0-28.786-15.401-53.975-38.412-67.776l-0.358-0.199c-3.544-5.776-5.643-12.769-5.643-20.253 0-18.303 12.554-33.674 29.522-37.971l0.271-0.058h27.008c89.6-1.237 70.229-107.52 71.595-166.869-0.146-39.43-32.144-71.339-71.594-71.339 0 0 0 0-0.001 0v0c-32.512 1.792-46.677 1.195-56.32-33.109-1.121-2.602-1.773-5.631-1.773-8.812 0-6.504 2.725-12.372 7.096-16.523l0.010-0.009c90.496-74.411 8.021-130.859-48.512-187.349-13.889-12-32.12-19.311-52.060-19.311-28.731 0-53.917 15.178-67.977 37.954l-0.197 0.344c-5.805 3.617-12.853 5.762-20.401 5.762-18.313 0-33.678-12.624-37.868-29.644l-0.056-0.268v-26.88c-0.981-64-55.765-72.277-108.672-72.277-9.301-0.043-18.347 0.256-27.051 0.469zM463.659 27.136h95.403c55.467 7.765-16.427 93.867 85.333 123.733 8.27 3.662 17.915 5.795 28.058 5.795 19.656 0 37.442-8.007 50.274-20.937l0.004-0.004c12.8-13.653 33.664-37.803 52.736-18.987l67.413 67.285c33.323 44.459-77.739 55.467-27.435 147.584 10.722 26.542 36.277 44.928 66.125 44.928 0.048 0 0.096 0 0.144 0h-0.007c18.901-0.64 51.2-3.371 50.901 23.851v95.189c-0.024 13.178-10.712 23.851-23.893 23.851-0.015 0-0.030 0-0.045 0h0.002c-5.554-1.325-11.931-2.085-18.485-2.085-32.75 0-61.069 18.971-74.568 46.524l-0.217 0.489c-7.272 12.216-11.57 26.937-11.57 42.662 0 29.767 15.403 55.936 38.673 70.972l0.332 0.201c4.332 4.312 7.013 10.28 7.013 16.875s-2.681 12.562-7.012 16.874l-0.001 0.001-67.413 67.243c-21.333 15.317-34.731-0.896-52.736-17.067-14.758-12.535-34.030-20.158-55.082-20.158-43.843 0-79.964 33.065-84.786 75.618l-0.036 0.391c0.768 18.859 3.413 51.2-23.765 50.859h-95.403c-55.083-7.723 16.427-93.867-85.333-123.733-8.271-3.656-17.916-5.784-28.059-5.784-19.688 0-37.504 8.019-50.358 20.969l-0.004 0.004c-12.8 13.653-33.749 37.803-52.736 18.944l-67.413-67.243c-33.237-44.501 77.909-55.467 27.435-147.584-10.589-26.527-36.063-44.93-65.835-44.93-0.18 0-0.36 0.001-0.539 0.002h0.028c-18.645 0.597-50.901 3.328-50.731-23.851v-95.189c0-0.013 0-0.028 0-0.043 0-13.134 10.635-23.784 23.763-23.808h27.010c43.651-4.276 77.482-40.79 77.482-85.204 0-20.767-7.396-39.806-19.697-54.627l0.114 0.141c-13.568-12.8-38.4-33.835-18.987-52.821l67.413-67.285c4.362-4.222 10.315-6.824 16.875-6.824s12.512 2.602 16.881 6.83l-0.007-0.006c15.892 22.424 40.845 37.525 69.41 39.955l0.35 0.024c139.563-18.816 54.997-123.093 112.981-129.621zM265.003 447.829c0 0.063 0 0.138 0 0.213 0 136.036 110.279 246.315 246.315 246.315s246.315-110.279 246.315-246.315c0-136.036-110.279-246.315-246.315-246.315v0c-136.006 0-246.266 110.23-246.315 246.225v0.004zM312.832 447.829c0-0.013 0-0.028 0-0.043 0-109.715 88.941-198.656 198.656-198.656s198.656 88.941 198.656 198.656c0 109.715-88.941 198.656-198.656 198.656-0.060 0-0.12 0-0.18 0h0.009c-0.025 0-0.055 0-0.085 0-109.573 0-198.4-88.827-198.4-198.4 0-0.030 0-0.060 0-0.090v0.005z" />
<glyph unicode="&#xe92a;" glyph-name="fi-rs-share" d="M951.467 568.235l-351.659 251.093c-11.009 7.932-24.768 12.686-39.637 12.686-37.663 0-68.202-30.499-68.267-68.146v-72.539c-109.451-2.859-208.267-46.158-282.536-115.434l0.254 0.234c-107.904-102.4-164.096-263.637-166.997-479.744 0.265-17.587 14.585-31.742 32.21-31.742 16.497 0 30.098 12.401 31.989 28.39l0.015 0.152c4.689 58.95 30.711 111.058 70.249 149.27l0.066 0.063c92.16 89.259 250.155 103.083 314.709 104.704v-85.333c0.186-37.562 30.678-67.94 68.266-67.94 14.87 0 28.629 4.754 39.841 12.825l-0.203-0.139 353.237 250.795c17.143 12.65 28.139 32.774 28.139 55.467s-10.996 42.816-27.951 55.334l-0.188 0.133z" />
<glyph unicode="&#xe92b;" glyph-name="fi-rs-shield-exclamation" horiz-adv-x="851" d="M468.319 320.958h-85.149v425.744h85.149zM459.506-49.78c91.961 36.955 391.983 182.219 391.983 498.845v277.756c0 0.011 0 0.023 0 0.036 0 56.070-36.226 103.678-86.55 120.697l-0.898 0.264-338.296 112.184-338.296-112.184c-51.222-17.282-87.448-64.891-87.448-120.961 0-0.012 0-0.025 0-0.037v0.002-277.756c0-279.416 298.021-450.267 389.684-496.035l34.060-17.030zM737.219 767.010c17-5.786 29.029-21.571 29.121-40.179v-277.767c0-263.238-259.151-387.938-338.594-419.869-80.381 40.233-342.596 189.286-342.596 419.869v277.756c0.092 18.619 12.121 34.404 28.821 40.101l0.3 0.089 311.474 103.158zM468.319 235.809h-85.149v-85.149h85.149z" />
<glyph unicode="&#xe92c;" glyph-name="fi-rs-spinner-alt" d="M554.667 789.333h-85.333v170.667h85.333zM554.667 106.667h-85.333v-170.667h85.333zM170.667 490.667h-170.667v-85.333h170.667zM1024 490.667h-170.667v-85.333h170.667zM976 227.627l-147.541 85.76-42.923-73.771 147.541-85.76zM806.016 869.291l-73.771 42.667-85.76-147.584 73.771-42.667zM976.341 668.757l-43.008 73.899-147.413-85.888 43.008-73.771zM807.168 27.136l-86.101 147.456-73.728-43.008 85.888-147.456zM238.933 239.616l-42.667 73.771-147.584-85.76 42.667-73.771zM378.027 764.416l-85.589 147.712-73.728-42.667 85.76-147.584zM238.933 656.768l-147.584 85.888-43.008-73.728 147.456-85.931zM377.216 131.584l-73.771 43.008-85.845-147.456 73.728-43.008z" />
<glyph unicode="&#xe92d;" glyph-name="fi-rs-stats" d="M768-64.114v1024h256v-1024zM383.943-64.114v512h256v-512zM0-64.114v768h256v-768z" />
<glyph unicode="&#xe92e;" glyph-name="fi-rs-top-o" horiz-adv-x="1466" d="M1460.148-64l-1460.148 1.075v786.773h456.122v236.152h554.224v-460.421h456.059v-563.516h-6.321zM1010.473 39.159h358.084v358.274h-358.084zM554.351 39.159h358.147v818.947h-358.147zM98.291 39.159h357.958v583.174h-357.958zM707.951 395.093v263.585h-73.956v121.237h190.515v-384.695h-6.321z" />
<glyph unicode="&#xe92f;" glyph-name="fi-rs-top" horiz-adv-x="1472" d="M1472 38.144v460.8h-420.8v-460.8h-98.048v921.6h-427.136v-921.6h-97.856v685.76h-428.16v-787.968h1472zM651.584 762.368h160.448v-323.84h-98.048v221.76h-62.4z" />
<glyph unicode="&#xe930;" glyph-name="fi-rs-trend-o" d="M42.837 448.043c0 259.206 210.128 469.333 469.333 469.333s469.333-210.128 469.333-469.333c0-259.206-210.128-469.333-469.333-469.333v0c-259.098 0.267-469.066 210.235-469.333 469.308v0.026zM212.181 748.501c-77.062-76.897-124.737-183.217-124.737-300.672 0-234.581 190.166-424.747 424.747-424.747s424.747 190.166 424.747 424.747c0 234.581-190.166 424.747-424.747 424.747-0.037 0-0.075 0-0.112 0h0.006c-0.069 0-0.151 0-0.232 0-117.077 0-223.065-47.483-299.754-124.243l-0.003-0.003zM597.163 331.264l-185.899 185.856-186.069-185.856c-3.95-4.108-9.493-6.661-15.632-6.661-0.159 0-0.318 0.002-0.477 0.005h0.024c-12.307 0.261-22.198 10.242-22.315 22.559v0.011c0.005 6.159 2.553 11.722 6.65 15.696l0.006 0.005 201.899 201.984c3.991 4.271 9.631 6.958 15.9 7.040h0.015c6.243-0.084 11.864-2.681 15.91-6.822l186.159-186.116 147.499 147.797h-89.6c-0.064-0.001-0.14-0.001-0.215-0.001-12.29 0-22.273 9.879-22.441 22.129v0.016c0.024 12.529 10.138 22.687 22.647 22.784h143.924c12.402-0.144 22.4-10.232 22.4-22.655 0-0.046 0-0.091 0-0.136v0.007-143.787c0-12.383-10.038-22.421-22.421-22.421s-22.421 10.038-22.421 22.421v0 89.6l-163.669-163.499c-3.983-4.107-9.553-6.656-15.718-6.656-0.009 0-0.018 0-0.027 0h0.001c-0.084-0.001-0.183-0.002-0.282-0.002-6.209 0-11.836 2.493-15.934 6.532l0.003-0.003z" />
<glyph unicode="&#xe931;" glyph-name="fi-rs-trend" horiz-adv-x="712" d="M577.67 694.072c-5.485 8.745-15.073 14.475-25.999 14.475-2.917 0-5.738-0.408-8.41-1.171l0.216 0.053c-12.873-3.555-22.183-15.127-22.261-28.886v-0.009c0-37.178-30.139-67.317-67.317-67.317s-67.317 30.139-67.317 67.317v0 251.459c-0.041 12.492-7.708 23.184-18.589 27.664l-0.2 0.073c-3.412 1.424-7.376 2.251-11.534 2.251-8.421 0-16.049-3.393-21.593-8.887l0.002 0.002c-59.904-61.485-114.728-128.565-163.401-200.163l-3.288-5.127c-42.396-60.881-80.889-130.38-112.045-203.748l-2.866-7.596c-31.928-72.785-51.275-157.471-53.059-246.467l-0.011-0.673c1.61-194.376 159.556-351.327 354.159-351.327 0.708 0 1.416 0.002 2.123 0.006l-0.109-0.001c0.598-0.004 1.306-0.006 2.015-0.006 194.603 0 352.548 156.95 354.158 351.173l0.001 0.153c-7.314 152.555-56.596 292.275-136.448 409.503l1.769-2.753zM559.104 295.112c0-16.794-13.614-30.408-30.408-30.408s-30.408 13.614-30.408 30.408v0 56.097l-151.374-149.37c-5.537-5.43-13.129-8.782-21.504-8.782s-15.967 3.351-21.509 8.786l0.005-0.005-70.701 69.677-47.594-46.926c-5.537-5.43-13.129-8.782-21.504-8.782s-15.967 3.351-21.509 8.786l0.005-0.005c-5.504 5.395-8.916 12.906-8.916 21.215s3.412 15.82 8.911 21.21l0.005 0.005 69.098 68.163c5.537 5.43 13.129 8.782 21.504 8.782s15.967-3.351 21.509-8.786l-0.005 0.005 70.611-69.721 129.959 128.178h-56.899c-16.573 0-30.008 13.435-30.008 30.008s13.435 30.008 30.008 30.008v0h130.315c0.053 0 0.116 0.001 0.179 0.001 16.618 0 30.104-13.408 30.229-29.996v-128.546z" />
<glyph unicode="&#xe932;" glyph-name="fi-rs-verified" d="M916.437 539.648c-12.315 8.299-22.946 17.778-32.165 28.505l-0.176 0.21c0.766 16.288 4.065 31.579 9.512 45.807l-0.339-1.007c7.643 15.561 12.114 33.868 12.114 53.22 0 20.597-5.064 40.011-14.015 57.065l0.323-0.675c-22.623 22.585-53.857 36.552-88.352 36.552-5.826 0-11.56-0.398-17.174-1.17l0.651 0.073c-1.839-0.078-3.997-0.123-6.165-0.123-13.714 0-27.011 1.788-39.669 5.145l1.077-0.243c-7.585 11.656-13.803 25.122-17.954 39.466l-0.265 1.068c-11.947 33.92-26.88 76.117-66.773 89.045-5.984 1.043-12.875 1.64-19.905 1.64-32.699 0-62.384-12.902-84.243-33.892l0.041 0.039c-11.707-9.375-25.251-17.121-39.908-22.582l-1.010-0.33c-15.683 5.782-29.243 13.53-41.25 23.136l0.29-0.224c-21.835 20.947-51.533 33.844-84.244 33.844-7.015 0-13.891-0.593-20.582-1.732l0.719 0.101c-39.893-12.8-54.784-55.083-66.773-89.003-4.41-15.347-10.553-28.753-18.375-40.981l0.37 0.618c-11.599-3.2-24.917-5.039-38.664-5.039-2.218 0-4.425 0.048-6.619 0.143l0.313-0.011c-4.963 0.698-10.696 1.096-16.523 1.096-34.496 0-65.729-13.967-88.354-36.554l0.002 0.002c-8.625-16.38-13.687-35.795-13.687-56.391 0-19.351 4.468-37.658 12.43-53.946l-0.321 0.727c5.038-13.115 8.357-28.286 9.241-44.108l0.018-0.394c-9.365-11.113-20.034-20.697-31.88-28.667l-0.547-0.347c-28.971-22.059-64.939-49.408-64.939-91.691s35.968-69.632 64.896-91.605c12.315-8.299 22.946-17.778 32.165-28.505l0.176-0.21c-0.766-16.288-4.065-31.579-9.512-45.807l0.339 1.007c-7.656-15.572-12.134-33.895-12.134-53.263 0-20.58 5.056-39.979 13.993-57.023l-0.323 0.676c22.623-22.585 53.857-36.552 88.352-36.552 5.826 0 11.56 0.398 17.174 1.17l-0.651-0.073c1.839 0.078 3.997 0.123 6.165 0.123 13.714 0 27.011-1.788 39.669-5.145l-1.077 0.243c7.585-11.656 13.803-25.122 17.954-39.466l0.265-1.068c11.989-34.133 26.88-76.117 66.773-89.045 6.534-2.213 14.061-3.493 21.885-3.499h0.003c31.701 3.804 59.855 16.651 82.44 35.853l-0.221-0.183c11.729 9.429 25.301 17.219 39.994 22.71l1.008 0.33c15.683-5.782 29.242-13.53 41.25-23.136l-0.29 0.224c21.841-20.945 51.544-33.841 84.258-33.841 7.010 0 13.882 0.592 20.568 1.729l-0.719-0.101c39.893 12.8 54.784 55.083 66.773 89.003 4.41 15.347 10.553 28.753 18.375 40.981l-0.37-0.618c11.599 3.2 24.917 5.039 38.664 5.039 2.218 0 4.425-0.048 6.619-0.143l-0.313 0.011c4.963-0.698 10.696-1.096 16.523-1.096 34.496 0 65.729 13.967 88.354 36.554l-0.002-0.002c8.625 16.38 13.687 35.795 13.687 56.391 0 19.351-4.468 37.658-12.43 53.946l0.321-0.727c-5.038 13.115-8.357 28.286-9.241 44.108l-0.018 0.394c9.365 11.113 20.034 20.697 31.88 28.667l0.547 0.347c28.928 21.931 64.896 49.28 64.896 91.605s-35.968 69.632-64.896 91.605zM686.336 517.845l-195.669-194.603c-7.096-7.1-16.902-11.492-27.733-11.492s-20.637 4.392-27.733 11.492v0l-97.536 97.237c-7.258 7.062-11.761 16.924-11.761 27.838 0 10.618 4.262 20.24 11.168 27.249l-0.005-0.005c7.134 7.296 17.076 11.82 28.075 11.82 10.659 0 20.326-4.249 27.4-11.145l0.675-0.675 70.144-69.803 167.893 167.168c7.134 7.296 17.076 11.82 28.075 11.82 10.659 0 20.326-4.249 27.4-11.145l-0.008 0.008c7.284-7.066 11.805-16.945 11.805-27.88 0-10.597-4.245-20.202-11.128-27.208l0.006 0.006z" />
<glyph unicode="&#xe933;" glyph-name="fi-rs-video" d="M178.688 202.624c-51.49 0.169-93.185 41.864-93.355 93.338v314.64c0.169 51.49 41.864 93.185 93.338 93.355h389.349c0.102 0 0.222 0.001 0.342 0.001 51.37 0 93.013-41.643 93.013-93.013 0-0.12 0-0.24-0.001-0.361v0.019-314.624c-0.169-51.49-41.864-93.185-93.338-93.355h-0.016zM854.656 261.461l-146.603 84.011v216.576l145.621 84.011c4.562 2.965 9.89 5.227 15.598 6.47l0.316 0.058c3.871 0.952 8.316 1.498 12.888 1.498 30.856 0 55.902-24.87 56.19-55.657v-288.496c-0.032-10.3-2.799-19.948-7.613-28.263l0.146 0.273c-9.8-16.918-27.765-28.149-48.364-28.288h-0.020c-10.399 0.042-20.113 2.939-28.409 7.947l0.249-0.139z" />
<glyph unicode="&#xe934;" glyph-name="fi-rs-view" d="M42.496 426.667c-22.054 54.59-34.849 117.897-34.849 184.192 0 278.458 225.734 504.192 504.192 504.192s504.192-225.734 504.192-504.192c0-278.458-225.734-504.192-504.192-504.192-0.003 0-0.007 0-0.010 0h0.001c-212.127 0.105-393.631 131.105-468.129 316.605l-1.204 3.395zM298.496 426.667c0-117.821 95.513-213.333 213.333-213.333s213.333 95.513 213.333 213.333c0 117.821-95.513 213.333-213.333 213.333v0c-117.821 0-213.333-95.513-213.333-213.333v0zM383.829 426.667c0 70.692 57.308 128 128 128s128-57.308 128-128c0-70.692-57.308-128-128-128v0c-70.692 0-128 57.308-128 128v0z" />
<glyph unicode="&#xe935;" glyph-name="fi-rs-volume" d="M463.957 85.589c-8.731 0.018-16.749 3.054-23.070 8.121l0.073-0.057-230.4 184.192h-131.285c-20.303 0.024-36.754 16.476-36.779 36.776v288.343c0.024 20.303 16.476 36.754 36.776 36.779h131.288l230.4 184.192c6.248 5.010 14.266 8.046 22.993 8.064h96.132c20.321 0 36.797-16.461 36.821-36.776v-672.855c-0.024-20.318-16.5-36.779-36.821-36.779v0zM116.267 351.403h107.392c8.731-0.018 16.749-3.054 23.070-8.121l-0.073 0.057 230.4-184.192h46.421v599.253h-46.421l-230.4-184.192c-6.248-5.010-14.266-8.046-22.993-8.064h-107.396zM879.616 227.669c-8.637 4.501-15.139 12.1-18.104 21.288l-0.072 0.259c-1.112 3.34-1.753 7.185-1.753 11.18 0 6.175 1.533 11.993 4.238 17.093l-0.096-0.198c27.691 52.263 43.949 114.252 43.949 180.038 0 0.455-0.001 0.91-0.002 1.365v-0.070c0.001 0.341 0.002 0.745 0.002 1.15 0 63.681-15.212 123.809-42.201 176.949l1.026-2.227c-2.437 4.757-3.864 10.377-3.864 16.331 0 4.204 0.712 8.242 2.022 12l-0.078-0.256c3.16 9.404 9.758 16.932 18.266 21.237l0.209 0.096c4.76 2.438 10.382 3.872 16.338 3.883h0.004c0.008 0 0.018 0 0.027 0 4.204 0 8.244-0.703 12.008-1.998l-0.26 0.078c9.417-3.156 16.952-9.775 21.238-18.307l0.096-0.21c30.726-60.309 48.728-131.528 48.728-206.951 0-0.564-0.001-1.127-0.003-1.691v0.087c0.001-0.39 0.002-0.851 0.002-1.312 0-78.126-19.303-151.744-53.401-216.345l1.218 2.531c-4.458-8.584-11.976-15.062-21.075-18.060l-0.258-0.074c-3.353-1.108-7.212-1.748-11.221-1.749h-0.001c-0.062 0-0.134-0.001-0.207-0.001-6.144 0-11.934 1.515-17.017 4.193l0.2-0.096zM715.52 410.709v96.128c0.024 20.303 16.476 36.754 36.776 36.779h0.002c20.303-0.024 36.754-16.476 36.779-36.776v-96.13c-0.024-20.303-16.476-36.754-36.776-36.779h-0.002c-20.303 0.024-36.754 16.476-36.779 36.776v0.002z" />
<glyph unicode="&#xe936;" glyph-name="fi-rs-warning" d="M42.752 12.203l469.333 871.595 469.333-871.595zM120.107 58.411h784.043l-391.936 728.021zM489.003 189.099c0 0.013 0 0.028 0 0.043 0 12.772 10.354 23.125 23.125 23.125s23.125-10.354 23.125-23.125c0-12.742-10.305-23.077-23.035-23.125h-0.005c-0.038 0-0.083 0-0.128 0-12.78 0-23.144 10.349-23.168 23.123v0.002zM489.003 281.344v307.627h46.208v-307.627z" />
<glyph unicode="&#xe937;" glyph-name="fi-rs-comment-o-1" d="M505.6 823.467c-4.186 0.139-9.106 0.218-14.046 0.218-97.74 0-188.238-31.004-262.196-83.715l1.383 0.937c-62.818-45.758-103.249-118.973-103.509-201.644v-0.041c-0.247-4.187-0.388-9.084-0.388-14.014 0-67.13 26.131-128.158 68.776-173.465l-0.121 0.129c55.467-55.467 144.299-84.864 257.536-84.864 15.403 0 30.976 0.811 47.573 2.432l56.235 5.547v-172.16c45.095 23.876 82.859 47.149 119.031 72.537l-3.533-2.35c83.84 58.624 189.269 152.704 215.424 267.861l0.427 1.749c5.415 19.698 8.528 42.316 8.533 65.661v0.003c0 173.867-175.488 315.264-391.168 315.264zM505.557 874.752c244.309 0 442.368-164.096 442.368-366.507-0.029-28.003-3.795-55.114-10.827-80.877l0.502 2.157c-57.899-254.976-432.043-408.107-432.043-408.107v197.077c-17.067-1.707-34.773-2.688-52.565-2.688-244.309 0-377.941 125.184-377.003 323.669s185.301 335.189 429.611 335.189z" />
<glyph unicode="&#xe938;" glyph-name="fi-rs-friends-o" d="M838.613 119.765c0.163 2.491 0.256 5.402 0.256 8.333 0 71.598-55.371 130.264-125.628 135.511l-0.452 0.027c-21.421-0.083-41.415-6.118-58.435-16.537l0.494 0.281c15.731-36.97 24.875-79.974 24.875-125.114 0-0.16 0-0.319 0-0.479v0.025c-0.024-15.84-12.871-28.672-28.715-28.672v0c-15.825 0.024-28.648 12.847-28.672 28.67v0.002c0 136.277-98.133 247.211-218.453 247.211s-218.496-110.933-218.496-247.125c0 0 0 0 0 0 0-15.829-12.807-28.666-28.625-28.715h-0.005c0 0 0 0 0 0-15.867 0-28.733 12.851-28.757 28.712v0.002c0 167.893 123.733 304.512 275.883 304.555 48.058-0.904 92.818-14.224 131.449-36.871l-1.273 0.69c38.922-22.832 70.727-53.86 93.802-90.891l0.662-1.141c24.172 14.212 53.215 22.668 84.221 22.826h0.046c102.392-5.34 183.393-89.663 183.393-192.905 0-2.953-0.066-5.89-0.197-8.811l0.015 0.415c-0.024-15.864-12.89-28.715-28.757-28.715 0 0 0 0 0 0v0c-15.822 0.049-28.629 12.886-28.629 28.715 0 0 0 0 0 0v0zM586.88 517.675c0.073 67.026 54.4 121.338 121.425 121.387h0.005c66.992-0.097 121.271-54.391 121.344-121.38v-0.007c-0.097-66.977-54.367-121.247-121.335-121.344h-0.009c-66.905 0.218-121.084 54.396-121.301 121.281v0.021zM644.224 517.675c0-35.346 28.654-64 64-64v0c35.346 0 64 28.654 64 64v0c0 35.346-28.654 64-64 64v0h-3.371c-33.808-2.124-60.442-29.992-60.587-64.114v-0.014zM240.171 651.563c-0.001 0.158-0.001 0.346-0.001 0.533 0 43.788 17.794 83.42 46.545 112.059l0.005 0.005c28.653 28.807 68.319 46.635 112.149 46.635 0.143 0 0.286 0 0.428-0.001h-0.022c87.844-0.073 159.044-71.228 159.189-159.048v-0.014c0.001-0.157 0.001-0.344 0.001-0.53 0-43.791-17.83-83.417-46.627-112.016l-0.009-0.009c-28.607-28.805-68.234-46.636-112.025-46.636-0.186 0-0.373 0-0.559 0.001h0.029c-87.616 0.362-158.547 71.279-158.933 158.854v0.037zM297.557 651.563c0.121-56.111 45.6-101.559 101.71-101.632h0.007c56.176 0.097 101.687 45.623 101.76 101.796v0.007c-0.073 56.163-45.594 101.669-101.755 101.717h-0.005c-56.13-0.291-101.523-45.848-101.547-102.014v-0.002z" />
<glyph unicode="&#xe939;" glyph-name="fi-rs-scheduled" d="M540.006 177.971c0.233 133.572 108.451 241.79 242 242.022h0.022c133.63-0.087 241.935-108.392 242.022-242.014v-0.009c0-0.015 0-0.033 0-0.051 0-133.637-108.334-241.971-241.971-241.971-0.018 0-0.036 0-0.054 0h0.003c-133.63 0.087-241.935 108.392-242.022 242.014v0.009zM620.032 177.971c0.203-89.386 72.61-161.793 161.977-161.997h0.020c89.433 0.087 161.909 72.563 161.997 161.988v0.009c-0.116 89.421-72.575 161.88-161.986 161.997h-0.011c-89.419-0.174-161.867-72.586-162.099-161.975v-0.022zM160.051-64.051c-88.307 0.146-159.855 71.693-160 159.986v623.988c0.146 88.307 71.693 159.855 159.986 160h50.036v39.987c0.087 22.049 17.938 39.9 39.979 39.987h0.008c22.049-0.087 39.9-17.938 39.987-39.979v-39.995h180.019v39.987c0.087 22.049 17.938 39.9 39.979 39.987h0.008c22.049-0.087 39.9-17.938 39.987-39.979v-39.995h182.016v39.987c0.087 22.049 17.938 39.9 39.979 39.987h0.008c22.049-0.087 39.9-17.938 39.987-39.979v-39.995h52.019c88.354-0.029 159.971-71.646 160-159.997v-227.997c-0.087-22.049-17.938-39.9-39.979-39.987h-0.008c-22.049 0.087-39.9 17.938-39.987 39.979v228.002c-0.145 44.11-35.864 79.829-79.96 79.974h-52.033v-39.987c-0.087-22.049-17.938-39.9-39.979-39.987h-0.008c-22.049 0.087-39.9 17.938-39.987 39.979v39.995h-182.016v-39.987c-0.087-22.049-17.938-39.9-39.979-39.987h-0.008c-22.049 0.087-39.9 17.938-39.987 39.979v39.995h-180.019v-39.987c-0.087-22.049-17.938-39.9-39.979-39.987h-0.008c-22.049 0.087-39.9 17.938-39.987 39.979v39.995h-50.022c-44.128-0.145-79.858-35.893-79.974-80.014v-624.037c0.116-44.15 35.876-79.909 80.015-80.026h306.033c22.049-0.087 39.9-17.938 39.987-39.979v-0.008c-0.087-22.049-17.938-39.9-39.979-39.987h-0.008zM782.029 137.933c-22.049 0.087-39.9 17.938-39.987 39.979v81.928c0.087 22.049 17.938 39.9 39.979 39.987h0.008c22.049-0.087 39.9-17.938 39.987-39.979v-41.992h18.022c22.049-0.087 39.9-17.938 39.987-39.979v-0.008c-0.087-22.049-17.938-39.9-39.979-39.987h-0.008zM384.051 191.949c0.087 22.049 17.938 39.9 39.979 39.987h0.008c22.049-0.087 39.9-17.938 39.987-39.979v-0.008c-0.087-22.049-17.938-39.9-39.979-39.987h-0.008c-22.089 0.058-39.98 17.949-40.038 40.033v0.006zM209.971 191.949c0.087 22.049 17.938 39.9 39.979 39.987h0.008c22.049-0.087 39.9-17.938 39.987-39.979v-0.008c-0.087-22.049-17.938-39.9-39.979-39.987h-0.008c-22.045 0.116-39.878 17.985-39.936 40.033v0.006zM384.051 366.029c0.087 22.049 17.938 39.9 39.979 39.987h0.008c22.049-0.087 39.9-17.938 39.987-39.979v-0.008c-0.087-22.049-17.938-39.9-39.979-39.987h-0.008c-22.053 0.058-39.922 17.891-40.038 39.925v0.011zM209.971 366.029c0.087 22.049 17.938 39.9 39.979 39.987h0.008c22.049-0.087 39.9-17.938 39.987-39.979v-0.008c-0.087-22.049-17.938-39.9-39.979-39.987h-0.008c-22.009 0.116-39.82 17.927-39.936 39.925v0.011zM558.131 540.109c0.087 22.049 17.938 39.9 39.979 39.987h0.008c22.049-0.087 39.9-17.938 39.987-39.979v-0.008c-0.087-22.049-17.938-39.9-39.979-39.987h-0.008c-22.040 0.028-39.916 17.814-40.089 39.817v0.017zM384.051 540.109c0.087 22.049 17.938 39.9 39.979 39.987h0.008c22.049-0.087 39.9-17.938 39.987-39.979v-0.008c-0.087-22.049-17.938-39.9-39.979-39.987h-0.008c-22.018 0.057-39.865 17.832-40.038 39.817v0.017zM209.971 540.109c0.087 22.049 17.938 39.9 39.979 39.987h0.008c22.049-0.087 39.9-17.938 39.987-39.979v-0.008c-0.087-22.049-17.938-39.9-39.979-39.987h-0.008c-21.974 0.115-39.763 17.868-39.936 39.817v0.016z" />
<glyph unicode="&#xe93a;" glyph-name="fi-rs-copy" d="M806.016 832h-354.133c-49.631-0.121-89.826-40.346-89.899-89.977v-90.034h60.032v90.027c0 16.495 13.372 29.867 29.867 29.867h354.133c16.495 0 29.867-13.372 29.867-29.867v0-347.989c0-16.495-13.372-29.867-29.867-29.867h-84.011v-59.989h84.011c49.608 0.072 89.814 40.219 89.984 89.797v348.048c-0.073 49.667-40.316 89.911-89.977 89.984h-0.007zM571.989 592h-354.133c-49.612-0.145-89.783-40.361-89.856-89.977v-347.996c0.049-49.686 40.301-89.954 89.977-90.027h354.14c49.667 0.073 89.911 40.316 89.984 89.977v348.039c-0.073 49.712-40.389 89.984-90.112 89.984 0 0 0 0 0 0v0zM601.856 153.984c0-16.495-13.372-29.867-29.867-29.867v0h-354.133c-16.495 0-29.867 13.372-29.867 29.867v0 348.032c0 16.495 13.372 29.867 29.867 29.867v0h354.133c16.495 0 29.867-13.372 29.867-29.867v0z" />
<glyph unicode="&#xe93b;" glyph-name="fi-rs-star" horiz-adv-x="1075" d="M1073.534 571.521c-3.298 9.46-11.476 16.413-21.44 17.897l-0.147 0.018-338.766 49.803-151.647 306.788c-4.939 8.434-13.956 14.008-24.274 14.008s-19.335-5.574-24.203-13.876l-0.072-0.132-151.199-306.788-338.318-49.444c-13.163-1.883-23.169-13.081-23.169-26.616 0-7.588 3.145-14.442 8.203-19.328l0.008-0.007 244.624-238.892-57.864-337.512c-0.264-1.415-0.415-3.043-0.415-4.706 0-14.841 12.031-26.872 26.872-26.872 4.646 0 9.016 1.179 12.828 3.254l-0.141-0.070 302.936 159.261 302.936-159.261c3.696-2.038 8.101-3.237 12.786-3.237 14.841 0 26.872 12.031 26.872 26.872 0 1.682-0.155 3.329-0.45 4.925l0.025-0.166-57.864 337.422 245.072 238.892c4.978 4.881 8.063 11.676 8.063 19.192 0 3.002-0.492 5.89-1.401 8.586l0.055-0.189z" />
<glyph unicode="&#xe93c;" glyph-name="fi-rs-world" d="M542.016 178.24c60.878-1.717 119.046-8.626 175.465-20.316l-6.441 1.116c-10.664-33.111-22.155-60.935-35.532-87.651l1.612 3.555c-19.74-42.129-46.276-77.879-78.589-107.415l-0.259-0.233c-15.707-13.883-34.491-24.69-55.165-31.253l-1.091-0.299zM425.728-32.448c-32.566 29.773-59.102 65.522-77.977 105.591l-0.871 2.057c-11.776 23.171-23.267 50.996-32.69 79.758l-1.23 4.338c49.978 10.573 108.146 17.482 167.622 19.169l1.402 0.031v-242.24c-21.752 6.785-40.538 17.507-56.432 31.447l0.176-0.151zM730.816 48.192c13.611 26.805 26.739 58.859 37.387 92.025l1.333 4.807c45.894-12.742 85.655-28.65 123.158-48.284l-3.414 1.628c-4.736-5.184-9.6-10.368-14.592-15.36-55.045-55.625-122.725-98.635-198.389-124.378l-3.595-1.062c21.788 26.349 41.123 56.101 56.854 87.951l1.194 2.673zM149.376 83.008c-4.992 4.992-9.856 10.176-14.592 15.36 34.087 18 73.847 33.907 115.372 45.604l4.372 1.052c12.004-37.993 25.131-70.046 40.508-100.778l-1.788 3.946c16.958-34.521 36.313-64.271 58.732-91.396l-0.62 0.772c-79.3 26.871-147.003 69.966-201.997 125.644l-0.051 0.052zM785.728 203.072c15.698 63.879 25.582 137.712 27.369 213.548l0.023 1.236h211.2c-5.815-102.691-40.928-196.17-97.027-273.42l1.027 1.484c-40.856 22.635-88.234 42.135-137.953 56.030l-4.703 1.122zM0.064 417.856h211.2c1.81-77.072 11.694-150.905 28.844-221.903l-1.452 7.119c-54.308-15.048-101.576-34.544-145.792-58.897l3.456 1.745c-55.212 75.733-90.455 169.205-96.32 270.557l-0.064 1.379zM542.080 238.656v179.2h211.2c-1.756-71.963-10.99-140.862-26.961-207.134l1.361 6.686c-55.034 11.933-118.932 19.611-184.324 21.285l-1.34 0.027zM271.040 417.856h211.2v-179.2c-66.696-1.68-130.577-9.336-192.436-22.463l6.836 1.215c-14.645 59.587-23.902 128.482-25.641 199.243l-0.023 1.205zM813.12 478.208c-1.801 77.045-11.686 150.856-28.843 221.829l1.451-7.109c54.343 15.151 101.603 34.641 145.86 58.923l-3.524-1.771c55.061-75.749 90.172-169.204 95.938-270.512l0.062-1.36zM542.080 478.208v179.2c66.698 1.682 130.578 9.338 192.437 22.463l-6.837-1.215c14.615-59.59 23.849-128.488 25.577-199.248l0.023-1.2zM271.040 478.208c1.735 71.951 10.97 140.85 26.959 207.116l-1.359-6.668c55.023-11.912 118.904-19.568 184.275-21.222l1.325-0.026v-179.2zM0.064 478.208c5.821 102.67 40.933 196.126 97.026 273.355l-1.026-1.483c40.731-22.504 87.99-41.993 137.551-55.997l4.785-1.155c-15.706-63.864-25.591-137.675-27.369-213.491l-0.023-1.229zM542.080 959.936c21.785-6.784 40.582-17.602 56.409-31.686l-0.153 0.134c32.56-29.721 59.078-65.432 77.917-105.47l0.867-2.050c11.723-23.107 23.212-50.908 32.666-79.633l1.254-4.399c-50.001-10.608-108.172-17.518-167.658-19.17l-1.366-0.030zM313.024 736.832c10.709 33.125 22.197 60.926 35.55 87.633l-1.63-3.601c19.726 42.091 46.264 77.802 78.584 107.283l0.264 0.237c15.671 13.955 34.47 24.774 55.183 31.262l1.073 0.29v-242.048c-60.829 1.609-119.035 8.454-175.481 20.112l6.393-1.104zM730.88 847.936c-16.927 34.474-36.283 64.184-58.719 91.25l0.607-0.754c79.267-26.751 146.954-69.745 201.939-125.33l0.045-0.046c4.992-5.056 9.856-10.176 14.592-15.36-34.059-17.954-73.813-33.879-115.314-45.646l-4.43-1.074c-12.024 38.048-25.194 70.165-40.63 100.948l1.782-3.924zM134.848 797.696q7.168 7.808 14.592 15.36c55.031 55.629 122.718 98.623 198.395 124.318l3.589 1.058c-21.82-26.313-41.176-56.023-56.922-87.837l-1.19-2.659c-13.602-26.845-26.731-58.965-37.382-92.193l-1.338-4.831c-45.979 12.879-85.773 28.846-123.335 48.498l3.463-1.65z" />
<glyph unicode="&#xe93d;" glyph-name="fi-rs-add" d="M729.515 21.376h-435.2c-115.464 0-209.067 93.602-209.067 209.067v0 435.2c0 115.464 93.602 209.067 209.067 209.067v0h435.413c115.464 0 209.067-93.602 209.067-209.067v0-435.2c0-115.464-93.602-209.067-209.067-209.067-0.075 0-0.15 0-0.225 0h0.012zM294.101 831.104c-91.321-0.024-165.358-73.987-165.504-165.277v-435.214c0.121-91.348 74.153-165.364 165.495-165.461h435.423c91.298 0.146 165.261 74.154 165.333 165.454v435.207c-0.097 91.263-74.067 165.218-165.326 165.291h-0.007zM533.504 188.885h-43.605v230.699h-230.741v43.435h230.741v230.699h43.605v-230.699h230.955v-43.435h-230.955v-230.656z" />
<glyph unicode="&#xe93e;" glyph-name="fi-rs-tiktok" horiz-adv-x="900" d="M899.171 703.595c-0.134 0-0.293 0-0.451 0-58.663 0-112.753 19.577-156.095 52.554l0.634-0.463c-62.342 47.189-102.384 121.007-103.056 204.206l-0.001 0.109h-167.203v-707.093c0-0.097 0-0.213 0-0.328 0-83.723-67.871-151.594-151.594-151.594s-151.594 67.871-151.594 151.594c0 83.723 67.871 151.594 151.594 151.594 17.038 0 33.419-2.811 48.705-7.994l-1.068 0.314v169.767c-14.492 2.261-31.206 3.553-48.222 3.554v0c-0.296 0.001-0.646 0.002-0.997 0.002-95.321 0-180.926-41.6-239.65-107.636l-0.284-0.325c-49.494-55.29-79.751-128.702-79.751-209.18 0-87.702 35.932-167.012 93.877-224.012l0.043-0.042c9.272-9.152 19.13-17.783 29.483-25.804l0.746-0.556c53.488-41.448 121.541-66.442 195.432-66.442 0.387 0 0.774 0.001 1.16 0.002h-0.060c17.016 0 33.73 1.292 50.050 3.783l-1.828-0.23c70.238 10.597 131.573 42.714 178.513 89.311l-0.019-0.019c57.796 56.676 93.692 135.502 93.925 222.713v0.044l-1.035 373.856c70.74-54.941 160.798-88.078 258.594-88.078 0.226 0 0.453 0 0.679 0.001h-0.035v166.438h-0.495z" />
<glyph unicode="&#xe93f;" glyph-name="fi-rs-fb" d="M967.68 960h-911.36c-31.105 0-56.32-25.215-56.32-56.32v0-911.36c0-31.105 25.215-56.32 56.32-56.32v0h490.496v396.032h-133.12v154.982h133.12v114.074c-0.594 5.583-0.933 12.060-0.933 18.617 0 102.815 83.348 186.163 186.163 186.163 4.761 0 9.48-0.179 14.15-0.53l-0.622 0.038c1.149 0.004 2.51 0.007 3.871 0.007 40.64 0 80.763-2.216 120.254-6.533l-4.88 0.433v-138.24h-81.203c-64.205 0-76.8-30.72-76.8-75.264v-98.765h153.6l-20.019-154.982h-133.376v-396.032h260.659c31.105 0 56.32 25.215 56.32 56.32v0 0 911.36c0 31.105-25.215 56.32-56.32 56.32v0z" />
<glyph unicode="&#xe940;" glyph-name="fi-rs-ig" d="M336.085 23.765c-37.4 0.817-72.875 8.023-105.713 20.565l2.161-0.725c-29.541 11.351-54.726 28.078-75.494 49.168l-0.026 0.027c-21.185 20.831-37.958 46.076-48.835 74.254l-0.488 1.437c-11.88 30.679-19.093 66.163-19.835 103.235l-0.005 0.317c-2.005 45.483-2.517 59.989-2.517 175.872s0.512 130.389 2.688 176.085c0.765 37.391 7.976 72.873 20.562 105.693l-0.722-2.141c11.353 29.555 28.079 54.754 49.169 75.538l0.025 0.025c20.801 21.232 46.057 38.013 74.263 48.841l1.427 0.482c30.666 11.853 66.131 19.063 103.179 19.835l0.33 0.005c45.525 2.005 60.032 2.517 175.915 2.517s130.389-0.512 176.043-2.688c37.384-0.736 72.87-7.934 105.689-20.517l-2.137 0.72c29.542-11.328 54.729-28.043 75.494-49.126l0.026-0.026c21.232-20.809 38.024-46.061 48.881-74.261l0.484-1.43c11.881-30.679 19.094-66.164 19.835-103.236l0.005-0.316c2.005-45.525 2.176-60.032 2.176-175.915s-0.512-130.389-2.517-175.872c-0.766-37.391-7.977-72.873-20.562-105.694l0.722 2.142c-22.666-57.543-67.352-102.243-123.407-124.412l-1.479-0.516c-30.678-11.835-66.156-19.044-103.213-19.834l-0.339-0.006c-45.525-2.005-60.032-2.517-175.915-2.517s-130.347 0.469-175.872 2.475zM340.096 794.752c-28.527-0.358-55.694-5.725-80.81-15.26l1.62 0.54c-19.213-7.218-35.584-18.060-48.998-31.803l-0.026-0.027c-13.913-13.378-24.827-29.767-31.706-48.128l-0.294-0.896c-9.020-23.499-14.377-50.674-14.676-79.062l-0.001-0.128c-2.005-44.8-2.517-58.496-2.517-172.373s0.469-127.36 2.517-172.373c0.327-28.519 5.682-55.691 15.216-80.805l-0.538 1.615c7.243-19.211 18.097-35.58 31.845-48.998l0.027-0.026c13.414-13.809 29.794-24.66 48.118-31.532l0.906-0.298c23.498-9.017 50.673-14.374 79.060-14.676l0.129-0.001c44.843-2.005 58.539-2.517 172.416-2.517s127.403 0.512 172.416 2.517c28.518 0.318 55.691 5.673 80.801 15.215l-1.612-0.538c37.36 14.691 66.376 43.707 80.733 80.108l0.333 0.959c9.015 23.498 14.372 50.673 14.676 79.059l0.001 0.13c2.005 45.013 2.517 58.368 2.517 172.203s-0.512 127.36-2.517 172.373c-0.318 28.518-5.673 55.691-15.215 80.801l0.538-1.612c-7.247 19.21-18.101 35.578-31.846 48.998l-0.026 0.026c-13.414 13.809-29.794 24.66-48.118 31.532l-0.906 0.298c-23.495 9.017-50.666 14.387-79.048 14.719l-0.141 0.001c-44.843 1.963-58.325 2.517-172.416 2.517s-127.445-0.597-172.459-2.56zM292.907 447.915c0.024 121.086 98.177 219.24 219.261 219.264h0.003c121.068-0.049 219.197-98.193 219.221-219.262v-0.002c-0.024-121.071-98.153-219.215-219.217-219.264h-0.005c-121.026 0.024-219.142 98.080-219.264 219.081v0.012zM369.92 447.915c0.024-78.53 63.678-142.184 142.206-142.208h0.002c78.539 0 142.208 63.669 142.208 142.208v0c-0.024 78.538-63.673 142.202-142.203 142.251h-0.005c-78.55-0.049-142.208-63.737-142.208-142.293 0-0.045 0-0.090 0-0.135v0.007zM688.896 675.84c0 28.277 22.923 51.2 51.2 51.2v0c28.277 0 51.2-22.923 51.2-51.2v0c0-28.277-22.923-51.2-51.2-51.2v0c-28.277 0-51.2 22.923-51.2 51.2v0z" />
<glyph unicode="&#xe941;" glyph-name="fi-rs-comment-active" horiz-adv-x="962" d="M802.439-61.44l-329.187 120.199h-173.738c-165.35 0.208-299.332 134.207-299.514 299.543v302.137c0 0.183-0.001 0.4-0.001 0.617 0 82.515 33.578 157.188 87.815 211.1l0.015 0.014c53.926 54.252 128.599 87.829 211.114 87.829 0.201 0 0.402 0 0.603-0.001h362.577c165.359-0.208 299.352-134.201 299.56-299.54v-302.186c-0.162-99.826-49.105-188.186-124.26-242.537l-0.877-0.604 22.632-129.069c0.405-2.212 0.636-4.757 0.636-7.356 0-13.128-5.905-24.876-15.203-32.735l-0.063-0.052c-7.372-6.189-16.961-9.953-27.429-9.967h-0.003c-0.013 0-0.028 0-0.044 0-5.253 0-10.283 0.956-14.925 2.702l0.292-0.096z" />
<glyph unicode="&#xe942;" glyph-name="fi-rs-tw" horiz-adv-x="1260" d="M396.269-64c1.408-0.010 3.073-0.015 4.74-0.015 403.609 0 730.799 327.19 730.799 730.799 0 1.666-0.006 3.332-0.017 4.995l0.001-0.255q0 16.758-0.756 33.39c50.777 37.030 93.567 81.384 127.775 132.013l1.186 1.862c-43.222-19.703-93.36-34.033-145.942-40.451l-2.486-0.247c53.333 32.432 93.42 82.118 112.877 141.176l0.523 1.834c-47.252-28.612-102.247-50.462-160.838-62.43l-3.34-0.57c-47.263 50.459-114.302 81.9-188.685 81.9-0.111 0-0.222 0-0.332 0h0.017c-142.655 0-258.3-115.645-258.3-258.3v0c0-0.181-0.001-0.396-0.001-0.61 0-20.697 2.434-40.825 7.032-60.114l-0.353 1.757c-215.224 11.158-404.529 113.418-531.501 268.647l-1.037 1.307c-21.979-37.163-34.965-81.899-34.965-129.669 0-0.106 0-0.211 0-0.317v0.017c0-0.064 0-0.139 0-0.215 0-89.262 45.277-167.948 114.118-214.346l0.92-0.584c-43.176 1.352-83.314 13.17-118.33 32.983l1.276-0.664c0-1.071 0-2.142 0-3.276 0-0.067 0-0.147 0-0.227 0-124.617 88.248-228.622 205.66-252.932l1.673-0.29c-20.343-5.746-43.707-9.057-67.843-9.072h-0.008c-17.188 0.010-33.973 1.707-50.208 4.933l1.635-0.271c34.019-103.517 128.843-177.347 241.222-179.546l0.257-0.004c-87.248-68.967-198.844-110.629-320.17-110.629-0.397 0-0.794 0-1.191 0.001h0.062c-0.092 0-0.202 0-0.311 0-21.625 0-42.945 1.305-63.886 3.84l2.521-0.249c111.797-72.808 248.606-116.109 395.529-116.109 0.26 0 0.52 0 0.78 0h-0.039z" />
<glyph unicode="&#xe943;" glyph-name="fi-rs-lock" horiz-adv-x="853" d="M128-64c-70.692 0-128 57.308-128 128v0 554.682h128v42.682c0 164.958 133.725 298.682 298.682 298.682v0c164.958 0 298.682-133.725 298.682-298.682v0-42.682h128v-554.682c0-70.692-57.308-128-128-128v0zM85.318 64c0-23.573 19.109-42.682 42.682-42.682v0h597.364c23.573 0 42.682 19.109 42.682 42.682v0 469.318h-682.682zM213.364 661.318v-42.682h426.682v42.682c0 117.838-95.526 213.364-213.364 213.364v0c-117.812 0-213.318-95.506-213.318-213.318 0-0.016 0-0.033 0-0.049v0.003zM384 192v170.682h85.318v-170.682z" />
<glyph unicode="&#xe944;" glyph-name="fi-rs-dots" d="M423.637 446.507c0 47.128 38.205 85.333 85.333 85.333v0c47.128 0 85.333-38.205 85.333-85.333v0c0-47.128-38.205-85.333-85.333-85.333v0c-47.128 0-85.333 38.205-85.333 85.333v0zM661.333 448c0 47.128 38.205 85.333 85.333 85.333v0c47.128 0 85.333-38.205 85.333-85.333v0c0-47.128-38.205-85.333-85.333-85.333v0c-47.128 0-85.333 38.205-85.333 85.333v0zM192 448c0 47.128 38.205 85.333 85.333 85.333v0c47.128 0 85.333-38.205 85.333-85.333v0c0-47.128-38.205-85.333-85.333-85.333v0c-47.128 0-85.333 38.205-85.333 85.333v0z" />
<glyph unicode="&#xe945;" glyph-name="fi-rs-pie-chart" d="M725.461 21.248c-16.825 0-30.464 13.639-30.464 30.464v0 548.523c0 16.825 13.639 30.464 30.464 30.464v0h182.869c16.806-0.024 30.421-13.654 30.421-30.464v-548.523c0 0 0 0 0 0 0-16.81-13.615-30.44-30.419-30.464h-0.002zM420.651 21.248c0 0 0 0 0 0-16.801 0-30.421 13.62-30.421 30.421 0 0.015 0 0.030 0 0.045v-0.002 792.277c0 0.013 0 0.028 0 0.043 0 16.801 13.62 30.421 30.421 30.421h182.869c16.825 0 30.464-13.639 30.464-30.464v0-792.277c0-16.825-13.639-30.464-30.464-30.464v0zM116.011 21.248c-0.025 0-0.055 0-0.085 0-16.842 0-30.501 13.629-30.549 30.459v304.773c0.048 16.835 13.707 30.464 30.549 30.464 0.030 0 0.060 0 0.090 0h182.779c0 0 0 0 0 0 16.801 0 30.421-13.62 30.421-30.421 0-0.015 0-0.030 0-0.045v0.002-304.768c0-0.013 0-0.028 0-0.043 0-16.801-13.62-30.421-30.421-30.421v0z" />
<glyph unicode="&#xe946;" glyph-name="fi-rs-histogram" d="M213.333-64.114c-117.73 0.226-213.107 95.604-213.333 213.312v768.021c0 0 0 0 0 0 0 23.607 19.121 42.748 42.72 42.78h0.003c23.547-0.065 42.61-19.168 42.61-42.723 0-0.020 0-0.040 0-0.060v0.003-768c0.032-70.679 57.32-127.968 127.997-128h768.003c0 0 0 0 0 0 23.536 0 42.626-19.031 42.723-42.544v-0.009c0 0 0 0 0 0 0-23.607-19.121-42.748-42.72-42.78h-0.003zM853.22 149.22v426.667c0 23.627 19.153 42.78 42.78 42.78v0c23.547-0.065 42.61-19.168 42.61-42.723 0-0.020 0-0.040 0-0.060v0.003-426.667c-0.032-23.508-19.097-42.553-42.61-42.553 0 0 0 0 0 0v0c-23.515 0.065-42.553 19.142-42.553 42.667 0 0 0 0 0 0v0zM640 149.22v256c0 0.017 0 0.037 0 0.057 0 23.501 19.052 42.553 42.553 42.553 0.020 0 0.040 0 0.060 0h-0.003c0.017 0 0.037 0 0.057 0 23.501 0 42.553-19.052 42.553-42.553 0-0.020 0-0.040 0-0.060v0.003-256c0-0.017 0-0.037 0-0.057 0-23.47-19.026-42.496-42.496-42.496-0.040 0-0.080 0-0.12 0h0.006c-0.017 0-0.037 0-0.057 0-23.47 0-42.496 19.026-42.496 42.496 0 0.060 0 0.12 0 0.18v-0.009zM426.667 149.22v383.943c0 23.533 19.077 42.61 42.61 42.61v0c0.034 0 0.074 0 0.114 0 23.544 0 42.634-19.070 42.667-42.607v-383.946c-0.065-23.515-19.142-42.553-42.667-42.553-0.040 0-0.080 0-0.12 0h0.006c-23.484 0.065-42.496 19.117-42.496 42.61 0 0.020 0 0.040 0 0.060v-0.003zM213.333 149.22v298.667c0 0 0 0 0 0 0 23.556 19.063 42.659 42.604 42.723h0.006c23.583-0.032 42.691-19.141 42.724-42.72v-298.613c-0.032-23.508-19.097-42.553-42.61-42.553-0.040 0-0.080 0-0.12 0h0.006c-23.533 0-42.61 19.077-42.61 42.61v0zM216.519 602.169c-2.021 4.803-3.195 10.386-3.195 16.243 0 11.854 4.808 22.584 12.581 30.348v0l152.917 152.917c23.179 23.153 55.187 37.472 90.539 37.472s67.36-14.319 90.54-37.473l-0.001 0.001 92.558-92.786c7.762-7.662 18.432-12.395 30.208-12.395s22.446 4.733 30.213 12.399l238.303 238.359c7.698 7.734 18.351 12.52 30.123 12.52s22.425-4.786 30.121-12.519l0.002-0.002c7.758-7.719 12.559-18.403 12.559-30.208s-4.801-22.489-12.557-30.206l-238.31-238.196c-23.13-23.168-55.104-37.5-90.425-37.5s-67.295 14.332-90.423 37.498l-0.002 0.002-92.729 92.558c-7.838 7.492-18.484 12.104-30.208 12.104s-22.37-4.611-30.224-12.119l-152.958-152.958c-7.717-7.729-18.369-12.525-30.142-12.572h-0.009c-0.029 0-0.062 0-0.096 0-17.802 0-33.064 10.873-39.508 26.341l-0.104 0.283z" />
<glyph unicode="&#xe947;" glyph-name="fi-rs-add-friend" d="M682.724-21.39c-0.032 164.956-133.763 298.667-298.724 298.667-0.020 0-0.040 0-0.060 0h0.003c-164.949 0-298.667-133.718-298.667-298.667v0c-0.032-23.54-19.122-42.61-42.667-42.61 0 0 0 0 0 0v0c0 0 0 0 0 0-23.544 0-42.634 19.070-42.667 42.607v0.003c0.194 211.979 171.969 383.774 383.922 384h0.021c212.035-0.162 383.887-171.974 384.114-383.979v-0.021c-0.032-23.54-19.122-42.61-42.667-42.61 0 0 0 0 0 0v0c-0.017 0-0.037 0-0.057 0-23.501 0-42.553 19.052-42.553 42.553 0 0.020 0 0.040 0 0.060v-0.003zM810.724 319.943v85.333h-85.333c-0.017 0-0.037 0-0.057 0-23.533 0-42.61 19.077-42.61 42.61 0 0.080 0 0.16 0.001 0.24v-0.012c0 0.017 0 0.037 0 0.057 0 23.533 19.077 42.61 42.61 42.61 0.020 0 0.040 0 0.060 0h85.33v85.333c0 23.564 19.103 42.667 42.667 42.667v0c23.564 0 42.667-19.103 42.667-42.667v0-85.333h85.333c23.551-0.032 42.634-19.116 42.667-42.664v-0.003c0-0.034 0-0.074 0-0.114 0-23.576-19.096-42.691-42.664-42.724h-85.336v-85.333c0-23.564-19.103-42.667-42.667-42.667v0c-23.564 0-42.667 19.103-42.667 42.667v0zM128.057 704.057c0 141.385 114.615 256 256 256v0c141.385 0 256-114.615 256-256v0c0-141.385-114.615-256-256-256v0c-0.017 0-0.037 0-0.057 0-141.365 0-255.968 114.583-256 255.94v0.003zM213.39 704.057c0-94.257 76.41-170.667 170.667-170.667v0c94.257 0 170.667 76.41 170.667 170.667v0c0 94.257-76.41 170.667-170.667 170.667v0c-0.017 0-0.037 0-0.057 0-94.257 0-170.667-76.41-170.667-170.667 0-0.020 0-0.040 0-0.060v0.003z" />
<glyph unicode="&#xe948;" glyph-name="fi-rs-thick-add-friend" d="M120.875 21.333c-19.629 0-35.541 15.912-35.541 35.541v0c0.194 176.653 143.347 319.806 319.981 320h0.019c176.653-0.194 319.806-143.347 320-319.981v-0.019c0-19.629-15.912-35.541-35.541-35.541v0zM760.875 341.333v71.125h-71.125c-19.629 0-35.541 15.912-35.541 35.541v0c0 19.629 15.912 35.541 35.541 35.541v0h71.125v71.125c0 19.629 15.912 35.541 35.541 35.541v0c19.629 0 35.541-15.912 35.541-35.541v0-71.125h71.125c0.013 0 0.028 0 0.043 0 19.629 0 35.541-15.912 35.541-35.541v0c0-19.629-15.912-35.541-35.541-35.541v0h-71.125v-71.125c0-19.629-15.912-35.541-35.541-35.541v0c-0.013 0-0.028 0-0.043 0-19.629 0-35.541 15.912-35.541 35.541v0zM192 661.333c0 117.821 95.513 213.333 213.333 213.333v0c117.821 0 213.333-95.513 213.333-213.333v0c0-117.821-95.513-213.333-213.333-213.333v0c-117.821 0-213.333 95.513-213.333 213.333v0z" />
<glyph unicode="&#xe949;" glyph-name="fi-rs-thick-check" d="M808.405 789.333l-426.667-423.637-165.973 164.651-130.432-129.493 296.32-294.187 557.013 553.173z" />
<glyph unicode="&#xe94a;" glyph-name="fi-rs-thick-add" d="M621.722 539.443c-10.095 0-18.278 8.184-18.278 18.278v402.278h-182.886v-402.278c0-10.095-8.184-18.278-18.278-18.278h-402.278v-182.835h402.278c10.095 0 18.278-8.184 18.278-18.278v0-402.33h182.835v402.278c0 10.095 8.184 18.278 18.278 18.278v0h402.33v182.886z" />
<glyph unicode="&#xe94b;" glyph-name="fi-rs-pencil" horiz-adv-x="1025" d="M6.502-57.498c-4.011 4.035-6.489 9.596-6.489 15.736 0 1.903 0.238 3.75 0.686 5.513l-0.033-0.154 62.515 250.88c1.072 4.033 3.123 7.494 5.887 10.239l564.020 564.071 219.802-219.802-564.070-564.019c-2.747-2.75-6.21-4.785-10.085-5.802l-0.155-0.035-250.88-62.515c-1.531-0.404-3.293-0.646-5.108-0.665h-0.012c-0.088-0.001-0.192-0.002-0.296-0.002-6.166 0-11.747 2.506-15.78 6.555l-0.001 0.001zM695.859 851.661l76.8 76.8c20.37 19.457 48.031 31.432 78.49 31.432s58.12-11.975 78.533-31.473l-0.044 0.041 62.771-62.771c20.083-19.971 32.512-47.62 32.512-78.172 0-0.112 0-0.223 0-0.335v0.017c0-0.094 0-0.206 0-0.318 0-30.552-12.429-58.202-32.507-78.167l-76.805-76.805z" />
<glyph unicode="&#xe94c;" glyph-name="fi-rs-add-group-f" d="M777.173 78.293v78.080c0 0.021 0 0.046 0 0.071 0 45.036-11.869 87.3-32.649 123.834l0.649-1.239c9.651 2.53 20.771 4.075 32.221 4.265l0.12 0.002c84.762-5.146 152.527-71.44 159.953-155.082l0.047-0.651v-49.067zM85.333 78.293v49.067c7.223 84.112 74.66 150.372 158.652 155.708l0.495 0.025c12.141-0.044 23.899-1.597 35.122-4.482l-0.989 0.216c-19.643-35.007-31.339-76.775-31.658-121.248l-0.001-0.096v-79.403zM287.829 79.701v77.995c0.325 40.085 11.627 77.464 31.041 109.361l-0.535-0.945c41.676 63.908 112.263 105.936 192.759 107.431l0.222 0.003c80.223-1.212 150.522-42.605 191.801-104.903l0.541-0.868c19.524-31.327 31.159-69.329 31.317-110.037v-78.038zM772.48 339.968c-0.013 0-0.028 0-0.043 0-59.429 0-107.605 48.177-107.605 107.605 0 0.015 0 0.030 0 0.045v-0.002c-0.001 0.156-0.001 0.341-0.001 0.526 0 29.616 11.964 56.437 31.323 75.894l-0.005-0.005c19.536 19.539 46.519 31.632 76.325 31.659h0.005c1.757 0.102 3.811 0.159 5.88 0.159 39.141 0 73.443-20.717 92.539-51.784l0.269-0.471c9.656-15.937 15.37-35.194 15.37-55.787s-5.714-39.85-15.643-56.274l0.273 0.487c-19.262-31.52-53.45-52.261-92.488-52.352h-0.013c-2.219 0.256-4.181 0.256-6.187 0.256zM242.475 339.968c-59.433 0.049-107.599 48.215-107.648 107.643v0.005c-0.001 0.178-0.002 0.389-0.002 0.6 0 44.595 27.053 82.872 65.643 99.314l0.705 0.267c12.241 5.212 26.481 8.242 41.428 8.242 29.914 0 56.994-12.135 76.587-31.75l0.001-0.001c19.562-19.513 31.665-46.497 31.665-76.307 0-14.993-3.061-29.271-8.593-42.242l0.267 0.704c-16.643-39.383-54.95-66.517-99.595-66.517-0.026 0-0.053 0-0.079 0h0.004zM367.147 562.56c0 0.089 0 0.194 0 0.299 0 77.477 62.71 140.307 140.142 140.501h0.019c0.114 0 0.249 0.001 0.384 0.001 77.52 0 140.368-62.818 140.416-140.327v-0.005c0-0.038 0-0.083 0-0.128 0-77.526-62.847-140.373-140.373-140.373-0.045 0-0.090 0-0.135 0h0.007c-0.038 0-0.083 0-0.128 0-77.442 0-140.233 62.731-140.331 140.151v0.009zM768.213 664.235v68.224h-68.267c-18.851 0-34.133 15.282-34.133 34.133v0c0 18.851 15.282 34.133 34.133 34.133v0h68.267v68.267c0 18.851 15.282 34.133 34.133 34.133v0c18.851 0 34.133-15.282 34.133-34.133v0-68.267h68.011c18.851 0 34.133-15.282 34.133-34.133v0c0-18.851-15.282-34.133-34.133-34.133v0h-68.011v-68.267c0-18.851-15.282-34.133-34.133-34.133v0c-0.013 0-0.028 0-0.043 0-18.851 0-34.133 15.282-34.133 34.133 0 0 0 0 0 0v0z" />
<glyph unicode="&#xe94d;" glyph-name="fi-rs-add-post" d="M448 223.972c0.291 158.985 129.143 287.777 288.123 287.972h0.019c158.96-0.227 287.753-129.060 287.915-288.013v-0.016c-0.097-158.995-128.929-287.867-287.899-288.028h-0.015c-159.064 0.13-287.98 129.025-288.142 288.070v0.016zM576.057 223.972c0-0.051 0-0.111 0-0.171 0-23.576 19.096-42.691 42.664-42.724h74.755v-74.468c0-0.034 0-0.074 0-0.114 0-23.501 19.052-42.553 42.553-42.553 0.040 0 0.080 0 0.12 0h-0.006c0.034 0 0.074 0 0.114 0 23.501 0 42.553 19.052 42.553 42.553 0 0.040 0 0.080 0 0.12v-0.006 74.468h74.524c23.571 0.032 42.667 19.148 42.667 42.724 0 0.060 0 0.12 0 0.18v-0.009c-0.097 23.525-19.141 42.57-42.657 42.667h-74.59v74.638c-0.032 23.551-19.116 42.634-42.664 42.667h-0.003c-23.564 0-42.667-19.103-42.667-42.667v0-74.695h-74.752c-23.505-0.096-42.538-19.109-42.667-42.597v-0.012zM117.419 63.943c-0.068 0-0.148 0-0.228 0-64.703 0-117.159 52.436-117.191 117.131v661.564c0.032 64.793 52.565 117.305 117.362 117.305 0.020 0 0.040 0 0.060 0h490.663c64.768-0.065 117.248-52.585 117.248-117.362v0-245.76c-46.467-0.834-90.475-10.392-130.771-27.097l2.373 0.872c0.351 1.259 0.553 2.705 0.553 4.198 0 0.405-0.015 0.806-0.044 1.203l0.003-0.053c-0.16 23.499-19.167 42.507-42.651 42.667h-384.129c-23.525-0.097-42.57-19.141-42.667-42.657v-0.009c0-0.034 0-0.074 0-0.114 0-23.501 19.052-42.553 42.553-42.553 0.040 0 0.080 0 0.12 0h356.63c-42.445-28.953-77.701-65.078-104.812-106.967l-0.888-1.464c-7.141 13.622-21.182 22.756-37.357 22.756-0.067 0-0.133 0-0.2 0h-213.38c-0.034 0-0.074 0-0.114 0-23.501 0-42.553-19.052-42.553-42.553 0-0.040 0-0.080 0-0.12v0.006c0.097-23.459 19.137-42.439 42.609-42.439 0.020 0 0.040 0 0.060 0h213.387c0.341-0.019 0.739-0.030 1.14-0.030 1.611 0 3.182 0.177 4.692 0.512l-0.143-0.027c-17.023-40.947-26.909-88.509-26.909-138.38 0-0.251 0-0.502 0.001-0.752v0.039c0-0.119 0-0.259 0-0.4 0-58.004 13.263-112.91 36.923-161.851l-0.969 2.223zM128.057 746.61c0-23.564 19.103-42.667 42.667-42.667v0h170.667c23.538 0.065 42.602 19.129 42.667 42.66v0.006c-0.065 23.538-19.129 42.602-42.66 42.667h-170.673c-0.017 0-0.037 0-0.057 0-23.544 0-42.634-19.070-42.667-42.607v-0.003z" />
<glyph unicode="&#xe94e;" glyph-name="fi-rs-bookmark-f" horiz-adv-x="838" d="M23.962-58.163c6.499-3.665 14.269-5.824 22.543-5.824 9.16 0 17.703 2.647 24.904 7.217l-0.19-0.113 347.699 217.293 347.699-217.293c7.003-4.444 15.533-7.082 24.678-7.082 25.704 0 46.541 20.837 46.541 46.541 0 0.006 0 0.011 0 0.017v-0.001 837.786c0 77.111-62.511 139.622-139.622 139.622-0.018 0-0.036 0-0.054 0h-558.538c-77.111 0-139.622-62.511-139.622-139.622v0-837.837c0-0.078-0.001-0.17-0.001-0.263 0-17.415 9.566-32.597 23.729-40.576l0.233-0.121z" />
<glyph unicode="&#xe94f;" glyph-name="fi-rs-drag" d="M597.333 106.667c0 47.128 38.205 85.333 85.333 85.333v0c47.128 0 85.333-38.205 85.333-85.333v0c0-47.128-38.205-85.333-85.333-85.333v0c-47.128 0-85.333 38.205-85.333 85.333v0zM256 106.667c0 47.128 38.205 85.333 85.333 85.333v0c47.128 0 85.333-38.205 85.333-85.333v0c0-47.128-38.205-85.333-85.333-85.333v0c-47.128 0-85.333 38.205-85.333 85.333v0zM597.333 448c0 47.128 38.205 85.333 85.333 85.333v0c47.128 0 85.333-38.205 85.333-85.333v0c0-47.128-38.205-85.333-85.333-85.333v0c-47.128 0-85.333 38.205-85.333 85.333v0zM256 448c0 47.128 38.205 85.333 85.333 85.333v0c47.128 0 85.333-38.205 85.333-85.333v0c0-47.128-38.205-85.333-85.333-85.333v0c-47.128 0-85.333 38.205-85.333 85.333v0zM597.333 789.333c0 47.128 38.205 85.333 85.333 85.333v0c47.128 0 85.333-38.205 85.333-85.333v0c0-47.128-38.205-85.333-85.333-85.333v0c-47.128 0-85.333 38.205-85.333 85.333v0zM256 789.333c0 47.128 38.205 85.333 85.333 85.333v0c47.128 0 85.333-38.205 85.333-85.333v0c0-47.128-38.205-85.333-85.333-85.333v0c-47.128 0-85.333 38.205-85.333 85.333v0z" />
<glyph unicode="&#xe950;" glyph-name="fi-rs-group-f" d="M778.24 149.333v79.957c0 0.1 0 0.217 0 0.335 0 45.948-11.891 89.119-32.764 126.603l0.678-1.327c9.669 2.51 20.817 4.053 32.29 4.265l0.136 0.002c85.617-6.126 153.61-73.898 160.050-158.865l0.035-0.58v-50.389zM85.333 149.333v50.261c6.416 85.34 74.067 153.006 158.824 159.41l0.579 0.035c12.152-0.075 23.907-1.627 35.141-4.484l-1.008 0.217c-19.766-35.923-31.494-78.687-31.744-124.169v-81.271zM288.085 150.741v79.915c0.327 40.955 11.7 79.186 31.281 111.946l-0.561-1.013c41.009 65.142 111.892 108.212 192.948 109.905l0.247 0.004c80.754-1.47 151.294-43.867 191.912-107.272l0.558-0.93c19.695-32.156 31.382-71.069 31.445-112.708v-79.932zM773.461 417.365c-59.722 0.695-107.867 49.271-107.867 109.092 0 0.408 0.002 0.815 0.007 1.221l-0.001-0.062c-0.001 0.153-0.001 0.333-0.001 0.514 0 30.209 11.992 57.617 31.475 77.723l-0.028-0.029c19.372 19.968 46.44 32.376 76.407 32.427h0.009c1.708 0.097 3.707 0.152 5.719 0.152 39.515 0 74.057-21.291 92.78-53.026l0.274-0.502c9.765-16.339 15.538-36.039 15.538-57.088s-5.774-40.749-15.823-57.604l0.285 0.516c-18.923-32.125-53.275-53.382-92.606-53.547h-0.024c-2.048 0-4.096 0.085-6.144 0.171zM242.688 417.365c-59.756 0.864-107.865 49.507-107.865 109.387 0 0.304 0.001 0.607 0.004 0.91v-0.046c-0.001 0.205-0.002 0.447-0.002 0.69 0 45.25 27.092 84.172 65.941 101.43l0.707 0.28c12.266 5.331 26.554 8.432 41.567 8.432 30.011 0 57.128-12.394 76.51-32.343l0.025-0.026c19.617-20.208 31.711-47.814 31.711-78.244 0-15.309-3.061-29.903-8.604-43.204l0.275 0.743c-16.242-40.113-54.751-67.955-99.801-68.266h-0.039zM367.616 645.248c-0.008 0.562-0.013 1.225-0.013 1.889 0 77.899 62.634 141.168 140.289 142.195l0.097 0.001c77.93-0.768 140.807-64.121 140.807-142.159 0-0.512-0.003-1.024-0.008-1.535l0.001 0.078c0.006-0.497 0.010-1.083 0.010-1.671 0-78.048-62.874-141.41-140.735-142.201l-0.075-0.001c-77.748 1.032-140.378 64.3-140.378 142.196 0 0.409 0.002 0.818 0.005 1.226v-0.063z" />
</font>
</defs>
</svg>
